<?xml version="1.0" encoding="UTF-8"?>
<svg xmlns="http://www.w3.org/2000/svg" xmlns:xlink="http://www.w3.org/1999/xlink" version="1.2" >
<font id="AIAEverestMedium">
<font-face  font-family="AIA Everest" units-per-em="1000" ascent="750" descent="-250" font-style="normal" font-weight="500" font-stretch="normal" cap-height="680" x-height="490" underline-position="-89" underline-thickness="82" />
<missing-glyph  horiz-adv-x="579" d="M100 780 L479 780 L479 -100 L100 -100 L100 780 Z " />
<glyph glyph-name="space" unicode="&#x20;" horiz-adv-x="230" d="" />
<glyph glyph-name="A" unicode="A" horiz-adv-x="635" d="M454 161 L180 161 Q154 75 136 0 L21 0 Q65 161 127 352 Q189 543 238 659 Q243 671 250 675.5 Q257 680 274 680 L362 680 Q379 680 386 675.5 Q393 671 399 659 Q448 549 506.5 365 Q565 181 614 0 L497 0 Q482 61 454 161 Z M424 263 Q367 455 318 584 Q268 450 210 263 L424 263 Z " />
<glyph glyph-name="Aacute" unicode="&#xc1;" horiz-adv-x="635" d="M454 161 L180 161 Q154 75 136 0 L21 0 Q65 161 127 352 Q189 543 238 659 Q243 671 250 675.5 Q257 680 274 680 L362 680 Q379 680 386 675.5 Q393 671 399 659 Q448 549 506.5 365 Q565 181 614 0 L497 0 Q482 61 454 161 Z M424 263 Q367 455 318 584 Q268 450 210 263 L424 263 Z M362 740 L267 740 Q295 809 334 862 L453 862 Q417 818 362 740 Z " />
<glyph glyph-name="Abreve" unicode="&#x102;" horiz-adv-x="635" d="M454 161 L180 161 Q154 75 136 0 L21 0 Q65 161 127 352 Q189 543 238 659 Q243 671 250 675.5 Q257 680 274 680 L362 680 Q379 680 386 675.5 Q393 671 399 659 Q448 549 506.5 365 Q565 181 614 0 L497 0 Q482 61 454 161 Z M424 263 Q367 455 318 584 Q268 450 210 263 L424 263 Z M457 860 Q457 803 419.5 770 Q382 737 321 737 Q259 737 222 769.5 Q185 802 185 860 L263 860 Q263 836 276.5 817.5 Q290 799 321 799 Q352 799 365.5 817.5 Q379 836 379 860 L457 860 L457 860 Z " />
<glyph glyph-name="Acircumflex" unicode="&#xc2;" horiz-adv-x="635" d="M454 161 L180 161 Q154 75 136 0 L21 0 Q65 161 127 352 Q189 543 238 659 Q243 671 250 675.5 Q257 680 274 680 L362 680 Q379 680 386 675.5 Q393 671 399 659 Q448 549 506.5 365 Q565 181 614 0 L497 0 Q482 61 454 161 Z M424 263 Q367 455 318 584 Q268 450 210 263 L424 263 Z M377 740 Q351 783 319 817 Q284 777 261 740 L175 740 Q188 770 207 802 Q226 834 247 860 L392 860 Q434 808 464 740 L377 740 Z " />
<glyph glyph-name="Adieresis" unicode="&#xc4;" horiz-adv-x="635" d="M454 161 L180 161 Q154 75 136 0 L21 0 Q65 161 127 352 Q189 543 238 659 Q243 671 250 675.5 Q257 680 274 680 L362 680 Q379 680 386 675.5 Q393 671 399 659 Q448 549 506.5 365 Q565 181 614 0 L497 0 Q482 61 454 161 Z M424 263 Q367 455 318 584 Q268 450 210 263 L424 263 Z M163 807 Q163 834 181.5 851.5 Q200 869 227 869 Q254 869 272.5 851.5 Q291 834 291 807 Q291 780 272.5 762 Q254 744 227 744 Q200 744 181.5 762 Q163 780 163 807 Z M348 807 Q348 834 366.5 851.5 Q385 869 412 869 Q440 869 458.5 851.5 Q477 834 477 807 Q477 780 458.5 762 Q440 744 412 744 Q385 744 366.5 762 Q348 780 348 807 Z " />
<glyph glyph-name="Agrave" unicode="&#xc0;" horiz-adv-x="635" d="M454 161 L180 161 Q154 75 136 0 L21 0 Q65 161 127 352 Q189 543 238 659 Q243 671 250 675.5 Q257 680 274 680 L362 680 Q379 680 386 675.5 Q393 671 399 659 Q448 549 506.5 365 Q565 181 614 0 L497 0 Q482 61 454 161 Z M424 263 Q367 455 318 584 Q268 450 210 263 L424 263 Z M301 862 Q340 809 368 740 L276 740 Q224 815 182 862 L301 862 Z " />
<glyph glyph-name="Amacron" unicode="&#x100;" horiz-adv-x="635" d="M454 161 L180 161 Q154 75 136 0 L21 0 Q65 161 127 352 Q189 543 238 659 Q243 671 250 675.5 Q257 680 274 680 L362 680 Q379 680 386 675.5 Q393 671 399 659 Q448 549 506.5 365 Q565 181 614 0 L497 0 Q482 61 454 161 Z M424 263 Q367 455 318 584 Q268 450 210 263 L424 263 Z M446 836 L446 755 L194 755 L194 836 L446 836 Z " />
<glyph glyph-name="Aogonek" unicode="&#x104;" horiz-adv-x="635" d="M603 -105 L611 -105 L611 -174 Q598 -177 577 -177 Q529 -177 502 -155.5 Q475 -134 475 -95 Q475 -65 491 -41 Q507 -17 534 0 L497 0 Q482 61 454 161 L180 161 Q154 75 136 0 L21 0 Q65 161 127 352 Q189 543 238 659 Q243 671 250 675.5 Q257 680 274 680 L362 680 Q379 680 386 675.5 Q393 671 399 659 Q448 549 506.5 365 Q565 181 614 0 Q557 -32 557 -72 Q557 -105 603 -105 Z M424 263 Q367 455 318 584 Q268 450 210 263 L424 263 Z " />
<glyph glyph-name="Aring" unicode="&#xc5;" horiz-adv-x="635" d="M454 161 L180 161 Q154 75 136 0 L21 0 Q65 161 127 352 Q189 543 238 659 Q243 671 250 675.5 Q257 680 274 680 L362 680 Q379 680 386 675.5 Q393 671 399 659 Q448 549 506.5 365 Q565 181 614 0 L497 0 Q482 61 454 161 Z M424 263 Q367 455 318 584 Q268 450 210 263 L424 263 Z M213 819 Q213 863 242.5 890.5 Q272 918 320 918 Q368 918 397.5 890.5 Q427 863 427 819 Q427 776 397 748 Q367 720 320 720 Q272 720 242.5 748 Q213 776 213 819 Z M371 819 Q371 841 357.5 855.5 Q344 870 320 870 Q296 870 282.5 855.5 Q269 841 269 819 Q269 797 282.5 782.5 Q296 768 320 768 Q344 768 357.5 782.5 Q371 797 371 819 Z " />
<glyph glyph-name="Atilde" unicode="&#xc3;" horiz-adv-x="635" d="M454 161 L180 161 Q154 75 136 0 L21 0 Q65 161 127 352 Q189 543 238 659 Q243 671 250 675.5 Q257 680 274 680 L362 680 Q379 680 386 675.5 Q393 671 399 659 Q448 549 506.5 365 Q565 181 614 0 L497 0 Q482 61 454 161 Z M424 263 Q367 455 318 584 Q268 450 210 263 L424 263 Z M386 740 Q364 740 346.5 747 Q329 754 307 766 Q292 775 281 779.5 Q270 784 259 784 Q241 784 233 773 Q225 762 223 740 L166 740 Q167 796 191 826 Q215 856 257 856 Q276 856 293 849 Q310 842 330 830 Q346 821 357.5 816 Q369 811 380 811 Q397 811 405.5 824 Q414 837 415 856 L473 856 Q471 799 449 769.5 Q427 740 386 740 Z " />
<glyph glyph-name="AE" unicode="&#xc6;" horiz-adv-x="874" d="M824 103 L824 0 L379 0 L379 161 L194 161 Q162 75 136 0 L21 0 Q62 128 150.5 338 Q239 548 299 658 Q306 670 313 675 Q320 680 336 680 L815 680 L815 577 L496 577 L496 397 L792 397 L792 295 L496 295 L496 103 L824 103 Z M379 263 L379 596 Q312 460 234 263 L379 263 Z " />
<glyph glyph-name="B" unicode="B" horiz-adv-x="631" d="M590 194 Q590 101 527.5 50.5 Q465 0 358 0 L80 0 L80 680 L360 680 Q453 680 508 632.5 Q563 585 563 504 Q563 450 537.5 412.5 Q512 375 473 359 Q525 341 557.5 298.5 Q590 256 590 194 Z M197 397 L335 397 Q390 397 419.5 423 Q449 449 449 495 Q449 541 419 564 Q389 587 335 587 L197 587 L197 397 Z M474 199 Q474 251 438.5 278 Q403 305 337 305 L197 305 L197 93 L337 93 Q407 93 440.5 118.5 Q474 144 474 199 Z " />
<glyph glyph-name="C" unicode="C" horiz-adv-x="601" d="M49 321 L49 359 Q49 532 123.5 612 Q198 692 316 692 Q386 692 438.5 667 Q491 642 522 599 Q553 556 560 504 L562 488 L443 488 Q411 588 315 588 Q234 588 200.5 522.5 Q167 457 167 356 L167 324 Q167 223 200.5 157.5 Q234 92 315 92 Q418 92 444 203 L564 203 L562 187 Q550 98 485.5 43 Q421 -12 316 -12 Q198 -12 123.5 68 Q49 148 49 321 Z " />
<glyph glyph-name="Cacute" unicode="&#x106;" horiz-adv-x="601" d="M49 321 L49 359 Q49 532 123.5 612 Q198 692 316 692 Q386 692 438.5 667 Q491 642 522 599 Q553 556 560 504 L562 488 L443 488 Q411 588 315 588 Q234 588 200.5 522.5 Q167 457 167 356 L167 324 Q167 223 200.5 157.5 Q234 92 315 92 Q418 92 444 203 L564 203 L562 187 Q550 98 485.5 43 Q421 -12 316 -12 Q198 -12 123.5 68 Q49 148 49 321 Z M363 740 L268 740 Q296 809 335 862 L454 862 Q418 818 363 740 Z " />
<glyph glyph-name="Ccaron" unicode="&#x10c;" horiz-adv-x="601" d="M49 321 L49 359 Q49 532 123.5 612 Q198 692 316 692 Q386 692 438.5 667 Q491 642 522 599 Q553 556 560 504 L562 488 L443 488 Q411 588 315 588 Q234 588 200.5 522.5 Q167 457 167 356 L167 324 Q167 223 200.5 157.5 Q234 92 315 92 Q418 92 444 203 L564 203 L562 187 Q550 98 485.5 43 Q421 -12 316 -12 Q198 -12 123.5 68 Q49 148 49 321 Z M466 860 Q436 792 394 740 L249 740 Q228 766 209 798 Q190 830 177 860 L263 860 Q286 823 321 783 Q353 817 379 860 L466 860 Z " />
<glyph glyph-name="Ccedilla" unicode="&#xc7;" horiz-adv-x="601" d="M564 203 L562 187 Q550 103 492 49 Q434 -5 340 -12 L327 -38 Q367 -40 390.5 -60 Q414 -80 414 -116 Q414 -156 386 -178 Q358 -200 312 -200 Q283 -200 257 -191.5 Q231 -183 213 -168 L243 -121 Q273 -143 309 -143 Q349 -143 349 -114 Q349 -101 336.5 -94 Q324 -87 303 -87 Q288 -87 270 -92 L252 -69 L280 -10 Q176 1 112.5 81.5 Q49 162 49 321 L49 359 Q49 532 123.5 612 Q198 692 316 692 Q385 692 438 667 Q491 642 522 599 Q553 556 560 504 L562 488 L443 488 Q411 588 315 588 Q234 588 200.5 522.5 Q167 457 167 356 L167 324 Q167 223 200.5 157.5 Q234 92 315 92 Q416 92 444 203 L564 203 Z " />
<glyph glyph-name="Cdotaccent" unicode="&#x10a;" horiz-adv-x="601" d="M49 321 L49 359 Q49 532 123.5 612 Q198 692 316 692 Q386 692 438.5 667 Q491 642 522 599 Q553 556 560 504 L562 488 L443 488 Q411 588 315 588 Q234 588 200.5 522.5 Q167 457 167 356 L167 324 Q167 223 200.5 157.5 Q234 92 315 92 Q418 92 444 203 L564 203 L562 187 Q550 98 485.5 43 Q421 -12 316 -12 Q198 -12 123.5 68 Q49 148 49 321 Z M256 807 Q256 835 275 853 Q294 871 322 871 Q350 871 369 853 Q388 835 388 807 Q388 780 368.5 762 Q349 744 322 744 Q294 744 275 762 Q256 780 256 807 Z " />
<glyph glyph-name="D" unicode="D" horiz-adv-x="634" d="M80 680 L282 680 Q413 680 499 603.5 Q585 527 585 355 L585 325 Q585 154 499 77 Q413 0 282 0 L80 0 L80 680 Z M283 103 Q371 103 419 159 Q467 215 467 328 L467 352 Q467 465 419 521 Q371 577 283 577 L197 577 L197 103 L283 103 Z " />
<glyph glyph-name="Eth" unicode="&#xd0;" horiz-adv-x="646" d="M597 355 L597 325 Q597 154 511.5 77 Q426 0 296 0 L92 0 L92 304 L28 304 L28 381 L92 381 L92 680 L296 680 Q427 680 512 603.5 Q597 527 597 355 Z M479 352 Q479 465 430 521 Q381 577 292 577 L209 577 L209 381 L328 381 L328 304 L209 304 L209 103 L292 103 Q381 103 430 159 Q479 215 479 328 L479 352 Z " />
<glyph glyph-name="Dcaron" unicode="&#x10e;" horiz-adv-x="634" d="M80 680 L282 680 Q413 680 499 603.5 Q585 527 585 355 L585 325 Q585 154 499 77 Q413 0 282 0 L80 0 L80 680 Z M283 103 Q371 103 419 159 Q467 215 467 328 L467 352 Q467 465 419 521 Q371 577 283 577 L197 577 L197 103 L283 103 Z M442 860 Q412 792 370 740 L225 740 Q204 766 185 798 Q166 830 153 860 L239 860 Q262 823 297 783 Q329 817 355 860 L442 860 Z " />
<glyph glyph-name="Dcroat" unicode="&#x110;" horiz-adv-x="646" d="M597 355 L597 325 Q597 154 511.5 77 Q426 0 296 0 L92 0 L92 304 L28 304 L28 381 L92 381 L92 680 L296 680 Q427 680 512 603.5 Q597 527 597 355 Z M479 352 Q479 465 430 521 Q381 577 292 577 L209 577 L209 381 L328 381 L328 304 L209 304 L209 103 L292 103 Q381 103 430 159 Q479 215 479 328 L479 352 Z " />
<glyph glyph-name="E" unicode="E" horiz-adv-x="575" d="M526 103 L526 0 L80 0 L80 680 L517 680 L517 577 L197 577 L197 397 L494 397 L494 295 L197 295 L197 103 L526 103 Z " />
<glyph glyph-name="Eacute" unicode="&#xc9;" horiz-adv-x="575" d="M526 103 L526 0 L80 0 L80 680 L517 680 L517 577 L197 577 L197 397 L494 397 L494 295 L197 295 L197 103 L526 103 Z M345 740 L250 740 Q278 809 317 862 L436 862 Q400 818 345 740 Z " />
<glyph glyph-name="Ecaron" unicode="&#x11a;" horiz-adv-x="575" d="M526 103 L526 0 L80 0 L80 680 L517 680 L517 577 L197 577 L197 397 L494 397 L494 295 L197 295 L197 103 L526 103 Z M448 860 Q418 792 376 740 L231 740 Q210 766 191 798 Q172 830 159 860 L245 860 Q268 823 303 783 Q335 817 361 860 L448 860 Z " />
<glyph glyph-name="Ecircumflex" unicode="&#xca;" horiz-adv-x="575" d="M526 103 L526 0 L80 0 L80 680 L517 680 L517 577 L197 577 L197 397 L494 397 L494 295 L197 295 L197 103 L526 103 Z M361 740 Q335 783 303 817 Q268 777 245 740 L159 740 Q172 770 191 802 Q210 834 231 860 L376 860 Q418 808 448 740 L361 740 Z " />
<glyph glyph-name="Edieresis" unicode="&#xcb;" horiz-adv-x="575" d="M526 103 L526 0 L80 0 L80 680 L517 680 L517 577 L197 577 L197 397 L494 397 L494 295 L197 295 L197 103 L526 103 Z M147 807 Q147 834 165.5 851.5 Q184 869 211 869 Q238 869 256.5 851.5 Q275 834 275 807 Q275 780 256.5 762 Q238 744 211 744 Q184 744 165.5 762 Q147 780 147 807 Z M332 807 Q332 834 350.5 851.5 Q369 869 396 869 Q424 869 442.5 851.5 Q461 834 461 807 Q461 780 442.5 762 Q424 744 396 744 Q369 744 350.5 762 Q332 780 332 807 Z " />
<glyph glyph-name="Edotaccent" unicode="&#x116;" horiz-adv-x="575" d="M526 103 L526 0 L80 0 L80 680 L517 680 L517 577 L197 577 L197 397 L494 397 L494 295 L197 295 L197 103 L526 103 Z M238 807 Q238 835 257 853 Q276 871 304 871 Q332 871 351 853 Q370 835 370 807 Q370 780 350.5 762 Q331 744 304 744 Q276 744 257 762 Q238 780 238 807 Z " />
<glyph glyph-name="Egrave" unicode="&#xc8;" horiz-adv-x="575" d="M526 103 L526 0 L80 0 L80 680 L517 680 L517 577 L197 577 L197 397 L494 397 L494 295 L197 295 L197 103 L526 103 Z M285 862 Q324 809 352 740 L260 740 Q208 815 166 862 L285 862 Z " />
<glyph glyph-name="Emacron" unicode="&#x112;" horiz-adv-x="575" d="M526 103 L526 0 L80 0 L80 680 L517 680 L517 577 L197 577 L197 397 L494 397 L494 295 L197 295 L197 103 L526 103 Z M429 836 L429 755 L177 755 L177 836 L429 836 Z " />
<glyph glyph-name="Eogonek" unicode="&#x118;" horiz-adv-x="575" d="M468 -71 Q468 -105 514 -105 L523 -105 L523 -174 Q510 -177 489 -177 Q440 -177 413 -155 Q386 -133 386 -94 Q386 -38 445 0 L80 0 L80 680 L517 680 L517 577 L197 577 L197 397 L494 397 L494 295 L197 295 L197 103 L526 103 L526 0 Q468 -33 468 -71 Z " />
<glyph glyph-name="F" unicode="F" horiz-adv-x="565" d="M197 577 L197 397 L494 397 L494 295 L197 295 L197 0 L80 0 L80 680 L517 680 L517 577 L197 577 Z " />
<glyph glyph-name="G" unicode="G" horiz-adv-x="631" d="M49 321 L49 359 Q49 531 126 611.5 Q203 692 323 692 Q395 692 449 666.5 Q503 641 534 599.5 Q565 558 572 510 L574 496 L453 496 Q439 540 409 563.5 Q379 587 324 587 Q238 587 202.5 522.5 Q167 458 167 356 L167 324 Q167 223 202.5 158 Q238 93 324 93 Q397 93 430.5 135 Q464 177 464 250 L464 271 L323 271 L323 373 L581 373 L581 269 Q581 123 510 55.5 Q439 -12 323 -12 Q203 -12 126 68.5 Q49 149 49 321 Z " />
<glyph glyph-name="Gbreve" unicode="&#x11e;" horiz-adv-x="631" d="M49 321 L49 359 Q49 531 126 611.5 Q203 692 323 692 Q395 692 449 666.5 Q503 641 534 599.5 Q565 558 572 510 L574 496 L453 496 Q439 540 409 563.5 Q379 587 324 587 Q238 587 202.5 522.5 Q167 458 167 356 L167 324 Q167 223 202.5 158 Q238 93 324 93 Q397 93 430.5 135 Q464 177 464 250 L464 271 L323 271 L323 373 L581 373 L581 269 Q581 123 510 55.5 Q439 -12 323 -12 Q203 -12 126 68.5 Q49 149 49 321 Z M464 860 Q464 803 426.5 770 Q389 737 328 737 Q266 737 229 769.5 Q192 802 192 860 L270 860 Q270 836 283.5 817.5 Q297 799 328 799 Q359 799 372.5 817.5 Q386 836 386 860 L464 860 L464 860 Z " />
<glyph glyph-name="Gcommaaccent" unicode="&#x122;" horiz-adv-x="631" d="M49 321 L49 359 Q49 531 126 611.5 Q203 692 323 692 Q395 692 449 666.5 Q503 641 534 599.5 Q565 558 572 510 L574 496 L453 496 Q439 540 409 563.5 Q379 587 324 587 Q238 587 202.5 522.5 Q167 458 167 356 L167 324 Q167 223 202.5 158 Q238 93 324 93 Q397 93 430.5 135 Q464 177 464 250 L464 271 L323 271 L323 373 L581 373 L581 269 Q581 123 510 55.5 Q439 -12 323 -12 Q203 -12 126 68.5 Q49 149 49 321 Z M274 -52 L372 -52 Q371 -99 358 -133.5 Q345 -168 324 -200 L259 -200 Q274 -119 274 -52 Z " />
<glyph glyph-name="Gdotaccent" unicode="&#x120;" horiz-adv-x="631" d="M49 321 L49 359 Q49 531 126 611.5 Q203 692 323 692 Q395 692 449 666.5 Q503 641 534 599.5 Q565 558 572 510 L574 496 L453 496 Q439 540 409 563.5 Q379 587 324 587 Q238 587 202.5 522.5 Q167 458 167 356 L167 324 Q167 223 202.5 158 Q238 93 324 93 Q397 93 430.5 135 Q464 177 464 250 L464 271 L323 271 L323 373 L581 373 L581 269 Q581 123 510 55.5 Q439 -12 323 -12 Q203 -12 126 68.5 Q49 149 49 321 Z M261 807 Q261 835 280 853 Q299 871 327 871 Q355 871 374 853 Q393 835 393 807 Q393 780 373.5 762 Q354 744 327 744 Q299 744 280 762 Q261 780 261 807 Z " />
<glyph glyph-name="H" unicode="H" horiz-adv-x="685" d="M605 680 L605 0 L488 0 L488 295 L197 295 L197 0 L80 0 L80 680 L197 680 L197 397 L488 397 L488 680 L605 680 Z " />
<glyph glyph-name="Hbar" unicode="&#x126;" horiz-adv-x="685" d="M651 500 L605 500 L605 0 L488 0 L488 295 L197 295 L197 0 L80 0 L80 500 L34 500 L34 578 L80 578 L80 680 L197 680 L197 578 L488 578 L488 680 L605 680 L605 578 L651 578 L651 500 Z M488 500 L197 500 L197 397 L488 397 L488 500 Z " />
<glyph glyph-name="I" unicode="I" horiz-adv-x="285" d="M201 0 L84 0 L84 680 L201 680 L201 0 Z " />
<glyph glyph-name="Iacute" unicode="&#xcd;" horiz-adv-x="285" d="M201 0 L84 0 L84 680 L201 680 L201 0 Z M185 740 L90 740 Q118 809 157 862 L276 862 Q240 818 185 740 Z " />
<glyph glyph-name="Icircumflex" unicode="&#xce;" horiz-adv-x="285" d="M201 0 L84 0 L84 680 L201 680 L201 0 Z M200 740 Q174 783 142 817 Q107 777 84 740 L-2 740 Q11 770 30 802 Q49 834 70 860 L215 860 Q257 808 287 740 L200 740 Z " />
<glyph glyph-name="Idieresis" unicode="&#xcf;" horiz-adv-x="285" d="M201 0 L84 0 L84 680 L201 680 L201 0 Z M-14 807 Q-14 834 4.5 851.5 Q23 869 50 869 Q77 869 95.5 851.5 Q114 834 114 807 Q114 780 95.5 762 Q77 744 50 744 Q23 744 4.5 762 Q-14 780 -14 807 Z M171 807 Q171 834 189.5 851.5 Q208 869 235 869 Q263 869 281.5 851.5 Q300 834 300 807 Q300 780 281.5 762 Q263 744 235 744 Q208 744 189.5 762 Q171 780 171 807 Z " />
<glyph glyph-name="Idot" unicode="&#x130;" horiz-adv-x="285" d="M201 0 L84 0 L84 680 L201 680 L201 0 Z M77 807 Q77 835 96 853 Q115 871 143 871 Q171 871 190 853 Q209 835 209 807 Q209 780 189.5 762 Q170 744 143 744 Q115 744 96 762 Q77 780 77 807 Z " />
<glyph glyph-name="Igrave" unicode="&#xcc;" horiz-adv-x="285" d="M201 0 L84 0 L84 680 L201 680 L201 0 Z M124 862 Q163 809 191 740 L99 740 Q47 815 5 862 L124 862 Z " />
<glyph glyph-name="Imacron" unicode="&#x12a;" horiz-adv-x="285" d="M201 0 L84 0 L84 680 L201 680 L201 0 Z M269 836 L269 755 L17 755 L17 836 L269 836 Z " />
<glyph glyph-name="Iogonek" unicode="&#x12e;" horiz-adv-x="285" d="M144 -72 Q144 -105 190 -105 L198 -105 L198 -174 Q185 -177 165 -177 Q116 -177 89 -155.5 Q62 -134 62 -95 Q62 -65 78.5 -41 Q95 -17 122 0 L84 0 L84 680 L201 680 L201 0 Q144 -32 144 -72 Z " />
<glyph glyph-name="J" unicode="J" horiz-adv-x="417" d="M112 96 Q167 96 194 124 Q221 152 221 216 L221 680 L339 680 L339 202 Q339 -9 136 -9 Q103 -9 71.5 -3.5 Q40 2 21 9 L21 110 Q64 96 112 96 Z " />
<glyph glyph-name="K" unicode="K" horiz-adv-x="630" d="M488 0 Q459 64 407.5 155.5 Q356 247 308 315 Q254 261 197 209 L197 0 L80 0 L80 680 L197 680 L197 343 Q375 529 470 680 L596 680 Q523 547 388 400 Q452 306 519.5 185.5 Q587 65 613 0 L488 0 Z " />
<glyph glyph-name="Kcommaaccent" unicode="&#x136;" horiz-adv-x="630" d="M488 0 Q459 64 407.5 155.5 Q356 247 308 315 Q254 261 197 209 L197 0 L80 0 L80 680 L197 680 L197 343 Q375 529 470 680 L596 680 Q523 547 388 400 Q452 306 519.5 185.5 Q587 65 613 0 L488 0 Z M263 -52 L361 -52 Q360 -99 347 -133.5 Q334 -168 313 -200 L248 -200 Q263 -119 263 -52 Z " />
<glyph glyph-name="L" unicode="L" horiz-adv-x="531" d="M502 103 L502 0 L80 0 L80 680 L197 680 L197 103 L502 103 Z " />
<glyph glyph-name="Lacute" unicode="&#x139;" horiz-adv-x="531" d="M502 103 L502 0 L80 0 L80 680 L197 680 L197 103 L502 103 Z M186 740 L91 740 Q119 809 158 862 L277 862 Q241 818 186 740 Z " />
<glyph glyph-name="Lcaron" unicode="&#x13d;" horiz-adv-x="531" d="M502 103 L502 0 L80 0 L80 680 L197 680 L197 103 L502 103 Z M307 503 L257 503 Q264 539 270 589 Q276 639 276 681 L362 681 Q359 579 307 503 Z " />
<glyph glyph-name="Lcommaaccent" unicode="&#x13b;" horiz-adv-x="531" d="M502 103 L502 0 L80 0 L80 680 L197 680 L197 103 L502 103 Z M246 -52 L344 -52 Q343 -99 330 -133.5 Q317 -168 296 -200 L231 -200 Q246 -119 246 -52 Z " />
<glyph glyph-name="Lslash" unicode="&#x141;" horiz-adv-x="551" d="M522 103 L522 0 L100 0 L100 226 L29 184 L29 276 L100 319 L100 680 L217 680 L217 391 L354 474 L354 381 L217 298 L217 103 L522 103 Z " />
<glyph glyph-name="M" unicode="M" horiz-adv-x="789" d="M709 680 L709 0 L597 0 L597 503 Q511 304 435 169 Q424 150 405 150 L384 150 Q374 150 368 154.5 Q362 159 356 169 Q268 330 192 504 L192 0 L80 0 L80 680 L219 680 Q254 599 304 491 Q354 383 397 299 Q441 386 489.5 493.5 Q538 601 569 680 L709 680 Z " />
<glyph glyph-name="N" unicode="N" horiz-adv-x="687" d="M607 680 L607 0 L503 0 L192 501 L192 0 L80 0 L80 680 L199 680 L495 204 L495 680 L607 680 Z " />
<glyph glyph-name="Nacute" unicode="&#x143;" horiz-adv-x="687" d="M607 680 L607 0 L503 0 L192 501 L192 0 L80 0 L80 680 L199 680 L495 204 L495 680 L607 680 Z M392 740 L297 740 Q325 809 364 862 L483 862 Q447 818 392 740 Z " />
<glyph glyph-name="Ncaron" unicode="&#x147;" horiz-adv-x="687" d="M607 680 L607 0 L503 0 L192 501 L192 0 L80 0 L80 680 L199 680 L495 204 L495 680 L607 680 Z M494 860 Q464 792 422 740 L277 740 Q256 766 237 798 Q218 830 205 860 L291 860 Q314 823 349 783 Q381 817 407 860 L494 860 Z " />
<glyph glyph-name="Ncommaaccent" unicode="&#x145;" horiz-adv-x="687" d="M607 680 L607 0 L503 0 L192 501 L192 0 L80 0 L80 680 L199 680 L495 204 L495 680 L607 680 Z M294 -52 L392 -52 Q391 -99 378 -133.5 Q365 -168 344 -200 L279 -200 Q294 -119 294 -52 Z " />
<glyph glyph-name="Eng" unicode="&#x14a;" horiz-adv-x="687" d="M607 680 L607 -3 Q607 -87 561 -128 Q515 -169 428 -169 Q369 -169 338 -155 L338 -64 Q371 -76 415 -76 Q499 -76 499 -3 L499 7 L192 499 L192 0 L80 0 L80 680 L199 680 L495 206 L495 680 L607 680 Z " />
<glyph glyph-name="Ntilde" unicode="&#xd1;" horiz-adv-x="687" d="M607 680 L607 0 L503 0 L192 501 L192 0 L80 0 L80 680 L199 680 L495 204 L495 680 L607 680 Z M417 740 Q395 740 377.5 747 Q360 754 338 766 Q323 775 312 779.5 Q301 784 290 784 Q272 784 264 773 Q256 762 254 740 L197 740 Q198 796 222 826 Q246 856 288 856 Q307 856 324 849 Q341 842 361 830 Q377 821 388.5 816 Q400 811 411 811 Q428 811 436.5 824 Q445 837 446 856 L504 856 Q502 799 480 769.5 Q458 740 417 740 Z " />
<glyph glyph-name="O" unicode="O" horiz-adv-x="647" d="M49 321 L49 359 Q49 531 125.5 611.5 Q202 692 324 692 Q445 692 521.5 611.5 Q598 531 598 359 L598 321 Q598 149 521.5 68.5 Q445 -12 324 -12 Q202 -12 125.5 68.5 Q49 149 49 321 Z M481 324 L481 356 Q481 457 445.5 522.5 Q410 588 324 588 Q238 588 202.5 523 Q167 458 167 356 L167 324 Q167 222 202.5 157 Q238 92 324 92 Q410 92 445.5 157.5 Q481 223 481 324 Z " />
<glyph glyph-name="Oacute" unicode="&#xd3;" horiz-adv-x="647" d="M49 321 L49 359 Q49 531 125.5 611.5 Q202 692 324 692 Q445 692 521.5 611.5 Q598 531 598 359 L598 321 Q598 149 521.5 68.5 Q445 -12 324 -12 Q202 -12 125.5 68.5 Q49 149 49 321 Z M481 324 L481 356 Q481 457 445.5 522.5 Q410 588 324 588 Q238 588 202.5 523 Q167 458 167 356 L167 324 Q167 222 202.5 157 Q238 92 324 92 Q410 92 445.5 157.5 Q481 223 481 324 Z M366 740 L271 740 Q299 809 338 862 L457 862 Q421 818 366 740 Z " />
<glyph glyph-name="Ocircumflex" unicode="&#xd4;" horiz-adv-x="647" d="M49 321 L49 359 Q49 531 125.5 611.5 Q202 692 324 692 Q445 692 521.5 611.5 Q598 531 598 359 L598 321 Q598 149 521.5 68.5 Q445 -12 324 -12 Q202 -12 125.5 68.5 Q49 149 49 321 Z M481 324 L481 356 Q481 457 445.5 522.5 Q410 588 324 588 Q238 588 202.5 523 Q167 458 167 356 L167 324 Q167 222 202.5 157 Q238 92 324 92 Q410 92 445.5 157.5 Q481 223 481 324 Z M381 740 Q355 783 323 817 Q288 777 265 740 L179 740 Q192 770 211 802 Q230 834 251 860 L396 860 Q438 808 468 740 L381 740 Z " />
<glyph glyph-name="Odieresis" unicode="&#xd6;" horiz-adv-x="647" d="M49 321 L49 359 Q49 531 125.5 611.5 Q202 692 324 692 Q445 692 521.5 611.5 Q598 531 598 359 L598 321 Q598 149 521.5 68.5 Q445 -12 324 -12 Q202 -12 125.5 68.5 Q49 149 49 321 Z M481 324 L481 356 Q481 457 445.5 522.5 Q410 588 324 588 Q238 588 202.5 523 Q167 458 167 356 L167 324 Q167 222 202.5 157 Q238 92 324 92 Q410 92 445.5 157.5 Q481 223 481 324 Z M167 807 Q167 834 185.5 851.5 Q204 869 231 869 Q258 869 276.5 851.5 Q295 834 295 807 Q295 780 276.5 762 Q258 744 231 744 Q204 744 185.5 762 Q167 780 167 807 Z M352 807 Q352 834 370.5 851.5 Q389 869 416 869 Q444 869 462.5 851.5 Q481 834 481 807 Q481 780 462.5 762 Q444 744 416 744 Q389 744 370.5 762 Q352 780 352 807 Z " />
<glyph glyph-name="Ograve" unicode="&#xd2;" horiz-adv-x="647" d="M49 321 L49 359 Q49 531 125.5 611.5 Q202 692 324 692 Q445 692 521.5 611.5 Q598 531 598 359 L598 321 Q598 149 521.5 68.5 Q445 -12 324 -12 Q202 -12 125.5 68.5 Q49 149 49 321 Z M481 324 L481 356 Q481 457 445.5 522.5 Q410 588 324 588 Q238 588 202.5 523 Q167 458 167 356 L167 324 Q167 222 202.5 157 Q238 92 324 92 Q410 92 445.5 157.5 Q481 223 481 324 Z M305 862 Q344 809 372 740 L280 740 Q228 815 186 862 L305 862 Z " />
<glyph glyph-name="Ohungarumlaut" unicode="&#x150;" horiz-adv-x="647" d="M49 321 L49 359 Q49 531 125.5 611.5 Q202 692 324 692 Q445 692 521.5 611.5 Q598 531 598 359 L598 321 Q598 149 521.5 68.5 Q445 -12 324 -12 Q202 -12 125.5 68.5 Q49 149 49 321 Z M481 324 L481 356 Q481 457 445.5 522.5 Q410 588 324 588 Q238 588 202.5 523 Q167 458 167 356 L167 324 Q167 222 202.5 157 Q238 92 324 92 Q410 92 445.5 157.5 Q481 223 481 324 Z M291 740 L208 740 Q226 788 264 860 L369 860 Q332 816 291 740 Z M440 740 L357 740 Q389 808 424 860 L529 860 Q505 830 440 740 Z " />
<glyph glyph-name="Omacron" unicode="&#x14c;" horiz-adv-x="647" d="M49 321 L49 359 Q49 531 125.5 611.5 Q202 692 324 692 Q445 692 521.5 611.5 Q598 531 598 359 L598 321 Q598 149 521.5 68.5 Q445 -12 324 -12 Q202 -12 125.5 68.5 Q49 149 49 321 Z M481 324 L481 356 Q481 457 445.5 522.5 Q410 588 324 588 Q238 588 202.5 523 Q167 458 167 356 L167 324 Q167 222 202.5 157 Q238 92 324 92 Q410 92 445.5 157.5 Q481 223 481 324 Z M450 836 L450 755 L198 755 L198 836 L450 836 Z " />
<glyph glyph-name="Oslash" unicode="&#xd8;" horiz-adv-x="645" d="M596 359 L596 321 Q596 149 519.5 68.5 Q443 -12 322 -12 Q250 -12 196 15 L172 -32 L106 0 L135 58 Q49 144 49 321 L49 359 Q49 531 125.5 611.5 Q202 692 322 692 Q394 692 447 666 L471 712 L538 680 L509 623 Q596 536 596 359 Z M194 172 L398 569 Q365 588 322 588 Q237 588 202 523 Q167 458 167 356 L167 324 Q167 230 194 172 Z M478 356 Q478 452 450 508 L246 112 Q277 92 322 92 Q407 92 442.5 157.5 Q478 223 478 324 L478 356 Z " />
<glyph glyph-name="Otilde" unicode="&#xd5;" horiz-adv-x="647" d="M49 321 L49 359 Q49 531 125.5 611.5 Q202 692 324 692 Q445 692 521.5 611.5 Q598 531 598 359 L598 321 Q598 149 521.5 68.5 Q445 -12 324 -12 Q202 -12 125.5 68.5 Q49 149 49 321 Z M481 324 L481 356 Q481 457 445.5 522.5 Q410 588 324 588 Q238 588 202.5 523 Q167 458 167 356 L167 324 Q167 222 202.5 157 Q238 92 324 92 Q410 92 445.5 157.5 Q481 223 481 324 Z M390 740 Q368 740 350.5 747 Q333 754 311 766 Q296 775 285 779.5 Q274 784 263 784 Q245 784 237 773 Q229 762 227 740 L170 740 Q171 796 195 826 Q219 856 261 856 Q280 856 297 849 Q314 842 334 830 Q350 821 361.5 816 Q373 811 384 811 Q401 811 409.5 824 Q418 837 419 856 L477 856 Q475 799 453 769.5 Q431 740 390 740 Z " />
<glyph glyph-name="OE" unicode="&#x152;" horiz-adv-x="958" d="M909 103 L909 0 L463 0 L463 52 Q406 -12 304 -12 Q192 -12 120.5 69 Q49 150 49 322 L49 358 Q49 530 120.5 611 Q192 692 304 692 Q408 692 463 627 L463 680 L900 680 L900 577 L581 577 L581 397 L877 397 L877 295 L581 295 L581 103 L909 103 Z M463 189 L463 491 Q428 588 326 588 Q240 588 203.5 522 Q167 456 167 355 L167 325 Q167 224 203.5 158 Q240 92 326 92 Q426 92 463 189 Z " />
<glyph glyph-name="P" unicode="P" horiz-adv-x="604" d="M570 465 Q570 396 540 348 Q510 300 458 275.5 Q406 251 342 251 L197 251 L197 0 L80 0 L80 680 L342 680 Q406 680 458 655.5 Q510 631 540 582.5 Q570 534 570 465 Z M454 465 Q454 522 419.5 551 Q385 580 325 580 L197 580 L197 351 L325 351 Q385 351 419.5 380 Q454 409 454 465 Z " />
<glyph glyph-name="Thorn" unicode="&#xde;" horiz-adv-x="589" d="M555 354 Q555 286 525.5 237.5 Q496 189 444.5 164.5 Q393 140 329 140 L197 140 L197 0 L80 0 L80 680 L197 680 L197 567 L329 567 Q393 567 444.5 542.5 Q496 518 525.5 470 Q555 422 555 354 Z M439 354 Q439 410 406 438 Q373 466 313 466 L197 466 L197 241 L313 241 Q373 241 406 269.5 Q439 298 439 354 Z " />
<glyph glyph-name="Q" unicode="Q" horiz-adv-x="647" d="M452 16 Q488 -6 550 -6 Q572 -6 590 -4 L590 -90 Q568 -96 534 -96 Q477 -96 425 -76.5 Q373 -57 344 -12 L324 -12 Q202 -12 125.5 68.5 Q49 149 49 321 L49 359 Q49 531 125.5 611.5 Q202 692 324 692 Q445 692 521.5 611.5 Q598 531 598 359 L598 321 Q598 200 559 124.5 Q520 49 452 16 Z M481 356 Q481 457 445.5 522.5 Q410 588 324 588 Q238 588 202.5 523 Q167 458 167 356 L167 324 Q167 222 202.5 157 Q238 92 324 92 Q410 92 445.5 157.5 Q481 223 481 324 L481 356 Z " />
<glyph glyph-name="R" unicode="R" horiz-adv-x="626" d="M470 0 Q443 54 397 133 Q351 212 309 269 L197 269 L197 0 L80 0 L80 680 L349 680 Q448 680 508.5 625 Q569 570 569 476 Q569 404 530.5 353.5 Q492 303 429 284 Q474 222 524 136 Q574 50 597 0 L470 0 Z M197 370 L335 370 Q392 370 422.5 398 Q453 426 453 476 Q453 525 422.5 552.5 Q392 580 335 580 L197 580 L197 370 Z " />
<glyph glyph-name="Racute" unicode="&#x154;" horiz-adv-x="626" d="M470 0 Q443 54 397 133 Q351 212 309 269 L197 269 L197 0 L80 0 L80 680 L349 680 Q448 680 508.5 625 Q569 570 569 476 Q569 404 530.5 353.5 Q492 303 429 284 Q474 222 524 136 Q574 50 597 0 L470 0 Z M197 370 L335 370 Q392 370 422.5 398 Q453 426 453 476 Q453 525 422.5 552.5 Q392 580 335 580 L197 580 L197 370 Z M344 740 L249 740 Q277 809 316 862 L435 862 Q399 818 344 740 Z " />
<glyph glyph-name="Rcaron" unicode="&#x158;" horiz-adv-x="626" d="M470 0 Q443 54 397 133 Q351 212 309 269 L197 269 L197 0 L80 0 L80 680 L349 680 Q448 680 508.5 625 Q569 570 569 476 Q569 404 530.5 353.5 Q492 303 429 284 Q474 222 524 136 Q574 50 597 0 L470 0 Z M197 370 L335 370 Q392 370 422.5 398 Q453 426 453 476 Q453 525 422.5 552.5 Q392 580 335 580 L197 580 L197 370 Z M447 860 Q417 792 375 740 L230 740 Q209 766 190 798 Q171 830 158 860 L244 860 Q267 823 302 783 Q334 817 360 860 L447 860 Z " />
<glyph glyph-name="Rcommaaccent" unicode="&#x156;" horiz-adv-x="626" d="M470 0 Q443 54 397 133 Q351 212 309 269 L197 269 L197 0 L80 0 L80 680 L349 680 Q448 680 508.5 625 Q569 570 569 476 Q569 404 530.5 353.5 Q492 303 429 284 Q474 222 524 136 Q574 50 597 0 L470 0 Z M197 370 L335 370 Q392 370 422.5 398 Q453 426 453 476 Q453 525 422.5 552.5 Q392 580 335 580 L197 580 L197 370 Z M282 -52 L380 -52 Q379 -99 366 -133.5 Q353 -168 332 -200 L267 -200 Q282 -119 282 -52 Z " />
<glyph glyph-name="S" unicode="S" horiz-adv-x="575" d="M397 504 Q391 542 360 566 Q329 590 277 590 Q226 590 197.5 565.5 Q169 541 169 504 Q169 466 197.5 446 Q226 426 291 406 L353 388 Q441 361 487 317.5 Q533 274 533 193 Q533 100 469.5 45 Q406 -10 293 -10 Q212 -10 155.5 16 Q99 42 69.5 85.5 Q40 129 37 183 L36 204 L155 204 Q160 151 196 120 Q232 89 295 89 Q352 89 384 115 Q416 141 416 187 Q416 228 389.5 249 Q363 270 307 287 L247 305 Q143 337 98 378.5 Q53 420 53 498 Q53 552 80 595.5 Q107 639 158.5 664.5 Q210 690 281 690 Q355 690 406.5 666.5 Q458 643 485 604.5 Q512 566 515 521 L517 504 L397 504 Z " />
<glyph glyph-name="Sacute" unicode="&#x15a;" horiz-adv-x="575" d="M397 504 Q391 542 360 566 Q329 590 277 590 Q226 590 197.5 565.5 Q169 541 169 504 Q169 466 197.5 446 Q226 426 291 406 L353 388 Q441 361 487 317.5 Q533 274 533 193 Q533 100 469.5 45 Q406 -10 293 -10 Q212 -10 155.5 16 Q99 42 69.5 85.5 Q40 129 37 183 L36 204 L155 204 Q160 151 196 120 Q232 89 295 89 Q352 89 384 115 Q416 141 416 187 Q416 228 389.5 249 Q363 270 307 287 L247 305 Q143 337 98 378.5 Q53 420 53 498 Q53 552 80 595.5 Q107 639 158.5 664.5 Q210 690 281 690 Q355 690 406.5 666.5 Q458 643 485 604.5 Q512 566 515 521 L517 504 L397 504 Z M330 740 L235 740 Q263 809 302 862 L421 862 Q385 818 330 740 Z " />
<glyph glyph-name="Scaron" unicode="&#x160;" horiz-adv-x="575" d="M397 504 Q391 542 360 566 Q329 590 277 590 Q226 590 197.5 565.5 Q169 541 169 504 Q169 466 197.5 446 Q226 426 291 406 L353 388 Q441 361 487 317.5 Q533 274 533 193 Q533 100 469.5 45 Q406 -10 293 -10 Q212 -10 155.5 16 Q99 42 69.5 85.5 Q40 129 37 183 L36 204 L155 204 Q160 151 196 120 Q232 89 295 89 Q352 89 384 115 Q416 141 416 187 Q416 228 389.5 249 Q363 270 307 287 L247 305 Q143 337 98 378.5 Q53 420 53 498 Q53 552 80 595.5 Q107 639 158.5 664.5 Q210 690 281 690 Q355 690 406.5 666.5 Q458 643 485 604.5 Q512 566 515 521 L517 504 L397 504 Z M432 860 Q402 792 360 740 L215 740 Q194 766 175 798 Q156 830 143 860 L229 860 Q252 823 287 783 Q319 817 345 860 L432 860 Z " />
<glyph glyph-name="Scedilla" unicode="&#x15e;" horiz-adv-x="575" d="M312 -9 L298 -38 Q338 -40 361.5 -60 Q385 -80 385 -116 Q385 -156 357 -178 Q329 -200 283 -200 Q254 -200 228 -191.5 Q202 -183 184 -168 L214 -121 Q244 -143 280 -143 Q320 -143 320 -114 Q320 -101 307.5 -94 Q295 -87 275 -87 Q258 -87 241 -92 L223 -69 L252 -8 Q151 1 95.5 54.5 Q40 108 37 183 L36 204 L155 204 Q160 151 196 120 Q232 89 295 89 Q352 89 384 115 Q416 141 416 187 Q416 228 389.5 249 Q363 270 307 287 L247 305 Q143 337 98 378.5 Q53 420 53 498 Q53 552 80 595.5 Q107 639 158.5 664.5 Q210 690 281 690 Q355 690 406.5 666.5 Q458 643 485 604.5 Q512 566 515 521 L517 504 L397 504 Q391 542 360 566 Q329 590 277 590 Q226 590 197.5 565.5 Q169 541 169 504 Q169 466 197.5 446 Q226 426 291 406 L353 388 Q441 361 487 317.5 Q533 274 533 193 Q533 104 474.5 49.5 Q416 -5 312 -9 Z " />
<glyph glyph-name="Scommaaccent" unicode="&#x218;" horiz-adv-x="575" d="M397 504 Q391 542 360 566 Q329 590 277 590 Q226 590 197.5 565.5 Q169 541 169 504 Q169 466 197.5 446 Q226 426 291 406 L353 388 Q441 361 487 317.5 Q533 274 533 193 Q533 100 469.5 45 Q406 -10 293 -10 Q212 -10 155.5 16 Q99 42 69.5 85.5 Q40 129 37 183 L36 204 L155 204 Q160 151 196 120 Q232 89 295 89 Q352 89 384 115 Q416 141 416 187 Q416 228 389.5 249 Q363 270 307 287 L247 305 Q143 337 98 378.5 Q53 420 53 498 Q53 552 80 595.5 Q107 639 158.5 664.5 Q210 690 281 690 Q355 690 406.5 666.5 Q458 643 485 604.5 Q512 566 515 521 L517 504 L397 504 Z M237 -52 L335 -52 Q334 -99 321 -133.5 Q308 -168 287 -200 L222 -200 Q237 -119 237 -52 Z " />
<glyph glyph-name="T" unicode="T" horiz-adv-x="548" d="M522 577 L333 577 L333 0 L215 0 L215 577 L26 577 L26 680 L522 680 L522 577 Z " />
<glyph glyph-name="Tbar" unicode="&#x166;" horiz-adv-x="548" d="M333 577 L333 379 L424 379 L424 302 L333 302 L333 0 L215 0 L215 302 L124 302 L124 379 L215 379 L215 577 L26 577 L26 680 L522 680 L522 577 L333 577 Z " />
<glyph glyph-name="Tcaron" unicode="&#x164;" horiz-adv-x="548" d="M522 577 L333 577 L333 0 L215 0 L215 577 L26 577 L26 680 L522 680 L522 577 Z M418 860 Q388 792 346 740 L201 740 Q180 766 161 798 Q142 830 129 860 L215 860 Q238 823 273 783 Q305 817 331 860 L418 860 Z " />
<glyph glyph-name="uni0162" unicode="&#x162;" horiz-adv-x="548" d="M306 0 L288 -38 Q328 -40 351.5 -60 Q375 -80 375 -116 Q375 -156 347 -178 Q319 -200 273 -200 Q244 -200 218 -191.5 Q192 -183 174 -168 L204 -121 Q234 -143 270 -143 Q310 -143 310 -114 Q310 -101 297.5 -94 Q285 -87 264 -87 Q249 -87 231 -92 L213 -69 L246 0 L215 0 L215 577 L26 577 L26 680 L522 680 L522 577 L333 577 L333 0 L306 0 Z " />
<glyph glyph-name="uni021A" unicode="&#x21a;" horiz-adv-x="548" d="M522 577 L333 577 L333 0 L215 0 L215 577 L26 577 L26 680 L522 680 L522 577 Z M227 -52 L325 -52 Q324 -99 311 -133.5 Q298 -168 277 -200 L212 -200 Q227 -119 227 -52 Z " />
<glyph glyph-name="U" unicode="U" horiz-adv-x="661" d="M583 680 L583 222 Q583 105 515 48 Q447 -9 330 -9 Q213 -9 145.5 48 Q78 105 78 222 L78 680 L195 680 L195 234 Q195 93 330 93 Q465 93 465 234 L465 680 L583 680 Z " />
<glyph glyph-name="Uacute" unicode="&#xda;" horiz-adv-x="661" d="M583 680 L583 222 Q583 105 515 48 Q447 -9 330 -9 Q213 -9 145.5 48 Q78 105 78 222 L78 680 L195 680 L195 234 Q195 93 330 93 Q465 93 465 234 L465 680 L583 680 Z M372 740 L277 740 Q305 809 344 862 L463 862 Q427 818 372 740 Z " />
<glyph glyph-name="Ucircumflex" unicode="&#xdb;" horiz-adv-x="661" d="M583 680 L583 222 Q583 105 515 48 Q447 -9 330 -9 Q213 -9 145.5 48 Q78 105 78 222 L78 680 L195 680 L195 234 Q195 93 330 93 Q465 93 465 234 L465 680 L583 680 Z M388 740 Q362 783 330 817 Q295 777 272 740 L186 740 Q199 770 218 802 Q237 834 258 860 L403 860 Q445 808 475 740 L388 740 Z " />
<glyph glyph-name="Udieresis" unicode="&#xdc;" horiz-adv-x="661" d="M583 680 L583 222 Q583 105 515 48 Q447 -9 330 -9 Q213 -9 145.5 48 Q78 105 78 222 L78 680 L195 680 L195 234 Q195 93 330 93 Q465 93 465 234 L465 680 L583 680 Z M174 807 Q174 834 192.5 851.5 Q211 869 238 869 Q265 869 283.5 851.5 Q302 834 302 807 Q302 780 283.5 762 Q265 744 238 744 Q211 744 192.5 762 Q174 780 174 807 Z M359 807 Q359 834 377.5 851.5 Q396 869 423 869 Q451 869 469.5 851.5 Q488 834 488 807 Q488 780 469.5 762 Q451 744 423 744 Q396 744 377.5 762 Q359 780 359 807 Z " />
<glyph glyph-name="Ugrave" unicode="&#xd9;" horiz-adv-x="661" d="M583 680 L583 222 Q583 105 515 48 Q447 -9 330 -9 Q213 -9 145.5 48 Q78 105 78 222 L78 680 L195 680 L195 234 Q195 93 330 93 Q465 93 465 234 L465 680 L583 680 Z M312 862 Q351 809 379 740 L287 740 Q235 815 193 862 L312 862 Z " />
<glyph glyph-name="Uhungarumlaut" unicode="&#x170;" horiz-adv-x="661" d="M583 680 L583 222 Q583 105 515 48 Q447 -9 330 -9 Q213 -9 145.5 48 Q78 105 78 222 L78 680 L195 680 L195 234 Q195 93 330 93 Q465 93 465 234 L465 680 L583 680 Z M298 740 L215 740 Q233 788 271 860 L376 860 Q339 816 298 740 Z M447 740 L364 740 Q396 808 431 860 L536 860 Q512 830 447 740 Z " />
<glyph glyph-name="Umacron" unicode="&#x16a;" horiz-adv-x="661" d="M583 680 L583 222 Q583 105 515 48 Q447 -9 330 -9 Q213 -9 145.5 48 Q78 105 78 222 L78 680 L195 680 L195 234 Q195 93 330 93 Q465 93 465 234 L465 680 L583 680 Z M456 836 L456 755 L204 755 L204 836 L456 836 Z " />
<glyph glyph-name="Uogonek" unicode="&#x172;" horiz-adv-x="661" d="M330 -91 Q330 -43 368 -7 Q344 -9 328 -9 Q213 -9 145.5 48 Q78 105 78 222 L78 680 L195 680 L195 234 Q195 93 330 93 Q465 93 465 234 L465 680 L583 680 L583 222 Q583 163 567.5 125 Q552 87 532 67.5 Q512 48 476 21 Q442 -4 427 -23 Q412 -42 412 -65 Q412 -105 458 -105 L467 -105 L467 -174 Q454 -177 433 -177 Q384 -177 357 -154.5 Q330 -132 330 -91 Z " />
<glyph glyph-name="Uring" unicode="&#x16e;" horiz-adv-x="661" d="M583 680 L583 222 Q583 105 515 48 Q447 -9 330 -9 Q213 -9 145.5 48 Q78 105 78 222 L78 680 L195 680 L195 234 Q195 93 330 93 Q465 93 465 234 L465 680 L583 680 Z M223 819 Q223 863 252.5 890.5 Q282 918 330 918 Q378 918 407.5 890.5 Q437 863 437 819 Q437 776 407 748 Q377 720 330 720 Q282 720 252.5 748 Q223 776 223 819 Z M381 819 Q381 841 367.5 855.5 Q354 870 330 870 Q306 870 292.5 855.5 Q279 841 279 819 Q279 797 292.5 782.5 Q306 768 330 768 Q354 768 367.5 782.5 Q381 797 381 819 Z " />
<glyph glyph-name="V" unicode="V" horiz-adv-x="622" d="M601 680 Q551 499 493 315 Q435 131 387 21 Q381 9 374 4.5 Q367 0 350 0 L273 0 Q256 0 248.5 4.5 Q241 9 236 21 Q188 135 127 324.5 Q66 514 21 680 L144 680 Q178 550 224.5 395.5 Q271 241 313 125 Q355 242 401.5 397 Q448 552 481 680 L601 680 Z " />
<glyph glyph-name="W" unicode="W" horiz-adv-x="948" d="M919 680 Q880 501 834 318 Q788 135 748 21 Q744 9 736.5 4.5 Q729 0 712 0 L639 0 Q622 0 614.5 4.5 Q607 9 604 21 L474 496 L346 21 Q342 9 334.5 4.5 Q327 0 310 0 L237 0 Q220 0 213 4.5 Q206 9 202 21 Q162 142 112.5 332.5 Q63 523 30 680 L152 680 Q174 566 209 421.5 Q244 277 279 154 L419 680 L533 680 L676 155 Q710 276 744 421 Q778 566 800 680 L919 680 Z " />
<glyph glyph-name="Wacute" unicode="&#x1e82;" horiz-adv-x="948" d="M919 680 Q880 501 834 318 Q788 135 748 21 Q744 9 736.5 4.5 Q729 0 712 0 L639 0 Q622 0 614.5 4.5 Q607 9 604 21 L474 496 L346 21 Q342 9 334.5 4.5 Q327 0 310 0 L237 0 Q220 0 213 4.5 Q206 9 202 21 Q162 142 112.5 332.5 Q63 523 30 680 L152 680 Q174 566 209 421.5 Q244 277 279 154 L419 680 L533 680 L676 155 Q710 276 744 421 Q778 566 800 680 L919 680 Z M518 740 L423 740 Q451 809 490 862 L609 862 Q573 818 518 740 Z " />
<glyph glyph-name="Wcircumflex" unicode="&#x174;" horiz-adv-x="948" d="M919 680 Q880 501 834 318 Q788 135 748 21 Q744 9 736.5 4.5 Q729 0 712 0 L639 0 Q622 0 614.5 4.5 Q607 9 604 21 L474 496 L346 21 Q342 9 334.5 4.5 Q327 0 310 0 L237 0 Q220 0 213 4.5 Q206 9 202 21 Q162 142 112.5 332.5 Q63 523 30 680 L152 680 Q174 566 209 421.5 Q244 277 279 154 L419 680 L533 680 L676 155 Q710 276 744 421 Q778 566 800 680 L919 680 Z M533 740 Q507 783 475 817 Q440 777 417 740 L331 740 Q344 770 363 802 Q382 834 403 860 L548 860 Q590 808 620 740 L533 740 Z " />
<glyph glyph-name="Wdieresis" unicode="&#x1e84;" horiz-adv-x="948" d="M919 680 Q880 501 834 318 Q788 135 748 21 Q744 9 736.5 4.5 Q729 0 712 0 L639 0 Q622 0 614.5 4.5 Q607 9 604 21 L474 496 L346 21 Q342 9 334.5 4.5 Q327 0 310 0 L237 0 Q220 0 213 4.5 Q206 9 202 21 Q162 142 112.5 332.5 Q63 523 30 680 L152 680 Q174 566 209 421.5 Q244 277 279 154 L419 680 L533 680 L676 155 Q710 276 744 421 Q778 566 800 680 L919 680 Z M319 807 Q319 834 337.5 851.5 Q356 869 383 869 Q410 869 428.5 851.5 Q447 834 447 807 Q447 780 428.5 762 Q410 744 383 744 Q356 744 337.5 762 Q319 780 319 807 Z M504 807 Q504 834 522.5 851.5 Q541 869 568 869 Q596 869 614.5 851.5 Q633 834 633 807 Q633 780 614.5 762 Q596 744 568 744 Q541 744 522.5 762 Q504 780 504 807 Z " />
<glyph glyph-name="Wgrave" unicode="&#x1e80;" horiz-adv-x="948" d="M919 680 Q880 501 834 318 Q788 135 748 21 Q744 9 736.5 4.5 Q729 0 712 0 L639 0 Q622 0 614.5 4.5 Q607 9 604 21 L474 496 L346 21 Q342 9 334.5 4.5 Q327 0 310 0 L237 0 Q220 0 213 4.5 Q206 9 202 21 Q162 142 112.5 332.5 Q63 523 30 680 L152 680 Q174 566 209 421.5 Q244 277 279 154 L419 680 L533 680 L676 155 Q710 276 744 421 Q778 566 800 680 L919 680 Z M457 862 Q496 809 524 740 L432 740 Q380 815 338 862 L457 862 Z " />
<glyph glyph-name="X" unicode="X" horiz-adv-x="602" d="M451 0 Q369 164 299 274 Q234 168 148 0 L25 0 Q110 172 226 357 Q124 509 35 680 L160 680 Q227 550 301 440 Q375 550 442 680 L564 680 Q481 518 374 358 Q482 191 576 0 L451 0 Z " />
<glyph glyph-name="Y" unicode="Y" horiz-adv-x="588" d="M353 256 L353 0 L236 0 L236 256 Q96 490 18 680 L139 680 Q204 525 296 366 Q385 522 451 680 L570 680 Q491 487 353 256 Z " />
<glyph glyph-name="Yacute" unicode="&#xdd;" horiz-adv-x="588" d="M353 256 L353 0 L236 0 L236 256 Q96 490 18 680 L139 680 Q204 525 296 366 Q385 522 451 680 L570 680 Q491 487 353 256 Z M335 740 L240 740 Q268 809 307 862 L426 862 Q390 818 335 740 Z " />
<glyph glyph-name="Ycircumflex" unicode="&#x176;" horiz-adv-x="588" d="M353 256 L353 0 L236 0 L236 256 Q96 490 18 680 L139 680 Q204 525 296 366 Q385 522 451 680 L570 680 Q491 487 353 256 Z M350 740 Q324 783 292 817 Q257 777 234 740 L148 740 Q161 770 180 802 Q199 834 220 860 L365 860 Q407 808 437 740 L350 740 Z " />
<glyph glyph-name="Ydieresis" unicode="&#x178;" horiz-adv-x="588" d="M353 256 L353 0 L236 0 L236 256 Q96 490 18 680 L139 680 Q204 525 296 366 Q385 522 451 680 L570 680 Q491 487 353 256 Z M136 807 Q136 834 154.5 851.5 Q173 869 200 869 Q227 869 245.5 851.5 Q264 834 264 807 Q264 780 245.5 762 Q227 744 200 744 Q173 744 154.5 762 Q136 780 136 807 Z M321 807 Q321 834 339.5 851.5 Q358 869 385 869 Q413 869 431.5 851.5 Q450 834 450 807 Q450 780 431.5 762 Q413 744 385 744 Q358 744 339.5 762 Q321 780 321 807 Z " />
<glyph glyph-name="Ygrave" unicode="&#x1ef2;" horiz-adv-x="588" d="M353 256 L353 0 L236 0 L236 256 Q96 490 18 680 L139 680 Q204 525 296 366 Q385 522 451 680 L570 680 Q491 487 353 256 Z M274 862 Q313 809 341 740 L249 740 Q197 815 155 862 L274 862 Z " />
<glyph glyph-name="Z" unicode="Z" horiz-adv-x="576" d="M539 103 L539 0 L41 0 L41 90 L392 577 L55 577 L55 680 L536 680 L536 591 L183 103 L539 103 Z " />
<glyph glyph-name="Zacute" unicode="&#x179;" horiz-adv-x="576" d="M539 103 L539 0 L41 0 L41 90 L392 577 L55 577 L55 680 L536 680 L536 591 L183 103 L539 103 Z M338 740 L243 740 Q271 809 310 862 L429 862 Q393 818 338 740 Z " />
<glyph glyph-name="Zcaron" unicode="&#x17d;" horiz-adv-x="576" d="M539 103 L539 0 L41 0 L41 90 L392 577 L55 577 L55 680 L536 680 L536 591 L183 103 L539 103 Z M440 860 Q410 792 368 740 L223 740 Q202 766 183 798 Q164 830 151 860 L237 860 Q260 823 295 783 Q327 817 353 860 L440 860 Z " />
<glyph glyph-name="Zdotaccent" unicode="&#x17b;" horiz-adv-x="576" d="M539 103 L539 0 L41 0 L41 90 L392 577 L55 577 L55 680 L536 680 L536 591 L183 103 L539 103 Z M230 807 Q230 835 249 853 Q268 871 296 871 Q324 871 343 853 Q362 835 362 807 Q362 780 342.5 762 Q323 744 296 744 Q268 744 249 762 Q230 780 230 807 Z " />
<glyph glyph-name="a" unicode="a" horiz-adv-x="511" d="M480 84 L480 1 Q464 -5 440 -5 Q364 -5 346 58 Q327 26 291 8.5 Q255 -9 205 -9 Q128 -9 84.5 28.5 Q41 66 41 131 Q41 211 110 256 Q179 301 330 317 L330 327 Q330 409 248 409 Q210 409 188.5 390.5 Q167 372 161 344 L56 344 Q60 413 111.5 456.5 Q163 500 248 500 Q337 500 388 457 Q439 414 439 329 L439 138 Q439 106 448 95 Q457 84 480 84 Z M330 165 L330 241 Q240 228 194.5 204 Q149 180 149 138 Q149 109 170 93 Q191 77 229 77 Q274 77 302 100.5 Q330 124 330 165 Z " />
<glyph glyph-name="aacute" unicode="&#xe1;" horiz-adv-x="511" d="M480 84 L480 1 Q464 -5 440 -5 Q364 -5 346 58 Q327 26 291 8.5 Q255 -9 205 -9 Q128 -9 84.5 28.5 Q41 66 41 131 Q41 211 110 256 Q179 301 330 317 L330 327 Q330 409 248 409 Q210 409 188.5 390.5 Q167 372 161 344 L56 344 Q60 413 111.5 456.5 Q163 500 248 500 Q337 500 388 457 Q439 414 439 329 L439 138 Q439 106 448 95 Q457 84 480 84 Z M330 165 L330 241 Q240 228 194.5 204 Q149 180 149 138 Q149 109 170 93 Q191 77 229 77 Q274 77 302 100.5 Q330 124 330 165 Z M295 560 L200 560 Q228 629 267 682 L386 682 Q350 638 295 560 Z " />
<glyph glyph-name="abreve" unicode="&#x103;" horiz-adv-x="511" d="M480 84 L480 1 Q464 -5 440 -5 Q364 -5 346 58 Q327 26 291 8.5 Q255 -9 205 -9 Q128 -9 84.5 28.5 Q41 66 41 131 Q41 211 110 256 Q179 301 330 317 L330 327 Q330 409 248 409 Q210 409 188.5 390.5 Q167 372 161 344 L56 344 Q60 413 111.5 456.5 Q163 500 248 500 Q337 500 388 457 Q439 414 439 329 L439 138 Q439 106 448 95 Q457 84 480 84 Z M330 165 L330 241 Q240 228 194.5 204 Q149 180 149 138 Q149 109 170 93 Q191 77 229 77 Q274 77 302 100.5 Q330 124 330 165 Z M389 680 Q389 623 351.5 590 Q314 557 253 557 Q191 557 154 589.5 Q117 622 117 680 L195 680 Q195 656 208.5 637.5 Q222 619 253 619 Q284 619 297.5 637.5 Q311 656 311 680 L389 680 L389 680 Z " />
<glyph glyph-name="acircumflex" unicode="&#xe2;" horiz-adv-x="511" d="M480 84 L480 1 Q464 -5 440 -5 Q364 -5 346 58 Q327 26 291 8.5 Q255 -9 205 -9 Q128 -9 84.5 28.5 Q41 66 41 131 Q41 211 110 256 Q179 301 330 317 L330 327 Q330 409 248 409 Q210 409 188.5 390.5 Q167 372 161 344 L56 344 Q60 413 111.5 456.5 Q163 500 248 500 Q337 500 388 457 Q439 414 439 329 L439 138 Q439 106 448 95 Q457 84 480 84 Z M330 165 L330 241 Q240 228 194.5 204 Q149 180 149 138 Q149 109 170 93 Q191 77 229 77 Q274 77 302 100.5 Q330 124 330 165 Z M310 560 Q284 603 252 637 Q217 597 194 560 L108 560 Q121 590 140 622 Q159 654 180 680 L325 680 Q367 628 397 560 L310 560 Z " />
<glyph glyph-name="adieresis" unicode="&#xe4;" horiz-adv-x="511" d="M480 84 L480 1 Q464 -5 440 -5 Q364 -5 346 58 Q327 26 291 8.5 Q255 -9 205 -9 Q128 -9 84.5 28.5 Q41 66 41 131 Q41 211 110 256 Q179 301 330 317 L330 327 Q330 409 248 409 Q210 409 188.5 390.5 Q167 372 161 344 L56 344 Q60 413 111.5 456.5 Q163 500 248 500 Q337 500 388 457 Q439 414 439 329 L439 138 Q439 106 448 95 Q457 84 480 84 Z M330 165 L330 241 Q240 228 194.5 204 Q149 180 149 138 Q149 109 170 93 Q191 77 229 77 Q274 77 302 100.5 Q330 124 330 165 Z M96 627 Q96 654 114.5 671.5 Q133 689 160 689 Q187 689 205.5 671.5 Q224 654 224 627 Q224 600 205.5 582 Q187 564 160 564 Q133 564 114.5 582 Q96 600 96 627 Z M281 627 Q281 654 299.5 671.5 Q318 689 345 689 Q373 689 391.5 671.5 Q410 654 410 627 Q410 600 391.5 582 Q373 564 345 564 Q318 564 299.5 582 Q281 600 281 627 Z " />
<glyph glyph-name="agrave" unicode="&#xe0;" horiz-adv-x="511" d="M480 84 L480 1 Q464 -5 440 -5 Q364 -5 346 58 Q327 26 291 8.5 Q255 -9 205 -9 Q128 -9 84.5 28.5 Q41 66 41 131 Q41 211 110 256 Q179 301 330 317 L330 327 Q330 409 248 409 Q210 409 188.5 390.5 Q167 372 161 344 L56 344 Q60 413 111.5 456.5 Q163 500 248 500 Q337 500 388 457 Q439 414 439 329 L439 138 Q439 106 448 95 Q457 84 480 84 Z M330 165 L330 241 Q240 228 194.5 204 Q149 180 149 138 Q149 109 170 93 Q191 77 229 77 Q274 77 302 100.5 Q330 124 330 165 Z M234 682 Q273 629 301 560 L209 560 Q157 635 115 682 L234 682 Z " />
<glyph glyph-name="amacron" unicode="&#x101;" horiz-adv-x="511" d="M480 84 L480 1 Q464 -5 440 -5 Q364 -5 346 58 Q327 26 291 8.5 Q255 -9 205 -9 Q128 -9 84.5 28.5 Q41 66 41 131 Q41 211 110 256 Q179 301 330 317 L330 327 Q330 409 248 409 Q210 409 188.5 390.5 Q167 372 161 344 L56 344 Q60 413 111.5 456.5 Q163 500 248 500 Q337 500 388 457 Q439 414 439 329 L439 138 Q439 106 448 95 Q457 84 480 84 Z M330 165 L330 241 Q240 228 194.5 204 Q149 180 149 138 Q149 109 170 93 Q191 77 229 77 Q274 77 302 100.5 Q330 124 330 165 Z M379 656 L379 575 L127 575 L127 656 L379 656 Z " />
<glyph glyph-name="aogonek" unicode="&#x105;" horiz-adv-x="510" d="M335 -95 Q335 -37 397 2 Q357 15 346 59 Q327 27 291 9 Q255 -9 204 -9 Q127 -9 84 28.5 Q41 66 41 131 Q41 210 109.5 255 Q178 300 330 318 L330 327 Q330 368 310.5 388.5 Q291 409 249 409 Q175 409 164 344 L58 344 Q63 415 113 457.5 Q163 500 249 500 Q338 500 388.5 457 Q439 414 439 329 L439 142 Q439 108 447.5 96 Q456 84 478 84 L478 1 Q454 -10 435.5 -29 Q417 -48 417 -72 Q417 -105 463 -105 L471 -105 L471 -174 Q457 -177 438 -177 Q389 -177 362 -155.5 Q335 -134 335 -95 Z M330 165 L330 242 Q238 227 193.5 203.5 Q149 180 149 138 Q149 109 170 93 Q191 77 229 77 Q274 77 302 100.5 Q330 124 330 165 Z " />
<glyph glyph-name="aring" unicode="&#xe5;" horiz-adv-x="511" d="M480 84 L480 1 Q464 -5 440 -5 Q364 -5 346 58 Q327 26 291 8.5 Q255 -9 205 -9 Q128 -9 84.5 28.5 Q41 66 41 131 Q41 211 110 256 Q179 301 330 317 L330 327 Q330 409 248 409 Q210 409 188.5 390.5 Q167 372 161 344 L56 344 Q60 413 111.5 456.5 Q163 500 248 500 Q337 500 388 457 Q439 414 439 329 L439 138 Q439 106 448 95 Q457 84 480 84 Z M330 165 L330 241 Q240 228 194.5 204 Q149 180 149 138 Q149 109 170 93 Q191 77 229 77 Q274 77 302 100.5 Q330 124 330 165 Z M146 639 Q146 683 175.5 710.5 Q205 738 253 738 Q301 738 330.5 710.5 Q360 683 360 639 Q360 596 330 568 Q300 540 253 540 Q205 540 175.5 568 Q146 596 146 639 Z M304 639 Q304 661 290.5 675.5 Q277 690 253 690 Q229 690 215.5 675.5 Q202 661 202 639 Q202 617 215.5 602.5 Q229 588 253 588 Q277 588 290.5 602.5 Q304 617 304 639 Z " />
<glyph glyph-name="atilde" unicode="&#xe3;" horiz-adv-x="511" d="M480 84 L480 1 Q464 -5 440 -5 Q364 -5 346 58 Q327 26 291 8.5 Q255 -9 205 -9 Q128 -9 84.5 28.5 Q41 66 41 131 Q41 211 110 256 Q179 301 330 317 L330 327 Q330 409 248 409 Q210 409 188.5 390.5 Q167 372 161 344 L56 344 Q60 413 111.5 456.5 Q163 500 248 500 Q337 500 388 457 Q439 414 439 329 L439 138 Q439 106 448 95 Q457 84 480 84 Z M330 165 L330 241 Q240 228 194.5 204 Q149 180 149 138 Q149 109 170 93 Q191 77 229 77 Q274 77 302 100.5 Q330 124 330 165 Z M319 560 Q297 560 279.5 567 Q262 574 240 586 Q225 595 214 599.5 Q203 604 192 604 Q174 604 166 593 Q158 582 156 560 L99 560 Q100 616 124 646 Q148 676 190 676 Q209 676 226 669 Q243 662 263 650 Q279 641 290.5 636 Q302 631 313 631 Q330 631 338.5 644 Q347 657 348 676 L406 676 Q404 619 382 589.5 Q360 560 319 560 Z " />
<glyph glyph-name="ae" unicode="&#xe6;" horiz-adv-x="805" d="M437 221 Q439 162 465.5 123.5 Q492 85 549 85 Q627 85 650 150 L761 150 Q726 -9 549 -9 Q494 -9 449.5 12 Q405 33 376 75 Q356 36 314.5 13.5 Q273 -9 214 -9 Q132 -9 86.5 28 Q41 65 41 130 Q41 209 106.5 250.5 Q172 292 328 301 L328 328 Q328 409 245 409 Q206 409 185 391 Q164 373 160 344 L56 344 Q59 415 108.5 457.5 Q158 500 244 500 Q351 500 397 440 Q454 499 550 499 Q649 499 707.5 438.5 Q766 378 766 274 L766 221 L437 221 Z M439 298 L660 298 Q655 347 628.5 376.5 Q602 406 549 406 Q499 406 472.5 376.5 Q446 347 439 298 Z M328 165 L328 228 Q237 221 193 199.5 Q149 178 149 138 Q149 109 169.5 93 Q190 77 228 77 Q272 77 300 100 Q328 123 328 165 Z " />
<glyph glyph-name="b" unicode="b" horiz-adv-x="551" d="M511 256 L511 234 Q511 117 458.5 54 Q406 -9 319 -9 Q221 -9 175 66 L175 0 L71 0 L71 700 L181 700 L181 432 Q227 499 319 499 Q406 499 458.5 436 Q511 373 511 256 Z M401 256 Q401 320 375.5 361.5 Q350 403 291 403 Q234 403 207.5 362.5 Q181 322 181 262 L181 228 Q181 169 207.5 128 Q234 87 291 87 Q350 87 375.5 129 Q401 171 401 234 L401 256 Z " />
<glyph glyph-name="c" unicode="c" horiz-adv-x="496" d="M462 163 Q455 84 398.5 37.5 Q342 -9 259 -9 Q158 -9 99 53.5 Q40 116 40 233 L40 257 Q40 374 99 436.5 Q158 499 259 499 Q344 499 399 454.5 Q454 410 460 339 L461 327 L351 327 Q333 403 257 403 Q200 403 175 361.5 Q150 320 150 257 L150 233 Q150 170 174.5 128.5 Q199 87 256 87 Q299 87 323.5 110.5 Q348 134 355 176 L463 176 L462 163 Z " />
<glyph glyph-name="cacute" unicode="&#x107;" horiz-adv-x="496" d="M462 163 Q455 84 398.5 37.5 Q342 -9 259 -9 Q158 -9 99 53.5 Q40 116 40 233 L40 257 Q40 374 99 436.5 Q158 499 259 499 Q344 499 399 454.5 Q454 410 460 339 L461 327 L351 327 Q333 403 257 403 Q200 403 175 361.5 Q150 320 150 257 L150 233 Q150 170 174.5 128.5 Q199 87 256 87 Q299 87 323.5 110.5 Q348 134 355 176 L463 176 L462 163 Z M306 560 L211 560 Q239 629 278 682 L397 682 Q361 638 306 560 Z " />
<glyph glyph-name="ccaron" unicode="&#x10d;" horiz-adv-x="496" d="M462 163 Q455 84 398.5 37.5 Q342 -9 259 -9 Q158 -9 99 53.5 Q40 116 40 233 L40 257 Q40 374 99 436.5 Q158 499 259 499 Q344 499 399 454.5 Q454 410 460 339 L461 327 L351 327 Q333 403 257 403 Q200 403 175 361.5 Q150 320 150 257 L150 233 Q150 170 174.5 128.5 Q199 87 256 87 Q299 87 323.5 110.5 Q348 134 355 176 L463 176 L462 163 Z M408 680 Q378 612 336 560 L191 560 Q170 586 151 618 Q132 650 119 680 L205 680 Q228 643 263 603 Q295 637 321 680 L408 680 Z " />
<glyph glyph-name="ccedilla" unicode="&#xe7;" horiz-adv-x="496" d="M463 176 L462 163 Q456 89 406.5 43.5 Q357 -2 281 -8 L266 -38 Q306 -40 329.5 -60 Q353 -80 353 -116 Q353 -156 325 -178 Q297 -200 251 -200 Q222 -200 196 -191.5 Q170 -183 153 -168 L182 -121 Q212 -143 248 -143 Q288 -143 288 -114 Q288 -101 275.5 -94 Q263 -87 243 -87 Q225 -87 210 -92 L191 -69 L221 -7 Q136 5 88 66 Q40 127 40 233 L40 257 Q40 374 99 436.5 Q158 499 259 499 Q344 499 399 454.5 Q454 410 460 339 L461 327 L351 327 Q333 403 257 403 Q200 403 175 361.5 Q150 320 150 257 L150 233 Q150 170 174.5 128.5 Q199 87 256 87 Q299 87 323.5 110.5 Q348 134 355 176 L463 176 Z " />
<glyph glyph-name="cdotaccent" unicode="&#x10b;" horiz-adv-x="496" d="M462 163 Q455 84 398.5 37.5 Q342 -9 259 -9 Q158 -9 99 53.5 Q40 116 40 233 L40 257 Q40 374 99 436.5 Q158 499 259 499 Q344 499 399 454.5 Q454 410 460 339 L461 327 L351 327 Q333 403 257 403 Q200 403 175 361.5 Q150 320 150 257 L150 233 Q150 170 174.5 128.5 Q199 87 256 87 Q299 87 323.5 110.5 Q348 134 355 176 L463 176 L462 163 Z M198 627 Q198 655 217 673 Q236 691 264 691 Q292 691 311 673 Q330 655 330 627 Q330 600 310.5 582 Q291 564 264 564 Q236 564 217 582 Q198 600 198 627 Z " />
<glyph glyph-name="d" unicode="d" horiz-adv-x="551" d="M481 700 L481 0 L376 0 L376 66 Q330 -9 232 -9 Q145 -9 92.5 54 Q40 117 40 234 L40 256 Q40 373 92.5 436 Q145 499 232 499 Q325 499 371 432 L371 700 L481 700 Z M371 228 L371 262 Q371 322 344 362.5 Q317 403 260 403 Q201 403 175.5 361.5 Q150 320 150 256 L150 234 Q150 171 175.5 129 Q201 87 260 87 Q317 87 344 128 Q371 169 371 228 Z " />
<glyph glyph-name="eth" unicode="&#xf0;" horiz-adv-x="521" d="M481 278 L481 237 Q481 119 420 55 Q359 -9 260 -9 Q161 -9 100.5 54 Q40 117 40 234 L40 252 Q40 329 67 384 Q94 439 139.5 467 Q185 495 242 495 Q303 495 338 462 Q321 504 285 558 L171 527 L154 589 L240 612 Q193 665 142 700 L276 700 Q310 677 344 640 L436 665 L453 603 L386 585 Q429 522 455 444 Q481 366 481 278 Z M371 252 Q371 315 345 357 Q319 399 260 399 Q202 399 176 357 Q150 315 150 252 L150 234 Q150 171 176 129 Q202 87 260 87 Q319 87 345 129 Q371 171 371 234 L371 252 Z " />
<glyph glyph-name="dcaron" unicode="&#x10f;" horiz-adv-x="613" d="M481 700 L481 0 L376 0 L376 66 Q330 -9 232 -9 Q145 -9 92.5 54 Q40 117 40 234 L40 256 Q40 373 92.5 436 Q145 499 232 499 Q325 499 371 432 L371 700 L481 700 Z M371 228 L371 262 Q371 322 344 362.5 Q317 403 260 403 Q201 403 175.5 361.5 Q150 320 150 256 L150 234 Q150 171 175.5 129 Q201 87 260 87 Q317 87 344 128 Q371 169 371 228 Z M576 522 L526 522 Q533 558 539 608 Q545 658 545 700 L631 700 Q628 598 576 522 Z " />
<glyph glyph-name="dslash" unicode="&#x111;" horiz-adv-x="551" d="M542 546 L481 546 L481 0 L376 0 L376 66 Q330 -9 232 -9 Q145 -9 92.5 54 Q40 117 40 234 L40 256 Q40 373 92.5 436 Q145 499 232 499 Q325 499 371 432 L371 546 L242 546 L242 623 L371 623 L371 700 L481 700 L481 623 L542 623 L542 546 Z M371 228 L371 262 Q371 322 344 362.5 Q317 403 260 403 Q201 403 175.5 361.5 Q150 320 150 256 L150 234 Q150 171 175.5 129 Q201 87 260 87 Q317 87 344 128 Q371 169 371 228 Z " />
<glyph glyph-name="e" unicode="e" horiz-adv-x="514" d="M148 221 Q151 161 177.5 123 Q204 85 260 85 Q338 85 359 150 L470 150 Q453 75 401.5 33 Q350 -9 259 -9 Q161 -9 100.5 54 Q40 117 40 234 L40 256 Q40 334 68.5 388.5 Q97 443 147 471 Q197 499 261 499 Q359 499 417 438.5 Q475 378 475 274 L475 221 L148 221 Z M150 298 L369 298 Q364 347 338 376.5 Q312 406 259 406 Q210 406 183.5 376.5 Q157 347 150 298 Z " />
<glyph glyph-name="eacute" unicode="&#xe9;" horiz-adv-x="514" d="M148 221 Q151 161 177.5 123 Q204 85 260 85 Q338 85 359 150 L470 150 Q453 75 401.5 33 Q350 -9 259 -9 Q161 -9 100.5 54 Q40 117 40 234 L40 256 Q40 334 68.5 388.5 Q97 443 147 471 Q197 499 261 499 Q359 499 417 438.5 Q475 378 475 274 L475 221 L148 221 Z M150 298 L369 298 Q364 347 338 376.5 Q312 406 259 406 Q210 406 183.5 376.5 Q157 347 150 298 Z M305 560 L210 560 Q238 629 277 682 L396 682 Q360 638 305 560 Z " />
<glyph glyph-name="ecaron" unicode="&#x11b;" horiz-adv-x="514" d="M148 221 Q151 161 177.5 123 Q204 85 260 85 Q338 85 359 150 L470 150 Q453 75 401.5 33 Q350 -9 259 -9 Q161 -9 100.5 54 Q40 117 40 234 L40 256 Q40 334 68.5 388.5 Q97 443 147 471 Q197 499 261 499 Q359 499 417 438.5 Q475 378 475 274 L475 221 L148 221 Z M150 298 L369 298 Q364 347 338 376.5 Q312 406 259 406 Q210 406 183.5 376.5 Q157 347 150 298 Z M407 680 Q377 612 335 560 L190 560 Q169 586 150 618 Q131 650 118 680 L204 680 Q227 643 262 603 Q294 637 320 680 L407 680 Z " />
<glyph glyph-name="ecircumflex" unicode="&#xea;" horiz-adv-x="514" d="M148 221 Q151 161 177.5 123 Q204 85 260 85 Q338 85 359 150 L470 150 Q453 75 401.5 33 Q350 -9 259 -9 Q161 -9 100.5 54 Q40 117 40 234 L40 256 Q40 334 68.5 388.5 Q97 443 147 471 Q197 499 261 499 Q359 499 417 438.5 Q475 378 475 274 L475 221 L148 221 Z M150 298 L369 298 Q364 347 338 376.5 Q312 406 259 406 Q210 406 183.5 376.5 Q157 347 150 298 Z M320 560 Q294 603 262 637 Q227 597 204 560 L118 560 Q131 590 150 622 Q169 654 190 680 L335 680 Q377 628 407 560 L320 560 Z " />
<glyph glyph-name="edieresis" unicode="&#xeb;" horiz-adv-x="514" d="M148 221 Q151 161 177.5 123 Q204 85 260 85 Q338 85 359 150 L470 150 Q453 75 401.5 33 Q350 -9 259 -9 Q161 -9 100.5 54 Q40 117 40 234 L40 256 Q40 334 68.5 388.5 Q97 443 147 471 Q197 499 261 499 Q359 499 417 438.5 Q475 378 475 274 L475 221 L148 221 Z M150 298 L369 298 Q364 347 338 376.5 Q312 406 259 406 Q210 406 183.5 376.5 Q157 347 150 298 Z M106 627 Q106 654 124.5 671.5 Q143 689 170 689 Q197 689 215.5 671.5 Q234 654 234 627 Q234 600 215.5 582 Q197 564 170 564 Q143 564 124.5 582 Q106 600 106 627 Z M291 627 Q291 654 309.5 671.5 Q328 689 355 689 Q383 689 401.5 671.5 Q420 654 420 627 Q420 600 401.5 582 Q383 564 355 564 Q328 564 309.5 582 Q291 600 291 627 Z " />
<glyph glyph-name="edotaccent" unicode="&#x117;" horiz-adv-x="514" d="M148 221 Q151 161 177.5 123 Q204 85 260 85 Q338 85 359 150 L470 150 Q453 75 401.5 33 Q350 -9 259 -9 Q161 -9 100.5 54 Q40 117 40 234 L40 256 Q40 334 68.5 388.5 Q97 443 147 471 Q197 499 261 499 Q359 499 417 438.5 Q475 378 475 274 L475 221 L148 221 Z M150 298 L369 298 Q364 347 338 376.5 Q312 406 259 406 Q210 406 183.5 376.5 Q157 347 150 298 Z M197 627 Q197 655 216 673 Q235 691 263 691 Q291 691 310 673 Q329 655 329 627 Q329 600 309.5 582 Q290 564 263 564 Q235 564 216 582 Q197 600 197 627 Z " />
<glyph glyph-name="egrave" unicode="&#xe8;" horiz-adv-x="514" d="M148 221 Q151 161 177.5 123 Q204 85 260 85 Q338 85 359 150 L470 150 Q453 75 401.5 33 Q350 -9 259 -9 Q161 -9 100.5 54 Q40 117 40 234 L40 256 Q40 334 68.5 388.5 Q97 443 147 471 Q197 499 261 499 Q359 499 417 438.5 Q475 378 475 274 L475 221 L148 221 Z M150 298 L369 298 Q364 347 338 376.5 Q312 406 259 406 Q210 406 183.5 376.5 Q157 347 150 298 Z M244 682 Q283 629 311 560 L219 560 Q167 635 125 682 L244 682 Z " />
<glyph glyph-name="emacron" unicode="&#x113;" horiz-adv-x="514" d="M148 221 Q151 161 177.5 123 Q204 85 260 85 Q338 85 359 150 L470 150 Q453 75 401.5 33 Q350 -9 259 -9 Q161 -9 100.5 54 Q40 117 40 234 L40 256 Q40 334 68.5 388.5 Q97 443 147 471 Q197 499 261 499 Q359 499 417 438.5 Q475 378 475 274 L475 221 L148 221 Z M150 298 L369 298 Q364 347 338 376.5 Q312 406 259 406 Q210 406 183.5 376.5 Q157 347 150 298 Z M389 656 L389 575 L137 575 L137 656 L389 656 Z " />
<glyph glyph-name="eogonek" unicode="&#x119;" horiz-adv-x="514" d="M254 -93 Q254 -44 294 -7 Q272 -9 259 -9 Q161 -9 100.5 54 Q40 117 40 234 L40 256 Q40 334 68.5 388.5 Q97 443 147 471 Q197 499 261 499 Q359 499 417 438.5 Q475 378 475 274 L475 221 L149 221 Q151 162 178 123.5 Q205 85 260 85 Q338 85 359 150 L470 150 Q455 73 396 27 Q363 2 349.5 -19.5 Q336 -41 336 -66 Q336 -105 381 -105 L390 -105 L390 -174 Q376 -177 358 -177 Q309 -177 281.5 -155.5 Q254 -134 254 -93 Z M369 298 Q364 346 338 376 Q312 406 259 406 Q210 406 183.5 376.5 Q157 347 150 298 L369 298 Z " />
<glyph glyph-name="f" unicode="f" horiz-adv-x="335" d="M279 607 Q239 607 223.5 589 Q208 571 208 528 L208 490 L304 490 L304 401 L208 401 L208 0 L98 0 L98 401 L25 401 L25 490 L98 490 L98 553 Q98 627 138.5 666 Q179 705 260 705 Q289 705 309 700 L309 605 Q287 607 279 607 Z " />
<glyph glyph-name="g" unicode="g" horiz-adv-x="539" d="M471 490 L471 12 Q471 -82 413.5 -125.5 Q356 -169 263 -169 Q168 -169 116 -133 Q64 -97 57 -34 L56 -25 L171 -25 Q177 -51 199.5 -68 Q222 -85 264 -85 Q312 -85 336.5 -62 Q361 -39 361 13 L361 78 Q319 21 234 21 Q148 21 95 80.5 Q42 140 42 251 L42 269 Q42 380 95 439.5 Q148 499 234 499 Q323 499 366 435 L366 490 L471 490 Z M361 250 L361 270 Q361 328 337 365.5 Q313 403 258 403 Q201 403 176.5 364.5 Q152 326 152 268 L152 252 Q152 194 176.5 155.5 Q201 117 258 117 Q313 117 337 155 Q361 193 361 250 Z " />
<glyph glyph-name="gbreve" unicode="&#x11f;" horiz-adv-x="539" d="M471 490 L471 12 Q471 -82 413.5 -125.5 Q356 -169 263 -169 Q168 -169 116 -133 Q64 -97 57 -34 L56 -25 L171 -25 Q177 -51 199.5 -68 Q222 -85 264 -85 Q312 -85 336.5 -62 Q361 -39 361 13 L361 78 Q319 21 234 21 Q148 21 95 80.5 Q42 140 42 251 L42 269 Q42 380 95 439.5 Q148 499 234 499 Q323 499 366 435 L366 490 L471 490 Z M361 250 L361 270 Q361 328 337 365.5 Q313 403 258 403 Q201 403 176.5 364.5 Q152 326 152 268 L152 252 Q152 194 176.5 155.5 Q201 117 258 117 Q313 117 337 155 Q361 193 361 250 Z M407 680 Q407 623 369.5 590 Q332 557 271 557 Q209 557 172 589.5 Q135 622 135 680 L213 680 Q213 656 226.5 637.5 Q240 619 271 619 Q302 619 315.5 637.5 Q329 656 329 680 L407 680 L407 680 Z " />
<glyph glyph-name="gcommaaccent" unicode="&#x123;" horiz-adv-x="539" d="M471 490 L471 12 Q471 -82 413.5 -125.5 Q356 -169 263 -169 Q168 -169 116 -133 Q64 -97 57 -34 L56 -25 L171 -25 Q177 -51 199.5 -68 Q222 -85 264 -85 Q312 -85 336.5 -62 Q361 -39 361 13 L361 78 Q319 21 234 21 Q148 21 95 80.5 Q42 140 42 251 L42 269 Q42 380 95 439.5 Q148 499 234 499 Q323 499 366 435 L366 490 L471 490 Z M361 250 L361 270 Q361 328 337 365.5 Q313 403 258 403 Q201 403 176.5 364.5 Q152 326 152 268 L152 252 Q152 194 176.5 155.5 Q201 117 258 117 Q313 117 337 155 Q361 193 361 250 Z M310 567 L212 567 Q213 614 226 648.5 Q239 683 260 715 L325 715 Q310 634 310 567 Z " />
<glyph glyph-name="gdotaccent" unicode="&#x121;" horiz-adv-x="539" d="M471 490 L471 12 Q471 -82 413.5 -125.5 Q356 -169 263 -169 Q168 -169 116 -133 Q64 -97 57 -34 L56 -25 L171 -25 Q177 -51 199.5 -68 Q222 -85 264 -85 Q312 -85 336.5 -62 Q361 -39 361 13 L361 78 Q319 21 234 21 Q148 21 95 80.5 Q42 140 42 251 L42 269 Q42 380 95 439.5 Q148 499 234 499 Q323 499 366 435 L366 490 L471 490 Z M361 250 L361 270 Q361 328 337 365.5 Q313 403 258 403 Q201 403 176.5 364.5 Q152 326 152 268 L152 252 Q152 194 176.5 155.5 Q201 117 258 117 Q313 117 337 155 Q361 193 361 250 Z M204 627 Q204 655 223 673 Q242 691 270 691 Q298 691 317 673 Q336 655 336 627 Q336 600 316.5 582 Q297 564 270 564 Q242 564 223 582 Q204 600 204 627 Z " />
<glyph glyph-name="h" unicode="h" horiz-adv-x="552" d="M485 326 L485 0 L375 0 L375 301 Q375 348 352 375.5 Q329 403 282 403 Q236 403 208.5 374.5 Q181 346 181 300 L181 0 L71 0 L71 700 L181 700 L181 430 Q199 460 233 479.5 Q267 499 317 499 Q393 499 439 452.5 Q485 406 485 326 Z " />
<glyph glyph-name="hbar" unicode="&#x127;" horiz-adv-x="551" d="M484 326 L484 0 L374 0 L374 301 Q374 348 351 375.5 Q328 403 282 403 Q236 403 208 374 Q180 345 180 300 L180 0 L70 0 L70 546 L4 546 L4 623 L70 623 L70 700 L180 700 L180 623 L304 623 L304 546 L180 546 L180 430 Q198 459 232.5 479 Q267 499 317 499 Q392 499 438 452 Q484 405 484 326 Z " />
<glyph glyph-name="i" unicode="i" horiz-adv-x="251" d="M181 0 L71 0 L71 490 L181 490 L181 0 Z M60 627 Q60 655 79 673 Q98 691 126 691 Q154 691 173 673 Q192 655 192 627 Q192 600 172.5 582 Q153 564 126 564 Q98 564 79 582 Q60 600 60 627 Z " />
<glyph glyph-name="dotlessi" unicode="&#x131;" horiz-adv-x="251" d="M181 0 L71 0 L71 490 L181 490 L181 0 Z " />
<glyph glyph-name="iacute" unicode="&#xed;" horiz-adv-x="251" d="M181 0 L71 0 L71 490 L181 490 L181 0 Z M168 560 L73 560 Q101 629 140 682 L259 682 Q223 638 168 560 Z " />
<glyph glyph-name="icircumflex" unicode="&#xee;" horiz-adv-x="251" d="M181 0 L71 0 L71 490 L181 490 L181 0 Z M183 560 Q157 603 125 637 Q90 597 67 560 L-19 560 Q-6 590 13 622 Q32 654 53 680 L198 680 Q240 628 270 560 L183 560 Z " />
<glyph glyph-name="idieresis" unicode="&#xef;" horiz-adv-x="251" d="M181 0 L71 0 L71 490 L181 490 L181 0 Z M-31 627 Q-31 654 -12.5 671.5 Q6 689 33 689 Q60 689 78.5 671.5 Q97 654 97 627 Q97 600 78.5 582 Q60 564 33 564 Q6 564 -12.5 582 Q-31 600 -31 627 Z M154 627 Q154 654 172.5 671.5 Q191 689 218 689 Q246 689 264.5 671.5 Q283 654 283 627 Q283 600 264.5 582 Q246 564 218 564 Q191 564 172.5 582 Q154 600 154 627 Z " />
<glyph glyph-name="igrave" unicode="&#xec;" horiz-adv-x="251" d="M181 0 L71 0 L71 490 L181 490 L181 0 Z M107 682 Q146 629 174 560 L82 560 Q30 635 -12 682 L107 682 Z " />
<glyph glyph-name="imacron" unicode="&#x12b;" horiz-adv-x="251" d="M181 0 L71 0 L71 490 L181 490 L181 0 Z M252 656 L252 575 L0 575 L0 656 L252 656 Z " />
<glyph glyph-name="iogonek" unicode="&#x12f;" horiz-adv-x="250" d="M59 627 Q59 655 78 673 Q97 691 125 691 Q153 691 172 673 Q191 655 191 627 Q191 600 171.5 582 Q152 564 125 564 Q98 564 78.5 582 Q59 600 59 627 Z M70 490 L180 490 L180 0 Q123 -32 123 -72 Q123 -105 169 -105 L177 -105 L177 -174 Q163 -177 143 -177 Q95 -177 68 -155.5 Q41 -134 41 -95 Q41 -65 57 -41 Q73 -17 100 0 L70 0 L70 490 Z " />
<glyph glyph-name="j" unicode="j" horiz-adv-x="251" d="M60 627 Q60 655 79 673 Q98 691 126 691 Q154 691 173 673 Q192 655 192 627 Q192 600 172.5 582 Q153 564 126 564 Q98 564 79 582 Q60 600 60 627 Z M5 -68 Q36 -65 53.5 -44.5 Q71 -24 71 24 L71 490 L181 490 L181 20 Q181 -80 136.5 -121.5 Q92 -163 5 -163 L5 -68 Z " />
<glyph glyph-name="k" unicode="k" horiz-adv-x="505" d="M257 214 Q229 186 177 140 L177 0 L71 0 L71 700 L177 700 L177 258 Q290 375 358 490 L473 490 Q418 390 330 290 Q378 219 423 139 Q468 59 493 0 L377 0 Q355 47 322 106.5 Q289 166 257 214 Z " />
<glyph glyph-name="kcommaaccent" unicode="&#x137;" horiz-adv-x="505" d="M257 214 Q229 186 177 140 L177 0 L71 0 L71 700 L177 700 L177 258 Q290 375 358 490 L473 490 Q418 390 330 290 Q378 219 423 139 Q468 59 493 0 L377 0 Q355 47 322 106.5 Q289 166 257 214 Z M222 -52 L320 -52 Q319 -99 306 -133.5 Q293 -168 272 -200 L207 -200 Q222 -119 222 -52 Z " />
<glyph glyph-name="l" unicode="l" horiz-adv-x="266" d="M176 153 Q176 112 189.5 98 Q203 84 238 86 L238 1 Q220 -7 189 -7 Q124 -7 95 24.5 Q66 56 66 122 L66 700 L176 700 L176 153 Z " />
<glyph glyph-name="lacute" unicode="&#x13a;" horiz-adv-x="266" d="M176 153 Q176 112 189.5 98 Q203 84 238 86 L238 1 Q220 -7 189 -7 Q124 -7 95 24.5 Q66 56 66 122 L66 700 L176 700 L176 153 Z M171 761 L76 761 Q104 830 143 883 L262 883 Q226 839 171 761 Z " />
<glyph glyph-name="lcaron" unicode="&#x13e;" horiz-adv-x="315" d="M176 153 Q176 112 189.5 98 Q203 84 238 86 L238 1 Q220 -7 189 -7 Q124 -7 95 24.5 Q66 56 66 122 L66 700 L176 700 L176 153 Z M278 522 L228 522 Q235 558 241 608 Q247 658 247 700 L333 700 Q330 598 278 522 Z " />
<glyph glyph-name="lcommaaccent" unicode="&#x13c;" horiz-adv-x="266" d="M176 153 Q176 112 189.5 98 Q203 84 238 86 L238 1 Q220 -7 189 -7 Q124 -7 95 24.5 Q66 56 66 122 L66 700 L176 700 L176 153 Z M108 -52 L206 -52 Q205 -99 192 -133.5 Q179 -168 158 -200 L93 -200 Q108 -119 108 -52 Z " />
<glyph glyph-name="lslash" unicode="&#x142;" horiz-adv-x="304" d="M195 357 L195 159 Q195 118 208.5 103 Q222 88 257 90 L257 4 Q236 -3 210 -3 Q145 -3 115 29 Q85 61 85 127 L85 293 L22 257 L22 346 L85 382 L85 700 L195 700 L195 446 L269 490 L269 400 L195 357 Z " />
<glyph glyph-name="m" unicode="m" horiz-adv-x="824" d="M756 326 L756 0 L646 0 L646 301 Q646 348 625.5 375.5 Q605 403 562 403 Q519 403 493.5 374 Q468 345 468 300 L468 0 L358 0 L358 301 Q358 347 337.5 375 Q317 403 274 403 Q231 403 206 374 Q181 345 181 300 L181 0 L71 0 L71 490 L175 490 L175 422 Q191 454 224 476.5 Q257 499 309 499 Q356 499 391.5 478.5 Q427 458 447 421 Q469 454 504 476.5 Q539 499 591 499 Q667 499 711.5 452 Q756 405 756 326 Z " />
<glyph glyph-name="n" unicode="n" horiz-adv-x="552" d="M485 326 L485 0 L375 0 L375 301 Q375 348 352 375.5 Q329 403 282 403 Q236 403 208.5 374.5 Q181 346 181 300 L181 0 L71 0 L71 490 L175 490 L175 421 Q192 453 227.5 476 Q263 499 317 499 Q393 499 439 452.5 Q485 406 485 326 Z " />
<glyph glyph-name="nacute" unicode="&#x144;" horiz-adv-x="552" d="M485 326 L485 0 L375 0 L375 301 Q375 348 352 375.5 Q329 403 282 403 Q236 403 208.5 374.5 Q181 346 181 300 L181 0 L71 0 L71 490 L175 490 L175 421 Q192 453 227.5 476 Q263 499 317 499 Q393 499 439 452.5 Q485 406 485 326 Z M327 560 L232 560 Q260 629 299 682 L418 682 Q382 638 327 560 Z " />
<glyph glyph-name="ncaron" unicode="&#x148;" horiz-adv-x="552" d="M485 326 L485 0 L375 0 L375 301 Q375 348 352 375.5 Q329 403 282 403 Q236 403 208.5 374.5 Q181 346 181 300 L181 0 L71 0 L71 490 L175 490 L175 421 Q192 453 227.5 476 Q263 499 317 499 Q393 499 439 452.5 Q485 406 485 326 Z M430 680 Q400 612 358 560 L213 560 Q192 586 173 618 Q154 650 141 680 L227 680 Q250 643 285 603 Q317 637 343 680 L430 680 Z " />
<glyph glyph-name="ncommaaccent" unicode="&#x146;" horiz-adv-x="552" d="M485 326 L485 0 L375 0 L375 301 Q375 348 352 375.5 Q329 403 282 403 Q236 403 208.5 374.5 Q181 346 181 300 L181 0 L71 0 L71 490 L175 490 L175 421 Q192 453 227.5 476 Q263 499 317 499 Q393 499 439 452.5 Q485 406 485 326 Z M225 -52 L323 -52 Q322 -99 309 -133.5 Q296 -168 275 -200 L210 -200 Q225 -119 225 -52 Z " />
<glyph glyph-name="eng" unicode="&#x14b;" horiz-adv-x="552" d="M485 326 L485 0 L375 0 L375 301 Q375 348 352 375.5 Q329 403 282 403 Q236 403 208.5 374.5 Q181 346 181 300 L181 0 L71 0 L71 490 L175 490 L175 421 Q192 453 227.5 476 Q263 499 317 499 Q393 499 439 452.5 Q485 406 485 326 Z " />
<glyph glyph-name="ntilde" unicode="&#xf1;" horiz-adv-x="552" d="M485 326 L485 0 L375 0 L375 301 Q375 348 352 375.5 Q329 403 282 403 Q236 403 208.5 374.5 Q181 346 181 300 L181 0 L71 0 L71 490 L175 490 L175 421 Q192 453 227.5 476 Q263 499 317 499 Q393 499 439 452.5 Q485 406 485 326 Z M352 560 Q330 560 312.5 567 Q295 574 273 586 Q258 595 247 599.5 Q236 604 225 604 Q207 604 199 593 Q191 582 189 560 L132 560 Q133 616 157 646 Q181 676 223 676 Q242 676 259 669 Q276 662 296 650 Q312 641 323.5 636 Q335 631 346 631 Q363 631 371.5 644 Q380 657 381 676 L439 676 Q437 619 415 589.5 Q393 560 352 560 Z " />
<glyph glyph-name="o" unicode="o" horiz-adv-x="521" d="M40 234 L40 256 Q40 373 100.5 436 Q161 499 260 499 Q359 499 420 436 Q481 373 481 256 L481 234 Q481 117 420 54 Q359 -9 260 -9 Q161 -9 100.5 54 Q40 117 40 234 Z M371 234 L371 256 Q371 319 345 361 Q319 403 260 403 Q201 403 175.5 361.5 Q150 320 150 256 L150 234 Q150 171 175.5 129 Q201 87 260 87 Q319 87 345 129 Q371 171 371 234 Z " />
<glyph glyph-name="oacute" unicode="&#xf3;" horiz-adv-x="521" d="M40 234 L40 256 Q40 373 100.5 436 Q161 499 260 499 Q359 499 420 436 Q481 373 481 256 L481 234 Q481 117 420 54 Q359 -9 260 -9 Q161 -9 100.5 54 Q40 117 40 234 Z M371 234 L371 256 Q371 319 345 361 Q319 403 260 403 Q201 403 175.5 361.5 Q150 320 150 256 L150 234 Q150 171 175.5 129 Q201 87 260 87 Q319 87 345 129 Q371 171 371 234 Z M302 560 L207 560 Q235 629 274 682 L393 682 Q357 638 302 560 Z " />
<glyph glyph-name="ocircumflex" unicode="&#xf4;" horiz-adv-x="521" d="M40 234 L40 256 Q40 373 100.5 436 Q161 499 260 499 Q359 499 420 436 Q481 373 481 256 L481 234 Q481 117 420 54 Q359 -9 260 -9 Q161 -9 100.5 54 Q40 117 40 234 Z M371 234 L371 256 Q371 319 345 361 Q319 403 260 403 Q201 403 175.5 361.5 Q150 320 150 256 L150 234 Q150 171 175.5 129 Q201 87 260 87 Q319 87 345 129 Q371 171 371 234 Z M318 560 Q292 603 260 637 Q225 597 202 560 L116 560 Q129 590 148 622 Q167 654 188 680 L333 680 Q375 628 405 560 L318 560 Z " />
<glyph glyph-name="odieresis" unicode="&#xf6;" horiz-adv-x="521" d="M40 234 L40 256 Q40 373 100.5 436 Q161 499 260 499 Q359 499 420 436 Q481 373 481 256 L481 234 Q481 117 420 54 Q359 -9 260 -9 Q161 -9 100.5 54 Q40 117 40 234 Z M371 234 L371 256 Q371 319 345 361 Q319 403 260 403 Q201 403 175.5 361.5 Q150 320 150 256 L150 234 Q150 171 175.5 129 Q201 87 260 87 Q319 87 345 129 Q371 171 371 234 Z M104 627 Q104 654 122.5 671.5 Q141 689 168 689 Q195 689 213.5 671.5 Q232 654 232 627 Q232 600 213.5 582 Q195 564 168 564 Q141 564 122.5 582 Q104 600 104 627 Z M289 627 Q289 654 307.5 671.5 Q326 689 353 689 Q381 689 399.5 671.5 Q418 654 418 627 Q418 600 399.5 582 Q381 564 353 564 Q326 564 307.5 582 Q289 600 289 627 Z " />
<glyph glyph-name="ograve" unicode="&#xf2;" horiz-adv-x="521" d="M40 234 L40 256 Q40 373 100.5 436 Q161 499 260 499 Q359 499 420 436 Q481 373 481 256 L481 234 Q481 117 420 54 Q359 -9 260 -9 Q161 -9 100.5 54 Q40 117 40 234 Z M371 234 L371 256 Q371 319 345 361 Q319 403 260 403 Q201 403 175.5 361.5 Q150 320 150 256 L150 234 Q150 171 175.5 129 Q201 87 260 87 Q319 87 345 129 Q371 171 371 234 Z M242 682 Q281 629 309 560 L217 560 Q165 635 123 682 L242 682 Z " />
<glyph glyph-name="ohungarumlaut" unicode="&#x151;" horiz-adv-x="521" d="M40 234 L40 256 Q40 373 100.5 436 Q161 499 260 499 Q359 499 420 436 Q481 373 481 256 L481 234 Q481 117 420 54 Q359 -9 260 -9 Q161 -9 100.5 54 Q40 117 40 234 Z M371 234 L371 256 Q371 319 345 361 Q319 403 260 403 Q201 403 175.5 361.5 Q150 320 150 256 L150 234 Q150 171 175.5 129 Q201 87 260 87 Q319 87 345 129 Q371 171 371 234 Z M228 560 L145 560 Q163 608 201 680 L306 680 Q269 636 228 560 Z M377 560 L294 560 Q326 628 361 680 L466 680 Q442 650 377 560 Z " />
<glyph glyph-name="omacron" unicode="&#x14d;" horiz-adv-x="521" d="M40 234 L40 256 Q40 373 100.5 436 Q161 499 260 499 Q359 499 420 436 Q481 373 481 256 L481 234 Q481 117 420 54 Q359 -9 260 -9 Q161 -9 100.5 54 Q40 117 40 234 Z M371 234 L371 256 Q371 319 345 361 Q319 403 260 403 Q201 403 175.5 361.5 Q150 320 150 256 L150 234 Q150 171 175.5 129 Q201 87 260 87 Q319 87 345 129 Q371 171 371 234 Z M386 656 L386 575 L134 575 L134 656 L386 656 Z " />
<glyph glyph-name="oslash" unicode="&#xf8;" horiz-adv-x="524" d="M484 256 L484 234 Q484 117 423 54 Q362 -9 262 -9 Q213 -9 172 6 L151 -35 L92 -9 L116 39 Q80 71 60 120 Q40 169 40 234 L40 256 Q40 373 101 436 Q162 499 262 499 Q311 499 347 485 L366 522 L425 496 L403 454 Q484 390 484 256 Z M168 139 L302 400 Q286 406 262 406 Q202 406 175.5 363.5 Q149 321 149 257 L149 233 Q149 176 168 139 Z M375 257 Q375 319 353 357 L217 92 Q238 84 262 84 Q323 84 349 126.5 Q375 169 375 233 L375 257 Z " />
<glyph glyph-name="otilde" unicode="&#xf5;" horiz-adv-x="521" d="M40 234 L40 256 Q40 373 100.5 436 Q161 499 260 499 Q359 499 420 436 Q481 373 481 256 L481 234 Q481 117 420 54 Q359 -9 260 -9 Q161 -9 100.5 54 Q40 117 40 234 Z M371 234 L371 256 Q371 319 345 361 Q319 403 260 403 Q201 403 175.5 361.5 Q150 320 150 256 L150 234 Q150 171 175.5 129 Q201 87 260 87 Q319 87 345 129 Q371 171 371 234 Z M327 560 Q305 560 287.5 567 Q270 574 248 586 Q233 595 222 599.5 Q211 604 200 604 Q182 604 174 593 Q166 582 164 560 L107 560 Q108 616 132 646 Q156 676 198 676 Q217 676 234 669 Q251 662 271 650 Q287 641 298.5 636 Q310 631 321 631 Q338 631 346.5 644 Q355 657 356 676 L414 676 Q412 619 390 589.5 Q368 560 327 560 Z " />
<glyph glyph-name="oe" unicode="&#x153;" horiz-adv-x="846" d="M480 221 Q483 162 510 123.5 Q537 85 593 85 Q670 85 691 150 L803 150 Q786 76 734.5 33.5 Q683 -9 592 -9 Q538 -9 495.5 10.5 Q453 30 425 68 Q397 30 354.5 10.5 Q312 -9 260 -9 Q161 -9 100.5 54 Q40 117 40 234 L40 256 Q40 373 100.5 436 Q161 499 260 499 Q313 499 355.5 479 Q398 459 425 421 Q454 459 497 479 Q540 499 593 499 Q691 499 749 438.5 Q807 378 807 274 L807 221 L480 221 Z M483 298 L702 298 Q697 347 670.5 376.5 Q644 406 592 406 Q543 406 516.5 376 Q490 346 483 298 Z M371 256 Q371 319 345 361 Q319 403 260 403 Q201 403 175.5 361.5 Q150 320 150 256 L150 234 Q150 171 175.5 129 Q201 87 260 87 Q319 87 345 129 Q371 171 371 234 L371 256 Z " />
<glyph glyph-name="p" unicode="p" horiz-adv-x="551" d="M511 256 L511 234 Q511 117 458.5 54 Q406 -9 319 -9 Q227 -9 181 58 L181 -160 L71 -160 L71 490 L175 490 L175 424 Q221 499 319 499 Q406 499 458.5 436 Q511 373 511 256 Z M401 256 Q401 319 375.5 361 Q350 403 291 403 Q234 403 207.5 362 Q181 321 181 262 L181 228 Q181 169 207.5 128 Q234 87 291 87 Q350 87 375.5 129 Q401 171 401 234 L401 256 Z " />
<glyph glyph-name="thorn" unicode="&#xfe;" horiz-adv-x="551" d="M511 256 L511 234 Q511 117 458.5 54 Q406 -9 319 -9 Q227 -9 181 58 L181 -160 L71 -160 L71 704 L181 704 L181 432 Q227 499 319 499 Q406 499 458.5 436 Q511 373 511 256 Z M401 256 Q401 319 375.5 361 Q350 403 291 403 Q234 403 207.5 362 Q181 321 181 262 L181 228 Q181 169 207.5 128 Q234 87 291 87 Q350 87 375.5 129 Q401 171 401 234 L401 256 Z " />
<glyph glyph-name="q" unicode="q" horiz-adv-x="551" d="M481 490 L481 -160 L371 -160 L371 58 Q325 -9 232 -9 Q145 -9 92.5 54 Q40 117 40 234 L40 256 Q40 373 92.5 436 Q145 499 232 499 Q330 499 376 424 L376 490 L481 490 Z M371 228 L371 262 Q371 321 344 362 Q317 403 260 403 Q201 403 175.5 361 Q150 319 150 256 L150 234 Q150 171 175.5 129 Q201 87 260 87 Q317 87 344 128 Q371 169 371 228 Z " />
<glyph glyph-name="r" unicode="r" horiz-adv-x="372" d="M357 490 L357 378 Q337 381 315 381 Q251 381 216 341 Q181 301 181 222 L181 0 L71 0 L71 490 L175 490 L175 379 Q186 425 220.5 459.5 Q255 494 316 494 Q337 494 357 490 Z " />
<glyph glyph-name="racute" unicode="&#x155;" horiz-adv-x="372" d="M357 490 L357 378 Q337 381 315 381 Q251 381 216 341 Q181 301 181 222 L181 0 L71 0 L71 490 L175 490 L175 379 Q186 425 220.5 459.5 Q255 494 316 494 Q337 494 357 490 Z M262 560 L167 560 Q195 629 234 682 L353 682 Q317 638 262 560 Z " />
<glyph glyph-name="rcaron" unicode="&#x159;" horiz-adv-x="372" d="M357 490 L357 378 Q337 381 315 381 Q251 381 216 341 Q181 301 181 222 L181 0 L71 0 L71 490 L175 490 L175 379 Q186 425 220.5 459.5 Q255 494 316 494 Q337 494 357 490 Z M364 680 Q334 612 292 560 L147 560 Q126 586 107 618 Q88 650 75 680 L161 680 Q184 643 219 603 Q251 637 277 680 L364 680 Z " />
<glyph glyph-name="rcommaaccent" unicode="&#x157;" horiz-adv-x="372" d="M357 490 L357 378 Q337 381 315 381 Q251 381 216 341 Q181 301 181 222 L181 0 L71 0 L71 490 L175 490 L175 379 Q186 425 220.5 459.5 Q255 494 316 494 Q337 494 357 490 Z M78 -52 L176 -52 Q175 -99 162 -133.5 Q149 -168 128 -200 L63 -200 Q78 -119 78 -52 Z " />
<glyph glyph-name="s" unicode="s" horiz-adv-x="466" d="M419 368 L420 357 L310 357 Q306 382 283.5 398.5 Q261 415 226 415 Q194 415 175.5 401 Q157 387 157 363 Q157 339 175.5 326 Q194 313 237 302 L283 289 Q362 268 397 234 Q432 200 432 140 Q432 72 381.5 31.5 Q331 -9 241 -9 Q149 -9 95.5 31 Q42 71 37 140 L36 154 L146 154 Q148 118 174 96.5 Q200 75 242 75 Q281 75 302.5 90 Q324 105 324 134 Q324 161 307.5 174 Q291 187 248 200 L198 214 Q149 228 117.5 243 Q86 258 66.5 285 Q47 312 47 354 Q47 416 94 457.5 Q141 499 230 499 Q317 499 365.5 463.5 Q414 428 419 368 Z " />
<glyph glyph-name="sacute" unicode="&#x15b;" horiz-adv-x="466" d="M419 368 L420 357 L310 357 Q306 382 283.5 398.5 Q261 415 226 415 Q194 415 175.5 401 Q157 387 157 363 Q157 339 175.5 326 Q194 313 237 302 L283 289 Q362 268 397 234 Q432 200 432 140 Q432 72 381.5 31.5 Q331 -9 241 -9 Q149 -9 95.5 31 Q42 71 37 140 L36 154 L146 154 Q148 118 174 96.5 Q200 75 242 75 Q281 75 302.5 90 Q324 105 324 134 Q324 161 307.5 174 Q291 187 248 200 L198 214 Q149 228 117.5 243 Q86 258 66.5 285 Q47 312 47 354 Q47 416 94 457.5 Q141 499 230 499 Q317 499 365.5 463.5 Q414 428 419 368 Z M282 560 L187 560 Q215 629 254 682 L373 682 Q337 638 282 560 Z " />
<glyph glyph-name="scaron" unicode="&#x161;" horiz-adv-x="466" d="M419 368 L420 357 L310 357 Q306 382 283.5 398.5 Q261 415 226 415 Q194 415 175.5 401 Q157 387 157 363 Q157 339 175.5 326 Q194 313 237 302 L283 289 Q362 268 397 234 Q432 200 432 140 Q432 72 381.5 31.5 Q331 -9 241 -9 Q149 -9 95.5 31 Q42 71 37 140 L36 154 L146 154 Q148 118 174 96.5 Q200 75 242 75 Q281 75 302.5 90 Q324 105 324 134 Q324 161 307.5 174 Q291 187 248 200 L198 214 Q149 228 117.5 243 Q86 258 66.5 285 Q47 312 47 354 Q47 416 94 457.5 Q141 499 230 499 Q317 499 365.5 463.5 Q414 428 419 368 Z M384 680 Q354 612 312 560 L167 560 Q146 586 127 618 Q108 650 95 680 L181 680 Q204 643 239 603 Q271 637 297 680 L384 680 Z " />
<glyph glyph-name="scedilla" unicode="&#x15f;" horiz-adv-x="466" d="M258 -9 L244 -38 Q284 -40 307.5 -60 Q331 -80 331 -116 Q331 -156 303 -178 Q275 -200 229 -200 Q200 -200 174 -191.5 Q148 -183 130 -168 L160 -121 Q190 -143 226 -143 Q266 -143 266 -114 Q266 -101 253.5 -94 Q241 -87 220 -87 Q204 -87 187 -92 L169 -69 L199 -7 Q125 2 83.5 40.5 Q42 79 37 140 L36 154 L146 154 Q148 118 174 96.5 Q200 75 242 75 Q281 75 302.5 90 Q324 105 324 134 Q324 161 307.5 174 Q291 187 248 200 L198 214 Q149 228 117.5 243 Q86 258 66.5 285 Q47 312 47 354 Q47 416 94 457.5 Q141 499 230 499 Q317 499 365.5 463.5 Q414 428 419 368 L420 357 L310 357 Q306 382 283.5 398.5 Q261 415 226 415 Q194 415 175.5 401 Q157 387 157 363 Q157 339 175.5 326 Q194 313 237 302 L283 289 Q362 268 397 234 Q432 200 432 140 Q432 75 386.5 35 Q341 -5 258 -9 Z " />
<glyph glyph-name="scommaaccent" unicode="&#x219;" horiz-adv-x="466" d="M419 368 L420 357 L310 357 Q306 382 283.5 398.5 Q261 415 226 415 Q194 415 175.5 401 Q157 387 157 363 Q157 339 175.5 326 Q194 313 237 302 L283 289 Q362 268 397 234 Q432 200 432 140 Q432 72 381.5 31.5 Q331 -9 241 -9 Q149 -9 95.5 31 Q42 71 37 140 L36 154 L146 154 Q148 118 174 96.5 Q200 75 242 75 Q281 75 302.5 90 Q324 105 324 134 Q324 161 307.5 174 Q291 187 248 200 L198 214 Q149 228 117.5 243 Q86 258 66.5 285 Q47 312 47 354 Q47 416 94 457.5 Q141 499 230 499 Q317 499 365.5 463.5 Q414 428 419 368 Z M183 -52 L281 -52 Q280 -99 267 -133.5 Q254 -168 233 -200 L168 -200 Q183 -119 183 -52 Z " />
<glyph glyph-name="germandbls" unicode="&#xdf;" horiz-adv-x="550" d="M512 204 Q512 105 453 50 Q394 -5 297 -5 Q263 -5 230 0 L230 98 Q254 91 287 91 Q338 91 370 120.5 Q402 150 402 206 Q402 269 360.5 295.5 Q319 322 252 322 L252 414 Q372 414 372 518 Q372 560 346 585 Q320 610 275 610 Q228 610 204.5 581.5 Q181 553 181 505 L181 0 L71 0 L71 505 Q71 596 126 651 Q181 706 275 706 Q369 706 425.5 656.5 Q482 607 482 524 Q482 469 457 431 Q432 393 394 377 Q448 360 480 316 Q512 272 512 204 Z " />
<glyph glyph-name="t" unicode="t" horiz-adv-x="336" d="M97 142 L97 401 L25 401 L25 490 L98 490 L98 617 L208 617 L208 490 L304 490 L304 401 L208 401 L208 159 Q208 123 222.5 106.5 Q237 90 273 90 Q280 90 304 92 L304 3 Q277 -5 241 -5 Q164 -5 130.5 31.5 Q97 68 97 142 Z " />
<glyph glyph-name="tbar" unicode="&#x167;" horiz-adv-x="336" d="M208 401 L208 294 L304 294 L304 219 L208 219 L208 160 Q208 124 222.5 107.5 Q237 91 273 91 Q280 91 304 93 L304 4 Q277 -4 242 -4 Q165 -4 131 32.5 Q97 69 97 143 L97 219 L25 219 L25 294 L97 294 L97 401 L25 401 L25 490 L98 490 L98 617 L208 617 L208 490 L304 490 L304 401 L208 401 Z " />
<glyph glyph-name="tcaron" unicode="&#x165;" horiz-adv-x="336" d="M97 142 L97 401 L25 401 L25 490 L98 490 L98 617 L208 617 L208 490 L304 490 L304 401 L208 401 L208 159 Q208 123 222.5 106.5 Q237 90 273 90 Q280 90 304 92 L304 3 Q277 -5 241 -5 Q164 -5 130.5 31.5 Q97 68 97 142 Z M313 551 L263 551 Q270 587 276 637 Q282 687 282 729 L368 729 Q365 627 313 551 Z " />
<glyph glyph-name="uni0163" unicode="&#x163;" horiz-adv-x="336" d="M208 401 L208 160 Q208 124 222.5 107.5 Q237 91 273 91 Q280 91 304 93 L304 4 Q277 -4 242 -4 L229 -4 L212 -38 Q252 -40 276 -60 Q300 -80 300 -116 Q300 -156 272 -178 Q244 -200 197 -200 Q168 -200 142 -191.5 Q116 -183 99 -168 L128 -121 Q158 -143 194 -143 Q234 -143 234 -114 Q234 -101 221.5 -94 Q209 -87 189 -87 Q173 -87 156 -92 L138 -69 L173 6 Q133 20 115 54 Q97 88 97 143 L97 401 L25 401 L25 490 L98 490 L98 617 L208 617 L208 490 L304 490 L304 401 L208 401 Z " />
<glyph glyph-name="uni021B" unicode="&#x21b;" horiz-adv-x="336" d="M97 142 L97 401 L25 401 L25 490 L98 490 L98 617 L208 617 L208 490 L304 490 L304 401 L208 401 L208 159 Q208 123 222.5 106.5 Q237 90 273 90 Q280 90 304 92 L304 3 Q277 -5 241 -5 Q164 -5 130.5 31.5 Q97 68 97 142 Z M151 -52 L249 -52 Q248 -99 235 -133.5 Q222 -168 201 -200 L136 -200 Q151 -119 151 -52 Z " />
<glyph glyph-name="u" unicode="u" horiz-adv-x="543" d="M473 490 L473 0 L368 0 L368 57 Q350 28 317 9.5 Q284 -9 235 -9 Q159 -9 113 37.5 Q67 84 67 163 L67 490 L177 490 L177 188 Q177 142 199 114.5 Q221 87 266 87 Q310 87 336.5 115 Q363 143 363 188 L363 490 L473 490 Z " />
<glyph glyph-name="uacute" unicode="&#xfa;" horiz-adv-x="543" d="M473 490 L473 0 L368 0 L368 57 Q350 28 317 9.5 Q284 -9 235 -9 Q159 -9 113 37.5 Q67 84 67 163 L67 490 L177 490 L177 188 Q177 142 199 114.5 Q221 87 266 87 Q310 87 336.5 115 Q363 143 363 188 L363 490 L473 490 Z M312 560 L217 560 Q245 629 284 682 L403 682 Q367 638 312 560 Z " />
<glyph glyph-name="ucircumflex" unicode="&#xfb;" horiz-adv-x="543" d="M473 490 L473 0 L368 0 L368 57 Q350 28 317 9.5 Q284 -9 235 -9 Q159 -9 113 37.5 Q67 84 67 163 L67 490 L177 490 L177 188 Q177 142 199 114.5 Q221 87 266 87 Q310 87 336.5 115 Q363 143 363 188 L363 490 L473 490 Z M327 560 Q301 603 269 637 Q234 597 211 560 L125 560 Q138 590 157 622 Q176 654 197 680 L342 680 Q384 628 414 560 L327 560 Z " />
<glyph glyph-name="udieresis" unicode="&#xfc;" horiz-adv-x="543" d="M473 490 L473 0 L368 0 L368 57 Q350 28 317 9.5 Q284 -9 235 -9 Q159 -9 113 37.5 Q67 84 67 163 L67 490 L177 490 L177 188 Q177 142 199 114.5 Q221 87 266 87 Q310 87 336.5 115 Q363 143 363 188 L363 490 L473 490 Z M113 627 Q113 654 131.5 671.5 Q150 689 177 689 Q204 689 222.5 671.5 Q241 654 241 627 Q241 600 222.5 582 Q204 564 177 564 Q150 564 131.5 582 Q113 600 113 627 Z M298 627 Q298 654 316.5 671.5 Q335 689 362 689 Q390 689 408.5 671.5 Q427 654 427 627 Q427 600 408.5 582 Q390 564 362 564 Q335 564 316.5 582 Q298 600 298 627 Z " />
<glyph glyph-name="ugrave" unicode="&#xf9;" horiz-adv-x="543" d="M473 490 L473 0 L368 0 L368 57 Q350 28 317 9.5 Q284 -9 235 -9 Q159 -9 113 37.5 Q67 84 67 163 L67 490 L177 490 L177 188 Q177 142 199 114.5 Q221 87 266 87 Q310 87 336.5 115 Q363 143 363 188 L363 490 L473 490 Z M252 682 Q291 629 319 560 L227 560 Q175 635 133 682 L252 682 Z " />
<glyph glyph-name="uhungarumlaut" unicode="&#x171;" horiz-adv-x="543" d="M473 490 L473 0 L368 0 L368 57 Q350 28 317 9.5 Q284 -9 235 -9 Q159 -9 113 37.5 Q67 84 67 163 L67 490 L177 490 L177 188 Q177 142 199 114.5 Q221 87 266 87 Q310 87 336.5 115 Q363 143 363 188 L363 490 L473 490 Z M238 560 L155 560 Q173 608 211 680 L316 680 Q279 636 238 560 Z M387 560 L304 560 Q336 628 371 680 L476 680 Q452 650 387 560 Z " />
<glyph glyph-name="umacron" unicode="&#x16b;" horiz-adv-x="543" d="M473 490 L473 0 L368 0 L368 57 Q350 28 317 9.5 Q284 -9 235 -9 Q159 -9 113 37.5 Q67 84 67 163 L67 490 L177 490 L177 188 Q177 142 199 114.5 Q221 87 266 87 Q310 87 336.5 115 Q363 143 363 188 L363 490 L473 490 Z M396 656 L396 575 L144 575 L144 656 L396 656 Z " />
<glyph glyph-name="uogonek" unicode="&#x173;" horiz-adv-x="543" d="M415 -72 Q415 -105 461 -105 L470 -105 L470 -174 Q457 -177 436 -177 Q388 -177 360.5 -155.5 Q333 -134 333 -95 Q333 -65 349.5 -41 Q366 -17 393 0 L368 0 L368 57 Q350 28 317 9.5 Q284 -9 235 -9 Q159 -9 113 37.5 Q67 84 67 163 L67 490 L177 490 L177 188 Q177 142 199 114.5 Q221 87 266 87 Q310 87 336.5 115 Q363 143 363 188 L363 490 L473 490 L473 0 Q415 -32 415 -72 Z " />
<glyph glyph-name="uring" unicode="&#x16f;" horiz-adv-x="543" d="M473 490 L473 0 L368 0 L368 57 Q350 28 317 9.5 Q284 -9 235 -9 Q159 -9 113 37.5 Q67 84 67 163 L67 490 L177 490 L177 188 Q177 142 199 114.5 Q221 87 266 87 Q310 87 336.5 115 Q363 143 363 188 L363 490 L473 490 Z M163 639 Q163 683 192.5 710.5 Q222 738 270 738 Q318 738 347.5 710.5 Q377 683 377 639 Q377 596 347 568 Q317 540 270 540 Q222 540 192.5 568 Q163 596 163 639 Z M321 639 Q321 661 307.5 675.5 Q294 690 270 690 Q246 690 232.5 675.5 Q219 661 219 639 Q219 617 232.5 602.5 Q246 588 270 588 Q294 588 307.5 602.5 Q321 617 321 639 Z " />
<glyph glyph-name="v" unicode="v" horiz-adv-x="494" d="M472 490 Q441 373 400 247 Q359 121 316 19 Q312 8 307 4 Q302 0 290 0 L204 0 Q192 0 187.5 4 Q183 8 178 19 Q134 124 93 251 Q52 378 23 490 L137 490 Q178 321 249 120 Q320 321 362 490 L472 490 Z " />
<glyph glyph-name="w" unicode="w" horiz-adv-x="752" d="M725 490 Q700 376 663.5 248 Q627 120 589 19 Q585 9 579.5 4.5 Q574 0 563 0 L486 0 Q474 0 468.5 4.5 Q463 9 460 19 L377 322 L294 19 Q291 9 285.5 4.5 Q280 0 268 0 L189 0 Q177 0 172 4 Q167 8 163 19 Q125 120 88.5 248 Q52 376 27 490 L140 490 Q175 320 232 132 L327 490 L429 490 L524 133 Q581 324 616 490 L725 490 Z " />
<glyph glyph-name="wacute" unicode="&#x1e83;" horiz-adv-x="752" d="M725 490 Q700 376 663.5 248 Q627 120 589 19 Q585 9 579.5 4.5 Q574 0 563 0 L486 0 Q474 0 468.5 4.5 Q463 9 460 19 L377 322 L294 19 Q291 9 285.5 4.5 Q280 0 268 0 L189 0 Q177 0 172 4 Q167 8 163 19 Q125 120 88.5 248 Q52 376 27 490 L140 490 Q175 320 232 132 L327 490 L429 490 L524 133 Q581 324 616 490 L725 490 Z M418 560 L323 560 Q351 629 390 682 L509 682 Q473 638 418 560 Z " />
<glyph glyph-name="wcircumflex" unicode="&#x175;" horiz-adv-x="752" d="M725 490 Q700 376 663.5 248 Q627 120 589 19 Q585 9 579.5 4.5 Q574 0 563 0 L486 0 Q474 0 468.5 4.5 Q463 9 460 19 L377 322 L294 19 Q291 9 285.5 4.5 Q280 0 268 0 L189 0 Q177 0 172 4 Q167 8 163 19 Q125 120 88.5 248 Q52 376 27 490 L140 490 Q175 320 232 132 L327 490 L429 490 L524 133 Q581 324 616 490 L725 490 Z M434 560 Q408 603 376 637 Q341 597 318 560 L232 560 Q245 590 264 622 Q283 654 304 680 L449 680 Q491 628 521 560 L434 560 Z " />
<glyph glyph-name="wdieresis" unicode="&#x1e85;" horiz-adv-x="752" d="M725 490 Q700 376 663.5 248 Q627 120 589 19 Q585 9 579.5 4.5 Q574 0 563 0 L486 0 Q474 0 468.5 4.5 Q463 9 460 19 L377 322 L294 19 Q291 9 285.5 4.5 Q280 0 268 0 L189 0 Q177 0 172 4 Q167 8 163 19 Q125 120 88.5 248 Q52 376 27 490 L140 490 Q175 320 232 132 L327 490 L429 490 L524 133 Q581 324 616 490 L725 490 Z M220 627 Q220 654 238.5 671.5 Q257 689 284 689 Q311 689 329.5 671.5 Q348 654 348 627 Q348 600 329.5 582 Q311 564 284 564 Q257 564 238.5 582 Q220 600 220 627 Z M405 627 Q405 654 423.5 671.5 Q442 689 469 689 Q497 689 515.5 671.5 Q534 654 534 627 Q534 600 515.5 582 Q497 564 469 564 Q442 564 423.5 582 Q405 600 405 627 Z " />
<glyph glyph-name="wgrave" unicode="&#x1e81;" horiz-adv-x="752" d="M725 490 Q700 376 663.5 248 Q627 120 589 19 Q585 9 579.5 4.5 Q574 0 563 0 L486 0 Q474 0 468.5 4.5 Q463 9 460 19 L377 322 L294 19 Q291 9 285.5 4.5 Q280 0 268 0 L189 0 Q177 0 172 4 Q167 8 163 19 Q125 120 88.5 248 Q52 376 27 490 L140 490 Q175 320 232 132 L327 490 L429 490 L524 133 Q581 324 616 490 L725 490 Z M358 682 Q397 629 425 560 L333 560 Q281 635 239 682 L358 682 Z " />
<glyph glyph-name="x" unicode="x" horiz-adv-x="482" d="M345 0 Q298 95 240 187 Q182 95 135 0 L19 0 Q80 121 165 253 Q78 381 24 490 L143 490 Q198 383 241 318 Q284 385 338 490 L455 490 Q403 384 314 256 Q400 127 463 0 L345 0 Z " />
<glyph glyph-name="y" unicode="y" horiz-adv-x="494" d="M471 490 Q450 390 404 258.5 Q358 127 307.5 10.5 Q257 -106 226 -160 L113 -160 Q148 -99 192 3 Q141 110 94.5 245.5 Q48 381 23 490 L136 490 Q153 413 182.5 318.5 Q212 224 248 131 Q319 315 363 490 L471 490 Z " />
<glyph glyph-name="yacute" unicode="&#xfd;" horiz-adv-x="494" d="M471 490 Q450 390 404 258.5 Q358 127 307.5 10.5 Q257 -106 226 -160 L113 -160 Q148 -99 192 3 Q141 110 94.5 245.5 Q48 381 23 490 L136 490 Q153 413 182.5 318.5 Q212 224 248 131 Q319 315 363 490 L471 490 Z M289 560 L194 560 Q222 629 261 682 L380 682 Q344 638 289 560 Z " />
<glyph glyph-name="ycircumflex" unicode="&#x177;" horiz-adv-x="494" d="M471 490 Q450 390 404 258.5 Q358 127 307.5 10.5 Q257 -106 226 -160 L113 -160 Q148 -99 192 3 Q141 110 94.5 245.5 Q48 381 23 490 L136 490 Q153 413 182.5 318.5 Q212 224 248 131 Q319 315 363 490 L471 490 Z M305 560 Q279 603 247 637 Q212 597 189 560 L103 560 Q116 590 135 622 Q154 654 175 680 L320 680 Q362 628 392 560 L305 560 Z " />
<glyph glyph-name="ydieresis" unicode="&#xff;" horiz-adv-x="494" d="M471 490 Q450 390 404 258.5 Q358 127 307.5 10.5 Q257 -106 226 -160 L113 -160 Q148 -99 192 3 Q141 110 94.5 245.5 Q48 381 23 490 L136 490 Q153 413 182.5 318.5 Q212 224 248 131 Q319 315 363 490 L471 490 Z M91 627 Q91 654 109.5 671.5 Q128 689 155 689 Q182 689 200.5 671.5 Q219 654 219 627 Q219 600 200.5 582 Q182 564 155 564 Q128 564 109.5 582 Q91 600 91 627 Z M276 627 Q276 654 294.5 671.5 Q313 689 340 689 Q368 689 386.5 671.5 Q405 654 405 627 Q405 600 386.5 582 Q368 564 340 564 Q313 564 294.5 582 Q276 600 276 627 Z " />
<glyph glyph-name="ygrave" unicode="&#x1ef3;" horiz-adv-x="494" d="M471 490 Q450 390 404 258.5 Q358 127 307.5 10.5 Q257 -106 226 -160 L113 -160 Q148 -99 192 3 Q141 110 94.5 245.5 Q48 381 23 490 L136 490 Q153 413 182.5 318.5 Q212 224 248 131 Q319 315 363 490 L471 490 Z M229 682 Q268 629 296 560 L204 560 Q152 635 110 682 L229 682 Z " />
<glyph glyph-name="z" unicode="z" horiz-adv-x="456" d="M424 94 L424 0 L33 0 L33 82 L284 396 L44 396 L44 490 L420 490 L420 407 L169 94 L424 94 Z " />
<glyph glyph-name="zacute" unicode="&#x17a;" horiz-adv-x="456" d="M424 94 L424 0 L33 0 L33 82 L284 396 L44 396 L44 490 L420 490 L420 407 L169 94 L424 94 Z M263 560 L168 560 Q196 629 235 682 L354 682 Q318 638 263 560 Z " />
<glyph glyph-name="zcaron" unicode="&#x17e;" horiz-adv-x="456" d="M424 94 L424 0 L33 0 L33 82 L284 396 L44 396 L44 490 L420 490 L420 407 L169 94 L424 94 Z M365 680 Q335 612 293 560 L148 560 Q127 586 108 618 Q89 650 76 680 L162 680 Q185 643 220 603 Q252 637 278 680 L365 680 Z " />
<glyph glyph-name="zdotaccent" unicode="&#x17c;" horiz-adv-x="456" d="M424 94 L424 0 L33 0 L33 82 L284 396 L44 396 L44 490 L420 490 L420 407 L169 94 L424 94 Z M155 627 Q155 655 174 673 Q193 691 221 691 Q249 691 268 673 Q287 655 287 627 Q287 600 267.5 582 Q248 564 221 564 Q193 564 174 582 Q155 600 155 627 Z " />
<glyph glyph-name="zero" unicode="0" horiz-adv-x="560" d="M48 315 L48 365 Q48 534 112 612 Q176 690 280 690 Q384 690 448 612 Q512 534 512 365 L512 315 Q512 146 448 68 Q384 -10 280 -10 Q176 -10 112 68 Q48 146 48 315 Z M398 319 L398 361 Q398 590 280 590 Q162 590 162 361 L162 319 Q162 90 280 90 Q398 90 398 319 Z " />
<glyph glyph-name="one" unicode="1" horiz-adv-x="560" d="M375 680 L375 0 L262 0 L262 526 Q230 499 188.5 476.5 Q147 454 108 440 L108 546 Q154 569 204.5 607 Q255 645 283 680 L375 680 Z " />
<glyph glyph-name="two" unicode="2" horiz-adv-x="560" d="M505 100 L505 0 L66 0 L66 90 Q191 183 284.5 283 Q378 383 378 484 Q378 534 352.5 562 Q327 590 277 590 Q228 590 200.5 557 Q173 524 168 466 L57 466 Q58 566 116 628 Q174 690 278 690 Q382 690 437 634 Q492 578 492 486 Q492 377 413 278.5 Q334 180 224 100 L505 100 Z " />
<glyph glyph-name="three" unicode="3" horiz-adv-x="560" d="M503 197 Q503 103 443.5 46.5 Q384 -10 281 -10 Q213 -10 163 15 Q113 40 85.5 84 Q58 128 55 184 L54 202 L166 202 Q168 150 199.5 120 Q231 90 281 90 Q330 90 360 118.5 Q390 147 390 199 Q390 260 352.5 284.5 Q315 309 251 309 L251 400 Q308 400 341 425 Q374 450 374 502 Q374 543 349 566.5 Q324 590 280 590 Q233 590 208 563.5 Q183 537 177 491 L65 491 Q69 587 128 638.5 Q187 690 281 690 Q343 690 390 667.5 Q437 645 462.5 604 Q488 563 488 509 Q488 454 463 416 Q438 378 399 359 Q446 341 474.5 299.5 Q503 258 503 197 Z " />
<glyph glyph-name="four" unicode="4" horiz-adv-x="560" d="M536 144 L462 144 L462 0 L349 0 L349 144 L40 144 L40 202 Q40 242 50 265 Q85 348 164 478 Q243 608 301 680 L434 680 Q364 592 282.5 463 Q201 334 159 240 L349 240 L349 406 L462 406 L462 240 L536 240 L536 144 Z " />
<glyph glyph-name="five" unicode="5" horiz-adv-x="560" d="M514 229 Q514 157 485.5 103 Q457 49 405 20 Q353 -9 284 -9 Q185 -9 126 41 Q67 91 60 168 L58 190 L168 190 Q171 141 201 113.5 Q231 86 285 86 Q339 86 370 123 Q401 160 401 228 Q401 291 371 325 Q341 359 285 359 Q248 359 220 343 Q192 327 179 303 L75 312 Q77 366 90 486 Q103 606 116 680 L473 680 L473 580 L207 580 Q197 527 187 413 Q206 432 236 443 Q266 454 306 454 Q367 454 414 427 Q461 400 487.5 349.5 Q514 299 514 229 Z " />
<glyph glyph-name="six" unicode="6" horiz-adv-x="560" d="M513 229 Q513 158 484.5 104 Q456 50 403.5 20 Q351 -10 281 -10 Q177 -10 115 52.5 Q53 115 53 224 L53 254 Q53 327 85 408 Q117 489 168 560 Q219 631 275 680 L421 680 Q356 623 305.5 565 Q255 507 220 439 Q255 454 300 454 Q398 454 455.5 393 Q513 332 513 229 Z M399 226 Q399 290 370 324.5 Q341 359 283 359 Q223 359 194.5 323 Q166 287 166 222 Q166 156 196 120.5 Q226 85 282 85 Q337 85 368 123 Q399 161 399 226 Z " />
<glyph glyph-name="seven" unicode="7" horiz-adv-x="560" d="M492 680 L492 587 Q460 470 380.5 285 Q301 100 249 0 L123 0 Q192 133 262.5 294 Q333 455 374 580 L52 580 L52 680 L492 680 Z " />
<glyph glyph-name="eight" unicode="8" horiz-adv-x="560" d="M513 182 Q513 124 483 80 Q453 36 400.5 12.5 Q348 -11 281 -11 Q212 -11 158.5 12.5 Q105 36 75.5 78.5 Q46 121 46 178 Q46 298 171 360 Q74 422 74 516 Q74 568 100 608 Q126 648 174 670 Q222 692 284 692 Q380 692 438 644 Q496 596 496 517 Q496 465 467 426.5 Q438 388 389 362 Q446 331 479.5 288 Q513 245 513 182 Z M187 518 Q187 486 210 460 Q233 434 295 406 Q334 421 359 448 Q384 475 384 514 Q384 551 358 575.5 Q332 600 284 600 Q239 600 213 576.5 Q187 553 187 518 Z M399 181 Q399 225 365.5 254 Q332 283 256 316 Q211 297 184.5 263 Q158 229 158 186 Q158 142 191.5 112 Q225 82 279 82 Q333 82 366 110 Q399 138 399 181 Z " />
<glyph glyph-name="nine" unicode="9" horiz-adv-x="560" d="M504 462 L504 437 Q504 364 472 281 Q440 198 389 124 Q338 50 283 0 L143 0 Q278 121 345 255 Q309 236 259 236 Q163 236 105.5 297 Q48 358 48 459 Q48 529 76.5 581.5 Q105 634 157 662 Q209 690 277 690 Q380 690 442 629.5 Q504 569 504 462 Z M276 331 Q334 331 362.5 366 Q391 401 391 464 Q391 524 360 559.5 Q329 595 277 595 Q223 595 192 558.5 Q161 522 161 461 Q161 400 191 365.5 Q221 331 276 331 Z " />
<glyph glyph-name="fraction" unicode="&#x2044;" horiz-adv-x="237" d="M-34 0 L-124 0 L271 680 L361 680 L-34 0 Z " />
<glyph glyph-name="onehalf" unicode="&#xbd;" horiz-adv-x="960" d="M226 680 L226 266 L140 266 L140 558 Q120 541 92.5 527.5 Q65 514 42 507 L42 581 Q74 599 105 625.5 Q136 652 158 680 L226 680 Z M286 0 L196 0 L591 680 L681 680 L286 0 Z M905 72 L905 0 L608 0 L608 61 Q647 89 651 92 Q705 130 736.5 156 Q768 182 789.5 215.5 Q811 249 811 288 Q811 315 795 332.5 Q779 350 752 350 Q724 350 706.5 329 Q689 308 687 274 L602 274 Q604 342 644 381.5 Q684 421 752 421 Q819 421 858 384.5 Q897 348 897 288 Q897 169 735 72 L905 72 Z " />
<glyph glyph-name="onequarter" unicode="&#xbc;" horiz-adv-x="909" d="M226 680 L226 266 L140 266 L140 558 Q120 541 92.5 527.5 Q65 514 42 507 L42 581 Q74 599 105 625.5 Q136 652 158 680 L226 680 Z M286 0 L196 0 L591 680 L681 680 L286 0 Z M875 84 L828 84 L828 0 L743 0 L743 84 L533 84 L533 118 Q533 149 542 171 Q564 225 607.5 293 Q651 361 693 414 L790 414 Q746 359 700 288.5 Q654 218 625 157 L743 157 L743 257 L828 257 L828 157 L875 157 L875 84 Z " />
<glyph glyph-name="threequarters" unicode="&#xbe;" horiz-adv-x="964" d="M343 388 Q343 330 303 294.5 Q263 259 192 259 Q124 259 83.5 292 Q43 325 43 384 L127 384 Q130 360 146.5 344 Q163 328 192 328 Q222 328 239 344.5 Q256 361 256 390 Q256 422 233 435 Q210 448 170 448 L170 511 Q252 511 252 570 Q252 595 236.5 609.5 Q221 624 193 624 Q166 624 149 606.5 Q132 589 129 566 L49 566 Q49 622 88.5 655.5 Q128 689 192 689 Q260 689 297.5 657 Q335 625 335 574 Q335 506 276 483 Q305 473 324 448 Q343 423 343 388 Z M341 0 L251 0 L646 680 L736 680 L341 0 Z M930 84 L883 84 L883 0 L798 0 L798 84 L588 84 L588 118 Q588 149 597 171 Q619 225 662.5 293 Q706 361 748 414 L845 414 Q801 359 755 288.5 Q709 218 680 157 L798 157 L798 257 L883 257 L883 157 L930 157 L930 84 Z " />
<glyph glyph-name="uni00B9" unicode="&#xb9;" horiz-adv-x="330" d="M226 720 L226 306 L140 306 L140 598 Q120 581 92.5 567.5 Q65 554 42 547 L42 621 Q74 639 105 665.5 Q136 692 158 720 L226 720 Z " />
<glyph glyph-name="uni00B2" unicode="&#xb2;" horiz-adv-x="412" d="M357 380 L357 308 L60 308 L60 369 Q99 397 103 400 Q157 438 188.5 464 Q220 490 241.5 523.5 Q263 557 263 596 Q263 623 247 640.5 Q231 658 204 658 Q176 658 158.5 637 Q141 616 139 582 L54 582 Q56 650 96 689.5 Q136 729 204 729 Q271 729 310 692.5 Q349 656 349 596 Q349 478 188 380 L357 380 Z " />
<glyph glyph-name="uni00B3" unicode="&#xb3;" horiz-adv-x="382" d="M343 428 Q343 370 303 334.5 Q263 299 192 299 Q124 299 83.5 332 Q43 365 43 424 L127 424 Q130 400 146.5 384 Q163 368 192 368 Q222 368 239 384.5 Q256 401 256 430 Q256 462 233 475 Q210 488 170 488 L170 551 Q252 551 252 610 Q252 635 236.5 649.5 Q221 664 193 664 Q166 664 149 646.5 Q132 629 129 606 L49 606 Q49 662 88.5 695.5 Q128 729 192 729 Q260 729 297.5 697 Q335 665 335 614 Q335 546 276 523 Q305 513 324 488 Q343 463 343 428 Z " />
<glyph glyph-name="asterisk" unicode="&#x2a;" horiz-adv-x="361" d="M223 553 Q294 521 327 512 Q322 497 310.5 477 Q299 457 289 447 Q234 492 201 516 Q207 453 218 406 Q200 402 181 402 Q163 402 143 406 Q154 463 159 516 Q103 475 71 447 Q61 458 49.5 478 Q38 498 34 512 Q73 523 138 553 Q74 581 34 594 Q39 608 50 628.5 Q61 649 71 659 Q110 625 159 589 Q153 646 143 700 Q156 704 181 704 Q206 704 218 700 Q210 665 202 590 Q248 623 289 659 Q299 649 310.5 629 Q322 609 327 594 Q280 578 223 553 Z " />
<glyph glyph-name="backslash" unicode="&#x5c;" horiz-adv-x="429" d="M130 700 L414 -20 L300 -20 L15 700 L130 700 Z " />
<glyph glyph-name="middot" unicode="&#xb7;" horiz-adv-x="280" d="M68 335 Q68 365 89 385.5 Q110 406 140 406 Q170 406 191.5 385.5 Q213 365 213 335 Q213 304 191.5 283 Q170 262 140 262 Q111 262 89.5 283.5 Q68 305 68 335 Z " />
<glyph glyph-name="bullet" unicode="&#x2022;" horiz-adv-x="380" d="M60 327 Q60 382 97.5 419.5 Q135 457 190 457 Q245 457 282.5 419.5 Q320 382 320 327 Q320 272 282.5 234.5 Q245 197 190 197 Q135 197 97.5 234.5 Q60 272 60 327 Z " />
<glyph glyph-name="colon" unicode="&#x3a;" horiz-adv-x="243" d="M49 65 Q49 95 70 115.5 Q91 136 121 136 Q151 136 172.5 115.5 Q194 95 194 65 Q194 34 172.5 13 Q151 -8 121 -8 Q92 -8 70.5 13.5 Q49 35 49 65 Z M49 426 Q49 456 70 476.5 Q91 497 121 497 Q151 497 172.5 476.5 Q194 456 194 426 Q194 395 172.5 374 Q151 353 121 353 Q92 353 70.5 374.5 Q49 396 49 426 Z " />
<glyph glyph-name="comma" unicode="&#x2c;" horiz-adv-x="213" d="M169 81 Q169 19 147 -26.5 Q125 -72 93 -114 L28 -114 Q49 -22 49 74 L49 118 L169 118 L169 81 Z " />
<glyph glyph-name="ellipsis" unicode="&#x2026;" horiz-adv-x="633" d="M454 65 Q454 95 475 115.5 Q496 136 526 136 Q556 136 577.5 115.5 Q599 95 599 65 Q599 34 577.5 13 Q556 -8 526 -8 Q497 -8 475.5 13.5 Q454 35 454 65 Z M244 65 Q244 95 265 115.5 Q286 136 316 136 Q346 136 367.5 115.5 Q389 95 389 65 Q389 34 367.5 13 Q346 -8 316 -8 Q287 -8 265.5 13.5 Q244 35 244 65 Z M34 65 Q34 95 55 115.5 Q76 136 106 136 Q136 136 157.5 115.5 Q179 95 179 65 Q179 34 157.5 13 Q136 -8 106 -8 Q77 -8 55.5 13.5 Q34 35 34 65 Z " />
<glyph glyph-name="exclam" unicode="&#x21;" horiz-adv-x="305" d="M194 209 L111 209 Q102 302 94.5 433 Q87 564 85 680 L220 680 Q218 559 211 428.5 Q204 298 194 209 Z M80 65 Q80 95 101.5 115.5 Q123 136 153 136 Q183 136 204 115.5 Q225 95 225 65 Q225 35 204 13.5 Q183 -8 153 -8 Q123 -8 101.5 13 Q80 34 80 65 Z " />
<glyph glyph-name="exclamdown" unicode="&#xa1;" horiz-adv-x="305" d="M225 425 Q225 395 204 374 Q183 353 153 353 Q123 353 101.5 374 Q80 395 80 425 Q80 455 101.5 476 Q123 497 153 497 Q182 497 203.5 476 Q225 455 225 425 Z M111 280 L194 280 Q204 191 211 60.5 Q218 -70 220 -191 L85 -191 Q87 -75 94.5 56 Q102 187 111 280 Z " />
<glyph glyph-name="numbersign" unicode="&#x23;" horiz-adv-x="560" d="M437 413 L417 269 L495 269 L495 191 L406 191 L379 0 L296 0 L323 191 L197 191 L170 0 L86 0 L113 191 L33 191 L33 269 L124 269 L144 413 L65 413 L65 492 L155 492 L182 680 L265 680 L239 492 L365 492 L392 680 L475 680 L448 492 L528 492 L528 413 L437 413 Z M354 413 L228 413 L208 269 L334 269 L354 413 Z " />
<glyph glyph-name="period" unicode="&#x2e;" horiz-adv-x="213" d="M34 65 Q34 95 55 115.5 Q76 136 106 136 Q136 136 157.5 115.5 Q179 95 179 65 Q179 34 157.5 13 Q136 -8 106 -8 Q77 -8 55.5 13.5 Q34 35 34 65 Z " />
<glyph glyph-name="question" unicode="&#x3f;" horiz-adv-x="416" d="M283 499 Q283 542 263.5 565 Q244 588 208 588 Q170 588 150 562.5 Q130 537 127 493 L23 493 L23 506 Q23 557 44.5 599 Q66 641 108.5 666 Q151 691 210 691 Q269 691 311.5 667.5 Q354 644 375.5 603.5 Q397 563 397 514 Q397 432 357 354 Q317 276 268 206 L161 206 Q212 289 247.5 362.5 Q283 436 283 499 Z M138 65 Q138 95 159.5 115.5 Q181 136 211 136 Q241 136 262 115.5 Q283 95 283 65 Q283 35 262 13.5 Q241 -8 211 -8 Q181 -8 159.5 13 Q138 34 138 65 Z " />
<glyph glyph-name="questiondown" unicode="&#xbf;" horiz-adv-x="386" d="M276 426 Q276 396 254.5 375.5 Q233 355 203 355 Q173 355 151.5 375.5 Q130 396 130 426 Q130 457 151.5 478 Q173 499 203 499 Q233 499 254.5 478 Q276 457 276 426 Z M132 -8 Q132 -51 151.5 -74 Q171 -97 207 -97 Q281 -97 289 -2 L393 -2 L393 -15 Q393 -66 371.5 -108 Q350 -150 307.5 -175 Q265 -200 206 -200 Q147 -200 104.5 -176.5 Q62 -153 40.5 -112.5 Q19 -72 19 -23 Q19 35 42.5 95.5 Q66 156 90.5 197 Q115 238 147 285 L254 285 Q203 202 167.5 128.5 Q132 55 132 -8 Z " />
<glyph glyph-name="quotedbl" unicode="&#x22;" horiz-adv-x="334" d="M132 680 Q132 610 127 548 Q122 486 114 448 L53 448 Q45 488 39.5 549.5 Q34 611 34 680 L132 680 Z M300 680 Q300 610 295 548 Q290 486 282 448 L221 448 Q213 488 207.5 549.5 Q202 611 202 680 L300 680 Z " />
<glyph glyph-name="quotesingle" unicode="&#x27;" horiz-adv-x="166" d="M132 680 Q132 610 127 548 Q122 486 114 448 L53 448 Q45 488 39.5 549.5 Q34 611 34 680 L132 680 Z " />
<glyph glyph-name="semicolon" unicode="&#x3b;" horiz-adv-x="244" d="M184 81 Q184 19 162 -26.5 Q140 -72 108 -114 L43 -114 Q64 -22 64 74 L64 118 L184 118 L184 81 Z M50 426 Q50 456 71 476.5 Q92 497 122 497 Q152 497 173.5 476.5 Q195 456 195 426 Q195 395 173.5 374 Q152 353 122 353 Q93 353 71.5 374.5 Q50 396 50 426 Z " />
<glyph glyph-name="slash" unicode="&#x2f;" horiz-adv-x="429" d="M129 -20 L15 -20 L299 700 L414 700 L129 -20 Z " />
<glyph glyph-name="underscore" unicode="&#x5f;" horiz-adv-x="502" d="M507 -89 L507 -171 L-5 -171 L-5 -89 L507 -89 Z " />
<glyph glyph-name="braceleft" unicode="&#x7b;" horiz-adv-x="365" d="M329 609 L294 609 Q260 609 243 598 Q226 587 226 556 L226 385 Q226 333 202 304.5 Q178 276 132 266 L132 264 Q226 245 226 145 L226 -30 Q226 -61 242.5 -70.5 Q259 -80 294 -80 L329 -80 L329 -151 L271 -151 Q221 -151 189.5 -140 Q158 -129 141 -98.5 Q124 -68 124 -12 L124 128 Q124 178 104 199 Q84 220 43 220 L43 310 Q84 310 104 331.5 Q124 353 124 404 L124 541 Q124 598 141 628 Q158 658 189.5 669 Q221 680 271 680 L329 680 L329 609 Z " />
<glyph glyph-name="braceright" unicode="&#x7d;" horiz-adv-x="359" d="M95 680 Q145 680 176 669 Q207 658 224 628 Q241 598 241 541 L241 404 Q241 353 261.5 331.5 Q282 310 323 310 L323 220 Q281 220 261 199.5 Q241 179 241 128 L241 -12 Q241 -69 224 -99 Q207 -129 176 -140 Q145 -151 95 -151 L36 -151 L36 -80 L72 -80 Q107 -80 123.5 -70.5 Q140 -61 140 -30 L140 145 Q140 197 163.5 226 Q187 255 234 264 L234 266 Q187 276 163.5 304.5 Q140 333 140 385 L140 556 Q140 587 123 598 Q106 609 72 609 L36 609 L36 680 L95 680 Z " />
<glyph glyph-name="bracketleft" unicode="&#x5b;" horiz-adv-x="333" d="M297 609 L180 609 L180 -80 L297 -80 L297 -151 L79 -151 L79 680 L297 680 L297 609 Z " />
<glyph glyph-name="bracketright" unicode="&#x5d;" horiz-adv-x="333" d="M254 680 L254 -151 L36 -151 L36 -80 L153 -80 L153 609 L36 609 L36 680 L254 680 Z " />
<glyph glyph-name="parenleft" unicode="&#x28;" horiz-adv-x="368" d="M239 680 L348 680 Q268 593 221 495.5 Q174 398 174 267 Q174 136 221 38.5 Q268 -59 348 -146 L239 -146 Q168 -81 114.5 21.5 Q61 124 61 267 Q61 410 114.5 512.5 Q168 615 239 680 Z " />
<glyph glyph-name="parenright" unicode="&#x29;" horiz-adv-x="368" d="M130 -146 L21 -146 Q100 -58 147.5 39.5 Q195 137 195 267 Q195 397 147.5 494.5 Q100 592 21 680 L130 680 Q201 615 254.5 512.5 Q308 410 308 267 Q308 124 254.5 21.5 Q201 -81 130 -146 Z " />
<glyph glyph-name="emdash" unicode="&#x2014;" horiz-adv-x="804" d="M763 342 L763 246 L41 246 L41 342 L763 342 Z " />
<glyph glyph-name="endash" unicode="&#x2013;" horiz-adv-x="586" d="M545 342 L545 246 L41 246 L41 342 L545 342 Z " />
<glyph glyph-name="hyphen" unicode="&#x2d;" horiz-adv-x="362" d="M321 344 L321 244 L41 244 L41 344 L321 344 Z " />
<glyph glyph-name="guillemotleft" unicode="&#xab;" horiz-adv-x="618" d="M391 242 L565 48 L450 48 L278 242 L450 435 L565 435 L391 242 Z M166 242 L340 48 L225 48 L53 242 L225 435 L340 435 L166 242 Z " />
<glyph glyph-name="guillemotright" unicode="&#xbb;" horiz-adv-x="618" d="M393 435 L565 242 L393 48 L278 48 L452 242 L278 435 L393 435 Z M168 435 L340 242 L168 48 L53 48 L227 242 L53 435 L168 435 Z " />
<glyph glyph-name="guilsinglleft" unicode="&#x2039;" horiz-adv-x="393" d="M166 242 L340 48 L225 48 L53 242 L225 435 L340 435 L166 242 Z " />
<glyph glyph-name="guilsinglright" unicode="&#x203a;" horiz-adv-x="393" d="M168 435 L340 242 L168 48 L53 48 L227 242 L53 435 L168 435 Z " />
<glyph glyph-name="quotedblbase" unicode="&#x201e;" horiz-adv-x="369" d="M163 81 Q163 22 142 -22 Q121 -66 91 -104 L34 -104 Q52 -20 52 75 L52 118 L163 118 L163 81 Z M336 81 Q336 22 315 -22 Q294 -66 264 -104 L207 -104 Q225 -20 225 75 L225 118 L336 118 L336 81 Z " />
<glyph glyph-name="quotedblleft" unicode="&#x201c;" horiz-adv-x="369" d="M207 495 Q207 554 228 598 Q249 642 278 680 L336 680 Q317 600 317 501 L317 458 L207 458 L207 495 Z M34 495 Q34 554 55 598 Q76 642 105 680 L163 680 Q144 600 144 501 L144 458 L34 458 L34 495 Z " />
<glyph glyph-name="quotedblright" unicode="&#x201d;" horiz-adv-x="369" d="M336 643 Q336 584 315 540 Q294 496 264 458 L207 458 Q225 542 225 637 L225 680 L336 680 L336 643 Z M163 643 Q163 584 142 540 Q121 496 91 458 L34 458 Q52 542 52 637 L52 680 L163 680 L163 643 Z " />
<glyph glyph-name="quoteleft" unicode="&#x2018;" horiz-adv-x="196" d="M34 495 Q34 554 55 598 Q76 642 105 680 L163 680 Q144 600 144 501 L144 458 L34 458 L34 495 Z " />
<glyph glyph-name="quoteright" unicode="&#x2019;" horiz-adv-x="196" d="M163 643 Q163 584 142 540 Q121 496 91 458 L34 458 Q52 542 52 637 L52 680 L163 680 L163 643 Z " />
<glyph glyph-name="quotesinglbase" unicode="&#x201a;" horiz-adv-x="196" d="M163 81 Q163 22 142 -22 Q121 -66 91 -104 L34 -104 Q52 -20 52 75 L52 118 L163 118 L163 81 Z " />
<glyph glyph-name="uni00A0" unicode="&#xa0;" horiz-adv-x="600" d="" />
<glyph glyph-name="cent" unicode="&#xa2;" horiz-adv-x="560" d="M493 176 L492 163 Q486 94 441.5 49.5 Q397 5 328 -6 L328 -80 L246 -80 L246 -6 Q164 7 117 68 Q70 129 70 233 L70 257 Q70 360 117 421.5 Q164 483 246 496 L246 570 L328 570 L328 496 Q398 486 441.5 443.5 Q485 401 490 339 L491 327 L381 327 Q363 403 287 403 Q230 403 205 361.5 Q180 320 180 257 L180 233 Q180 170 204.5 128.5 Q229 87 286 87 Q329 87 353 110.5 Q377 134 384 176 L493 176 Z " />
<glyph glyph-name="currency" unicode="&#xa4;" horiz-adv-x="560" d="M467 475 L422 431 Q452 390 452 332 Q452 274 422 233 L467 188 L423 145 L378 191 Q337 166 282 166 Q226 166 182 193 L136 145 L93 189 L139 234 Q111 274 111 332 Q111 390 140 430 L92 476 L136 519 L182 472 Q229 498 282 498 Q337 498 378 473 L423 519 L467 475 Z M188 332 Q188 286 214 260 Q240 234 282 234 Q324 234 349 260 Q374 286 374 332 Q374 378 349 404 Q324 430 282 430 Q240 430 214 404 Q188 378 188 332 Z " />
<glyph glyph-name="dollar" unicode="&#x24;" horiz-adv-x="560" d="M319 -8 L319 -80 L236 -80 L236 -7 Q144 4 94 57 Q44 110 41 183 L40 204 L153 204 Q157 150 191.5 118.5 Q226 87 286 87 Q340 87 369.5 113 Q399 139 399 187 Q399 229 374 250 Q349 271 294 290 L239 309 Q143 342 99.5 384.5 Q56 427 56 499 Q56 572 104 625.5 Q152 679 236 688 L236 766 L319 766 L319 686 Q399 674 444 627.5 Q489 581 494 522 L495 505 L382 505 Q375 544 345.5 568 Q316 592 266 592 Q219 592 193 567 Q167 542 167 505 Q167 468 195 447 Q223 426 285 405 L341 385 Q422 357 466 313 Q510 269 510 193 Q510 112 459 57 Q408 2 319 -8 Z " />
<glyph glyph-name="Euro" unicode="&#x20ac;" horiz-adv-x="560" d="M423 182 L538 182 L537 174 Q526 85 465 37.5 Q404 -10 318 -10 Q224 -10 161 51 Q98 112 84 243 L19 243 L19 311 L80 311 L80 377 L19 377 L19 444 L85 444 Q100 571 163 630.5 Q226 690 318 690 Q404 690 465.5 642.5 Q527 595 537 507 L538 498 L423 498 Q412 543 386.5 566.5 Q361 590 317 590 Q219 590 198 444 L370 444 L370 377 L193 377 L193 311 L370 311 L370 243 L197 243 Q216 89 317 89 Q400 89 423 182 Z " />
<glyph glyph-name="sterling" unicode="&#xa3;" horiz-adv-x="560" d="M181 100 L506 100 L506 0 L51 0 L51 84 Q98 121 118 159 Q138 197 138 249 Q138 267 135 283 L66 283 L66 367 L117 367 Q105 409 99 435.5 Q93 462 93 491 Q93 547 118 592 Q143 637 191 663.5 Q239 690 304 690 Q367 690 413 666 Q459 642 484.5 601 Q510 560 513 509 L514 493 L400 493 Q397 537 371.5 563.5 Q346 590 303 590 Q260 590 233.5 561 Q207 532 207 481 Q207 456 212 431.5 Q217 407 227 367 L403 367 L403 283 L244 283 Q247 264 247 242 Q247 203 229.5 165.5 Q212 128 181 100 Z " />
<glyph glyph-name="yen" unicode="&#xa5;" horiz-adv-x="560" d="M408 405 L501 405 L501 338 L370 338 Q366 330 338 282 L338 272 L501 272 L501 205 L338 205 L338 0 L224 0 L224 205 L61 205 L61 272 L224 272 L224 282 L192 338 L61 338 L61 405 L154 405 Q77 544 20 680 L140 680 Q195 547 283 393 Q368 549 423 680 L541 680 Q491 558 408 405 Z " />
<glyph glyph-name="approxequal" unicode="&#x2248;" horiz-adv-x="570" d="M282 370 Q252 380 230.5 385.5 Q209 391 189 391 Q167 391 145.5 381.5 Q124 372 108 355 L69 415 Q93 450 122.5 463.5 Q152 477 186 477 Q209 477 232 471.5 Q255 466 289 455 Q350 434 383 434 Q428 434 462 470 L501 410 Q456 348 384 348 Q361 348 337.5 353.5 Q314 359 282 370 Z M282 192 Q252 202 230.5 207.5 Q209 213 189 213 Q167 213 145.5 203.5 Q124 194 108 177 L69 237 Q113 300 186 300 Q209 300 230 294.5 Q251 289 289 277 Q350 256 383 256 Q428 256 462 292 L501 232 Q456 170 384 170 Q361 170 337.5 175.5 Q314 181 282 192 Z " />
<glyph glyph-name="asciitilde" unicode="&#x7e;" horiz-adv-x="570" d="M306 377 Q330 363 344.5 356.5 Q359 350 373 350 Q400 350 412 367.5 Q424 385 424 413 L501 413 Q501 348 471 304.5 Q441 261 378 261 Q354 261 334.5 269 Q315 277 285 294 Q259 310 240 317.5 Q221 325 200 325 Q174 325 160 307 Q146 289 146 262 L69 262 Q69 298 82.5 333 Q96 368 125 391 Q154 414 199 414 Q227 414 250.5 404.5 Q274 395 306 377 Z " />
<glyph glyph-name="divide" unicode="&#xf7;" horiz-adv-x="570" d="M501 370 L501 278 L69 278 L69 370 L501 370 Z M213 141 Q213 171 234 191.5 Q255 212 285 212 Q315 212 336.5 191.5 Q358 171 358 141 Q358 110 336.5 89 Q315 68 285 68 Q256 68 234.5 89.5 Q213 111 213 141 Z M213 503 Q213 533 234 553.5 Q255 574 285 574 Q315 574 336.5 553.5 Q358 533 358 503 Q358 472 336.5 451 Q315 430 285 430 Q256 430 234.5 451.5 Q213 473 213 503 Z " />
<glyph glyph-name="equal" unicode="&#x3d;" horiz-adv-x="570" d="M501 282 L501 190 L69 190 L69 282 L501 282 Z M501 458 L501 366 L69 366 L69 458 L501 458 Z " />
<glyph glyph-name="greater" unicode="&#x3e;" horiz-adv-x="570" d="M501 388 L501 290 L69 149 L69 248 L379 337 L69 426 L69 525 L501 388 Z " />
<glyph glyph-name="greaterequal" unicode="&#x2265;" horiz-adv-x="570" d="M501 388 L501 290 L69 149 L69 248 L379 337 L69 426 L69 525 L501 388 Z M501 28 L69 28 L69 120 L501 120 L501 28 Z " />
<glyph glyph-name="less" unicode="&#x3c;" horiz-adv-x="570" d="M501 426 L191 337 L501 248 L501 149 L69 290 L69 388 L501 525 L501 426 Z " />
<glyph glyph-name="lessequal" unicode="&#x2264;" horiz-adv-x="570" d="M501 120 L501 28 L69 28 L69 120 L501 120 Z M501 426 L191 337 L501 248 L501 149 L69 290 L69 388 L501 525 L501 426 Z " />
<glyph glyph-name="logicalnot" unicode="&#xac;" horiz-adv-x="570" d="M501 127 L405 127 L405 278 L69 278 L69 370 L501 370 L501 127 Z " />
<glyph glyph-name="minus" unicode="&#x2212;" horiz-adv-x="570" d="M501 370 L501 278 L69 278 L69 370 L501 370 Z " />
<glyph glyph-name="multiply" unicode="&#xd7;" horiz-adv-x="570" d="M351 324 L501 174 L436 108 L285 258 L135 108 L69 174 L219 324 L69 475 L135 540 L285 390 L436 540 L501 475 L351 324 Z " />
<glyph glyph-name="notequal" unicode="&#x2260;" horiz-adv-x="570" d="M346 368 L310 280 L501 280 L501 188 L271 188 L236 103 L149 103 L184 188 L69 188 L69 280 L222 280 L258 368 L69 368 L69 460 L296 460 L333 549 L421 549 L384 460 L501 460 L501 368 L346 368 Z " />
<glyph glyph-name="percent" unicode="&#x25;" horiz-adv-x="830" d="M33 516 Q33 573 55.5 612 Q78 651 115.5 670 Q153 689 196 689 Q239 689 276.5 670 Q314 651 337 612 Q360 573 360 516 Q360 460 337 421 Q314 382 276.5 363 Q239 344 196 344 Q153 344 115.5 363 Q78 382 55.5 421 Q33 460 33 516 Z M262 0 L173 0 L567 680 L657 680 L262 0 Z M274 516 Q274 562 252.5 588 Q231 614 196 614 Q161 614 139.5 588 Q118 562 118 516 Q118 470 139.5 444.5 Q161 419 196 419 Q231 419 252.5 444.5 Q274 470 274 516 Z M471 165 Q471 221 493.5 260 Q516 299 553.5 318.5 Q591 338 634 338 Q677 338 714.5 318.5 Q752 299 775 260 Q798 221 798 165 Q798 108 775 69 Q752 30 714.5 11 Q677 -8 634 -8 Q591 -8 553.5 11 Q516 30 493.5 69 Q471 108 471 165 Z M712 165 Q712 211 690.5 237 Q669 263 634 263 Q599 263 577.5 237 Q556 211 556 165 Q556 119 577.5 93 Q599 67 634 67 Q669 67 690.5 93 Q712 119 712 165 Z " />
<glyph glyph-name="perthousand" unicode="&#x2030;" horiz-adv-x="1200" d="M33 516 Q33 573 55.5 612 Q78 651 115.5 670 Q153 689 196 689 Q239 689 276.5 670 Q314 651 337 612 Q360 573 360 516 Q360 460 337 421 Q314 382 276.5 363 Q239 344 196 344 Q153 344 115.5 363 Q78 382 55.5 421 Q33 460 33 516 Z M262 0 L173 0 L567 680 L657 680 L262 0 Z M274 516 Q274 562 252.5 588 Q231 614 196 614 Q161 614 139.5 588 Q118 562 118 516 Q118 470 139.5 444.5 Q161 419 196 419 Q231 419 252.5 444.5 Q274 470 274 516 Z M471 165 Q471 221 493.5 260 Q516 299 553.5 318.5 Q591 338 634 338 Q677 338 714.5 318.5 Q752 299 775 260 Q798 221 798 165 Q798 108 775 69 Q752 30 714.5 11 Q677 -8 634 -8 Q591 -8 553.5 11 Q516 30 493.5 69 Q471 108 471 165 Z M841 165 Q841 221 863.5 260 Q886 299 923.5 318.5 Q961 338 1004 338 Q1047 338 1084.5 318.5 Q1122 299 1145 260 Q1168 221 1168 165 Q1168 108 1145 69 Q1122 30 1084.5 11 Q1047 -8 1004 -8 Q961 -8 923.5 11 Q886 30 863.5 69 Q841 108 841 165 Z M712 165 Q712 211 690.5 237 Q669 263 634 263 Q599 263 577.5 237 Q556 211 556 165 Q556 119 577.5 93 Q599 67 634 67 Q669 67 690.5 93 Q712 119 712 165 Z M1082 165 Q1082 211 1060.5 237 Q1039 263 1004 263 Q969 263 947.5 237 Q926 211 926 165 Q926 119 947.5 93 Q969 67 1004 67 Q1039 67 1060.5 93 Q1082 119 1082 165 Z " />
<glyph glyph-name="plus" unicode="&#x2b;" horiz-adv-x="570" d="M501 278 L332 278 L332 108 L238 108 L238 278 L69 278 L69 370 L238 370 L238 540 L332 540 L332 370 L501 370 L501 278 Z " />
<glyph glyph-name="plusminus" unicode="&#xb1;" horiz-adv-x="570" d="M501 439 L501 346 L332 346 L332 176 L238 176 L238 346 L69 346 L69 439 L238 439 L238 609 L332 609 L332 439 L501 439 Z M69 110 L501 110 L501 18 L69 18 L69 110 Z " />
<glyph glyph-name="bar" unicode="&#x7c;" horiz-adv-x="336" d="M217 -79 L119 -79 L119 736 L217 736 L217 -79 Z " />
<glyph glyph-name="brokenbar" unicode="&#xa6;" horiz-adv-x="336" d="M119 736 L217 736 L217 402 L119 402 L119 736 Z M217 -79 L119 -79 L119 255 L217 255 L217 -79 Z " />
<glyph glyph-name="at" unicode="&#x40;" horiz-adv-x="863" d="M600 445 L600 193 Q600 152 615 133 Q630 114 653 114 Q690 114 709 156.5 Q728 199 728 283 Q728 369 690.5 433.5 Q653 498 586 533.5 Q519 569 433 569 Q346 569 279 530.5 Q212 492 174.5 420 Q137 348 137 251 Q137 154 177 83 Q217 12 285.5 -25.5 Q354 -63 439 -63 Q494 -63 535.5 -52 Q577 -41 616 -16 L660 -80 Q610 -115 558.5 -128 Q507 -141 437 -141 Q328 -141 239.5 -91.5 Q151 -42 100 47.5 Q49 137 49 251 Q49 368 99 458 Q149 548 236.5 597.5 Q324 647 434 647 Q544 647 630.5 600.5 Q717 554 765.5 471 Q814 388 814 283 Q814 168 771 106 Q728 44 650 44 Q608 44 576 63 Q544 82 532 118 Q519 83 486 63.5 Q453 44 413 44 Q365 44 326 68 Q287 92 264 138.5 Q241 185 241 249 Q241 312 263 358.5 Q285 405 321.5 429.5 Q358 454 402 454 Q443 454 471.5 438.5 Q500 423 514 394 L514 445 L600 445 Z M509 249 Q509 311 486.5 343.5 Q464 376 423 376 Q382 376 358 343 Q334 310 334 249 Q334 187 358 154.5 Q382 122 422 122 Q464 122 486.5 155.5 Q509 189 509 249 Z " />
<glyph glyph-name="ampersand" unicode="&#x26;" horiz-adv-x="593" d="M604 0 L468 0 Q460 5 435 30 Q374 -9 291 -9 Q208 -9 151.5 20 Q95 49 68 97.5 Q41 146 41 205 Q41 332 149 407 Q118 474 118 519 Q118 597 162 644 Q206 691 285 691 Q367 691 408.5 645 Q450 599 454 535 L455 520 L351 520 Q348 555 331.5 574.5 Q315 594 286 594 Q258 594 243 575 Q228 556 228 523 Q228 471 286 380 Q344 289 431 185 Q450 230 450 296 L450 311 L553 311 L553 291 Q553 178 505 101 Q573 27 604 0 Z M366 104 Q257 226 195 325 Q152 280 152 214 Q152 157 189 121.5 Q226 86 289 86 Q333 86 366 104 Z " />
<glyph glyph-name="paragraph" unicode="&#xb6;" horiz-adv-x="606" d="M526 -170 L459 -170 L459 614 L357 614 L357 -170 L291 -170 L291 274 L249 274 Q193 274 147.5 298.5 Q102 323 75.5 366.5 Q49 410 49 465 L49 490 Q49 545 75.5 588.5 Q102 632 147.5 656 Q193 680 249 680 L526 680 L526 -170 Z " />
<glyph glyph-name="copyright" unicode="&#xa9;" horiz-adv-x="805" d="M49 340 Q49 441 93.5 521 Q138 601 219 646 Q300 691 403 691 Q506 691 586.5 646 Q667 601 711.5 521 Q756 441 756 340 Q756 239 711.5 159 Q667 79 586.5 34 Q506 -11 403 -11 Q300 -11 219 34 Q138 79 93.5 159 Q49 239 49 340 Z M685 340 Q685 425 649.5 491 Q614 557 550 593.5 Q486 630 403 630 Q320 630 255.5 593.5 Q191 557 155.5 491 Q120 425 120 340 Q120 255 155.5 189 Q191 123 255.5 86.5 Q320 50 403 50 Q486 50 550 86.5 Q614 123 649.5 189 Q685 255 685 340 Z M227 324 L227 356 Q227 414 251 456.5 Q275 499 315 520.5 Q355 542 403 542 Q448 542 485 525 Q522 508 543.5 479 Q565 450 568 417 L569 404 L490 404 Q485 436 462.5 455 Q440 474 405 474 Q357 474 331.5 440 Q306 406 306 351 L306 330 Q306 274 331 240.5 Q356 207 405 207 Q442 207 463.5 226.5 Q485 246 490 282 L569 282 L568 269 Q564 215 519.5 177 Q475 139 402 139 Q354 139 314 161.5 Q274 184 250.5 226 Q227 268 227 324 Z " />
<glyph glyph-name="registered" unicode="&#xae;" horiz-adv-x="470" d="M436 558 Q436 501 410.5 455 Q385 409 339 383 Q293 357 235 357 Q177 357 131.5 383 Q86 409 60.5 455 Q35 501 35 558 Q35 615 60.5 661 Q86 707 131.5 733 Q177 759 235 759 Q293 759 339 733 Q385 707 410.5 661 Q436 615 436 558 Z M392 558 Q392 628 349 674 Q306 720 235 720 Q164 720 121.5 674 Q79 628 79 558 Q79 488 121.5 442 Q164 396 235 396 Q306 396 349 442 Q392 488 392 558 Z M275 543 Q308 494 325 454 L279 454 Q262 493 233 539 L205 539 L205 454 L163 454 L163 671 L246 671 Q277 671 298.5 654 Q320 637 320 604 Q320 580 308.5 565.5 Q297 551 275 543 Z M206 573 L239 573 Q259 573 268.5 580.5 Q278 588 278 604 Q278 636 239 636 L206 636 L206 573 Z " />
<glyph glyph-name="section" unicode="&#xa7;" horiz-adv-x="526" d="M394 116 Q436 77 436 14 Q436 -27 415.5 -61 Q395 -95 356.5 -115 Q318 -135 266 -135 Q180 -135 133 -95 Q86 -55 83 3 L82 21 L180 21 Q182 -14 203.5 -35 Q225 -56 266 -56 Q301 -56 322 -38 Q343 -20 343 8 Q343 40 320.5 58 Q298 76 249 98 L216 113 L196 122 Q138 150 107.5 169.5 Q77 189 56.5 220 Q36 251 36 298 Q36 346 60 382 Q84 418 127 439 Q84 480 84 542 Q84 583 104.5 617 Q125 651 163.5 671 Q202 691 255 691 Q312 691 353 671.5 Q394 652 415 620.5 Q436 589 438 552 L439 534 L340 534 Q338 569 316.5 590 Q295 611 254 611 Q219 611 198.5 593 Q178 575 178 547 Q178 515 200.5 497.5 Q223 480 272 458 L304 443 L323 434 Q381 406 412.5 386 Q444 366 464.5 335 Q485 304 485 258 Q485 210 460.5 174 Q436 138 394 116 Z M326 161 Q353 173 370.5 196 Q388 219 388 247 Q388 277 371 298.5 Q354 320 329.5 333 Q305 346 264 363 L234 376 Q211 386 194 395 Q167 382 150 359.5 Q133 337 133 309 Q133 265 165 240.5 Q197 216 258 192 L286 180 L326 161 Z " />
<glyph glyph-name="trademark" unicode="&#x2122;" horiz-adv-x="737" d="M34 680 L288 680 L288 614 L198 614 L198 384 L124 384 L124 614 L34 614 L34 680 Z M690 680 L690 384 L622 384 L622 595 Q597 538 538 441 Q531 430 521 430 L504 430 Q499 430 495.5 432.5 Q492 435 491 437.5 Q490 440 489 441 Q431 534 404 594 L404 384 L336 384 L336 680 L428 680 Q472 589 514 521 Q561 604 595 680 L690 680 Z " />
<glyph glyph-name="degree" unicode="&#xb0;" horiz-adv-x="336" d="M34 560 Q34 617 72.5 654.5 Q111 692 168 692 Q225 692 263.5 654.5 Q302 617 302 560 Q302 503 263.5 465.5 Q225 428 168 428 Q111 428 72.5 465.5 Q34 503 34 560 Z M237 560 Q237 591 217.5 610 Q198 629 168 629 Q138 629 118.5 610 Q99 591 99 560 Q99 529 118.5 510 Q138 491 168 491 Q198 491 217.5 510 Q237 529 237 560 Z " />
<glyph glyph-name="asciicircum" unicode="&#x5e;" horiz-adv-x="570" d="M419 264 L285 559 L149 264 L43 264 L234 680 L336 680 L528 264 L419 264 Z " />
<glyph glyph-name="dagger" unicode="&#x2020;" horiz-adv-x="466" d="M420 397 L285 397 L285 -95 L179 -95 L179 397 L46 397 L46 490 L179 490 L179 680 L285 680 L285 490 L420 490 L420 397 Z " />
<glyph glyph-name="daggerdbl" unicode="&#x2021;" horiz-adv-x="466" d="M281 397 L281 236 L420 236 L420 143 L281 143 L281 -95 L183 -95 L183 143 L46 143 L46 236 L183 236 L183 397 L46 397 L46 490 L183 490 L183 680 L281 680 L281 490 L420 490 L420 397 L281 397 Z " />
<glyph glyph-name="uni0308" unicode="&#x308;" d="M-348 627 Q-348 654 -329.5 671.5 Q-311 689 -284 689 Q-257 689 -238.5 671.5 Q-220 654 -220 627 Q-220 600 -238.5 582 Q-257 564 -284 564 Q-311 564 -329.5 582 Q-348 600 -348 627 Z M-163 627 Q-163 654 -144.5 671.5 Q-126 689 -99 689 Q-71 689 -52.5 671.5 Q-34 654 -34 627 Q-34 600 -52.5 582 Q-71 564 -99 564 Q-126 564 -144.5 582 Q-163 600 -163 627 Z " />
<glyph glyph-name="uni0307" unicode="&#x307;" d="M-166 627 Q-166 655 -147 673 Q-128 691 -100 691 Q-72 691 -53 673 Q-34 655 -34 627 Q-34 600 -53.5 582 Q-73 564 -100 564 Q-128 564 -147 582 Q-166 600 -166 627 Z " />
<glyph glyph-name="gravecomb" unicode="&#x300;" d="M-101 682 Q-62 629 -34 560 L-126 560 Q-178 635 -220 682 L-101 682 Z " />
<glyph glyph-name="acutecomb" unicode="&#x301;" d="M-125 560 L-220 560 Q-192 629 -153 682 L-34 682 Q-70 638 -125 560 Z " />
<glyph glyph-name="uni030B" unicode="&#x30b;" d="M-272 560 L-355 560 Q-337 608 -299 680 L-194 680 Q-231 636 -272 560 Z M-123 560 L-206 560 Q-174 628 -139 680 L-34 680 Q-58 650 -123 560 Z " />
<glyph glyph-name="uni0302" unicode="&#x302;" d="M-121 560 Q-147 603 -179 637 Q-214 597 -237 560 L-323 560 Q-310 590 -291 622 Q-272 654 -251 680 L-106 680 Q-64 628 -34 560 L-121 560 Z " />
<glyph glyph-name="uni030C" unicode="&#x30c;" d="M-34 680 Q-64 612 -106 560 L-251 560 Q-272 586 -291 618 Q-310 650 -323 680 L-237 680 Q-214 643 -179 603 Q-147 637 -121 680 L-34 680 Z " />
<glyph glyph-name="uni0306" unicode="&#x306;" d="M-33 680 Q-33 623 -70.5 590 Q-108 557 -169 557 Q-231 557 -268 589.5 Q-305 622 -305 680 L-227 680 Q-227 656 -213.5 637.5 Q-200 619 -169 619 Q-138 619 -124.5 637.5 Q-111 656 -111 680 L-33 680 L-33 680 Z " />
<glyph glyph-name="uni030A" unicode="&#x30a;" d="M-248 639 Q-248 683 -218.5 710.5 Q-189 738 -141 738 Q-93 738 -63.5 710.5 Q-34 683 -34 639 Q-34 596 -64 568 Q-94 540 -141 540 Q-189 540 -218.5 568 Q-248 596 -248 639 Z M-90 639 Q-90 661 -103.5 675.5 Q-117 690 -141 690 Q-165 690 -178.5 675.5 Q-192 661 -192 639 Q-192 617 -178.5 602.5 Q-165 588 -141 588 Q-117 588 -103.5 602.5 Q-90 617 -90 639 Z " />
<glyph glyph-name="tildecomb" unicode="&#x303;" d="M-120 560 Q-142 560 -159.5 567 Q-177 574 -199 586 Q-214 595 -225 599.5 Q-236 604 -247 604 Q-265 604 -273 593 Q-281 582 -283 560 L-340 560 Q-339 616 -315 646 Q-291 676 -249 676 Q-230 676 -213 669 Q-196 662 -176 650 Q-160 641 -148.5 636 Q-137 631 -126 631 Q-109 631 -100.5 644 Q-92 657 -91 676 L-33 676 Q-35 619 -57 589.5 Q-79 560 -120 560 Z " />
<glyph glyph-name="uni0304" unicode="&#x304;" d="M-34 656 L-34 575 L-286 575 L-286 656 L-34 656 Z " />
<glyph glyph-name="uni0312" unicode="&#x312;" d="M-49 567 L-147 567 Q-146 614 -133 648.5 Q-120 683 -99 715 L-34 715 Q-49 634 -49 567 Z " />
<glyph glyph-name="uni0326" unicode="&#x326;" d="M-132 -52 L-34 -52 Q-35 -99 -48 -133.5 Q-61 -168 -82 -200 L-147 -200 Q-132 -119 -132 -52 Z " />
<glyph glyph-name="uni0327" unicode="&#x327;" d="M-33 -116 Q-33 -156 -61 -178 Q-89 -200 -136 -200 Q-165 -200 -191 -191.5 Q-217 -183 -234 -168 L-205 -121 Q-175 -143 -139 -143 Q-99 -143 -99 -114 Q-99 -101 -111.5 -94 Q-124 -87 -144 -87 Q-160 -87 -177 -92 L-195 -69 L-158 9 L-98 9 L-121 -38 Q-81 -40 -57 -60 Q-33 -80 -33 -116 Z " />
<glyph glyph-name="uni0328" unicode="&#x328;" d="M-34 0 Q-91 -32 -91 -72 Q-91 -105 -45 -105 L-37 -105 L-37 -174 Q-51 -177 -70 -177 Q-119 -177 -146 -155.5 Q-173 -134 -173 -95 Q-173 -54 -144.5 -25 Q-116 4 -72 21 L-34 0 Z " />
<glyph glyph-name="uni0335" unicode="&#x335;" d="M-34 273 L-34 196 L-334 196 L-334 273 L-34 273 Z " />
<glyph glyph-name="uni0336" unicode="&#x336;" d="M-34 274 L-34 194 L-489 194 L-489 274 L-34 274 Z " />
<glyph glyph-name="uni0337" unicode="&#x337;" d="M-279 311 L-279 403 L-45 546 L-45 453 L-279 311 Z " />
<glyph glyph-name="uni0338" unicode="&#x338;" d="M-380 -32 L-447 0 L-81 712 L-14 680 L-380 -32 Z " />
<glyph glyph-name="acute" unicode="&#xb4;" horiz-adv-x="254" d="M129 560 L34 560 Q62 629 101 682 L220 682 Q184 638 129 560 Z " />
<glyph glyph-name="breve" unicode="&#x2d8;" horiz-adv-x="339" d="M306 680 Q306 623 268.5 590 Q231 557 170 557 Q108 557 71 589.5 Q34 622 34 680 L112 680 Q112 656 125.5 637.5 Q139 619 170 619 Q201 619 214.5 637.5 Q228 656 228 680 L306 680 L306 680 Z " />
<glyph glyph-name="caron" unicode="&#x2c7;" horiz-adv-x="357" d="M323 680 Q293 612 251 560 L106 560 Q85 586 66 618 Q47 650 34 680 L120 680 Q143 643 178 603 Q210 637 236 680 L323 680 Z " />
<glyph glyph-name="cedilla" unicode="&#xb8;" horiz-adv-x="268" d="M235 -116 Q235 -156 207 -178 Q179 -200 132 -200 Q103 -200 77 -191.5 Q51 -183 34 -168 L63 -121 Q93 -143 129 -143 Q169 -143 169 -114 Q169 -101 156.5 -94 Q144 -87 124 -87 Q108 -87 91 -92 L73 -69 L110 9 L170 9 L147 -38 Q187 -40 211 -60 Q235 -80 235 -116 Z " />
<glyph glyph-name="circumflex" unicode="&#x2c6;" horiz-adv-x="357" d="M236 560 Q210 603 178 637 Q143 597 120 560 L34 560 Q47 590 66 622 Q85 654 106 680 L251 680 Q293 628 323 560 L236 560 Z " />
<glyph glyph-name="dieresis" unicode="&#xa8;" horiz-adv-x="382" d="M34 627 Q34 654 52.5 671.5 Q71 689 98 689 Q125 689 143.5 671.5 Q162 654 162 627 Q162 600 143.5 582 Q125 564 98 564 Q71 564 52.5 582 Q34 600 34 627 Z M219 627 Q219 654 237.5 671.5 Q256 689 283 689 Q311 689 329.5 671.5 Q348 654 348 627 Q348 600 329.5 582 Q311 564 283 564 Q256 564 237.5 582 Q219 600 219 627 Z " />
<glyph glyph-name="dotaccent" unicode="&#x2d9;" horiz-adv-x="200" d="M34 627 Q34 655 53 673 Q72 691 100 691 Q128 691 147 673 Q166 655 166 627 Q166 600 146.5 582 Q127 564 100 564 Q72 564 53 582 Q34 600 34 627 Z " />
<glyph glyph-name="grave" unicode="&#x60;" horiz-adv-x="254" d="M153 682 Q192 629 220 560 L128 560 Q76 635 34 682 L153 682 Z " />
<glyph glyph-name="hungarumlaut" unicode="&#x2dd;" horiz-adv-x="389" d="M117 560 L34 560 Q52 608 90 680 L195 680 Q158 636 117 560 Z M266 560 L183 560 Q215 628 250 680 L355 680 Q331 650 266 560 Z " />
<glyph glyph-name="overscore" unicode="&#xaf;" horiz-adv-x="320" d="M286 656 L286 575 L34 575 L34 656 L286 656 Z " />
<glyph glyph-name="ogonek" unicode="&#x2db;" horiz-adv-x="207" d="M173 0 Q116 -32 116 -72 Q116 -105 162 -105 L170 -105 L170 -174 Q156 -177 137 -177 Q88 -177 61 -155.5 Q34 -134 34 -95 Q34 -54 62.5 -25 Q91 4 135 21 L173 0 Z " />
<glyph glyph-name="ring" unicode="&#x2da;" horiz-adv-x="282" d="M34 639 Q34 683 63.5 710.5 Q93 738 141 738 Q189 738 218.5 710.5 Q248 683 248 639 Q248 596 218 568 Q188 540 141 540 Q93 540 63.5 568 Q34 596 34 639 Z M192 639 Q192 661 178.5 675.5 Q165 690 141 690 Q117 690 103.5 675.5 Q90 661 90 639 Q90 617 103.5 602.5 Q117 588 141 588 Q165 588 178.5 602.5 Q192 617 192 639 Z " />
<glyph glyph-name="tilde" unicode="&#x2dc;" horiz-adv-x="374" d="M254 560 Q232 560 214.5 567 Q197 574 175 586 Q160 595 149 599.5 Q138 604 127 604 Q109 604 101 593 Q93 582 91 560 L34 560 Q35 616 59 646 Q83 676 125 676 Q144 676 161 669 Q178 662 198 650 Q214 641 225.5 636 Q237 631 248 631 Q265 631 273.5 644 Q282 657 283 676 L341 676 Q339 619 317 589.5 Q295 560 254 560 Z " />
</font>
</svg>
