<?xml version="1.0" encoding="UTF-8"?>
<svg xmlns="http://www.w3.org/2000/svg" xmlns:xlink="http://www.w3.org/1999/xlink" version="1.2" >
<font id="AIAEverestRegular">
<font-face  font-family="AIA Everest" units-per-em="1000" ascent="750" descent="-250" font-style="normal" font-weight="400" font-stretch="normal" cap-height="680" x-height="485" underline-position="-102" underline-thickness="56" />
<missing-glyph  horiz-adv-x="579" d="M100 780 L479 780 L479 -100 L100 -100 L100 780 Z " />
<glyph glyph-name="space" unicode="&#x20;" horiz-adv-x="230" d="" />
<glyph glyph-name="A" unicode="A" horiz-adv-x="617" d="M456 187 L160 187 Q132 92 107 0 L28 0 Q72 161 135 352 Q198 543 248 659 Q253 671 260 675.5 Q267 680 284 680 L335 680 Q351 680 358.5 675.5 Q366 671 372 659 Q422 549 481 364 Q540 179 589 0 L508 0 Q488 79 456 187 Z M436 254 Q369 473 310 622 Q251 480 180 254 L436 254 Z " />
<glyph glyph-name="Aacute" unicode="&#xc1;" horiz-adv-x="617" d="M456 187 L160 187 Q132 92 107 0 L28 0 Q72 161 135 352 Q198 543 248 659 Q253 671 260 675.5 Q267 680 284 680 L335 680 Q351 680 358.5 675.5 Q366 671 372 659 Q422 549 481 364 Q540 179 589 0 L508 0 Q488 79 456 187 Z M436 254 Q369 473 310 622 Q251 480 180 254 L436 254 Z M341 745 L270 745 Q298 811 337 865 L430 865 Q385 811 341 745 Z " />
<glyph glyph-name="Abreve" unicode="&#x102;" horiz-adv-x="617" d="M456 187 L160 187 Q132 92 107 0 L28 0 Q72 161 135 352 Q198 543 248 659 Q253 671 260 675.5 Q267 680 284 680 L335 680 Q351 680 358.5 675.5 Q366 671 372 659 Q422 549 481 364 Q540 179 589 0 L508 0 Q488 79 456 187 Z M436 254 Q369 473 310 622 Q251 480 180 254 L436 254 Z M433 865 Q433 812 399.5 780 Q366 748 310 748 Q253 748 220 780 Q187 812 187 865 L250 865 Q250 838 263.5 818 Q277 798 310 798 Q343 798 357.5 818 Q372 838 372 865 L433 865 L433 865 Z " />
<glyph glyph-name="Acircumflex" unicode="&#xc2;" horiz-adv-x="617" d="M456 187 L160 187 Q132 92 107 0 L28 0 Q72 161 135 352 Q198 543 248 659 Q253 671 260 675.5 Q267 680 284 680 L335 680 Q351 680 358.5 675.5 Q366 671 372 659 Q422 549 481 364 Q540 179 589 0 L508 0 Q488 79 456 187 Z M436 254 Q369 473 310 622 Q251 480 180 254 L436 254 Z M371 745 Q347 787 310 829 Q275 788 249 745 L187 745 Q215 812 256 865 L365 865 Q403 815 433 745 L371 745 Z " />
<glyph glyph-name="Adieresis" unicode="&#xc4;" horiz-adv-x="617" d="M456 187 L160 187 Q132 92 107 0 L28 0 Q72 161 135 352 Q198 543 248 659 Q253 671 260 675.5 Q267 680 284 680 L335 680 Q351 680 358.5 675.5 Q366 671 372 659 Q422 549 481 364 Q540 179 589 0 L508 0 Q488 79 456 187 Z M436 254 Q369 473 310 622 Q251 480 180 254 L436 254 Z M168 811 Q168 833 183 848 Q198 863 221 863 Q244 863 259.5 848 Q275 833 275 811 Q275 789 259.5 774 Q244 759 221 759 Q198 759 183 774 Q168 789 168 811 Z M347 811 Q347 833 362 848 Q377 863 400 863 Q423 863 438 848 Q453 833 453 811 Q453 789 438 774 Q423 759 400 759 Q377 759 362 774 Q347 789 347 811 Z " />
<glyph glyph-name="Agrave" unicode="&#xc0;" horiz-adv-x="617" d="M456 187 L160 187 Q132 92 107 0 L28 0 Q72 161 135 352 Q198 543 248 659 Q253 671 260 675.5 Q267 680 284 680 L335 680 Q351 680 358.5 675.5 Q366 671 372 659 Q422 549 481 364 Q540 179 589 0 L508 0 Q488 79 456 187 Z M436 254 Q369 473 310 622 Q251 480 180 254 L436 254 Z M281 865 Q320 811 348 745 L276 745 Q228 817 188 865 L281 865 Z " />
<glyph glyph-name="Amacron" unicode="&#x100;" horiz-adv-x="617" d="M456 187 L160 187 Q132 92 107 0 L28 0 Q72 161 135 352 Q198 543 248 659 Q253 671 260 675.5 Q267 680 284 680 L335 680 Q351 680 358.5 675.5 Q366 671 372 659 Q422 549 481 364 Q540 179 589 0 L508 0 Q488 79 456 187 Z M436 254 Q369 473 310 622 Q251 480 180 254 L436 254 Z M423 832 L423 769 L197 769 L197 832 L423 832 Z " />
<glyph glyph-name="Aogonek" unicode="&#x104;" horiz-adv-x="617" d="M576 -117 L586 -117 L586 -165 Q573 -168 555 -168 Q514 -168 491 -148.5 Q468 -129 468 -95 Q468 -39 532 0 L508 0 Q488 79 456 187 L160 187 Q132 92 107 0 L28 0 Q72 161 135 352 Q198 543 248 659 Q253 671 260 675.5 Q267 680 284 680 L335 680 Q351 680 358.5 675.5 Q366 671 372 659 Q422 549 481 364 Q540 179 589 0 Q562 -16 544.5 -37 Q527 -58 527 -82 Q527 -117 576 -117 Z M436 254 Q369 473 310 622 Q251 480 180 254 L436 254 Z " />
<glyph glyph-name="Aring" unicode="&#xc5;" horiz-adv-x="617" d="M456 187 L160 187 Q132 92 107 0 L28 0 Q72 161 135 352 Q198 543 248 659 Q253 671 260 675.5 Q267 680 284 680 L335 680 Q351 680 358.5 675.5 Q366 671 372 659 Q422 549 481 364 Q540 179 589 0 L508 0 Q488 79 456 187 Z M436 254 Q369 473 310 622 Q251 480 180 254 L436 254 Z M215 819 Q215 858 242 883.5 Q269 909 310 909 Q352 909 378.5 883.5 Q405 858 405 819 Q405 780 378.5 755 Q352 730 310 730 Q269 730 242 755 Q215 780 215 819 Z M360 819 Q360 841 346.5 855 Q333 869 310 869 Q287 869 273.5 855 Q260 841 260 819 Q260 797 273.5 783 Q287 769 310 769 Q333 769 346.5 783 Q360 797 360 819 Z " />
<glyph glyph-name="Atilde" unicode="&#xc3;" horiz-adv-x="617" d="M456 187 L160 187 Q132 92 107 0 L28 0 Q72 161 135 352 Q198 543 248 659 Q253 671 260 675.5 Q267 680 284 680 L335 680 Q351 680 358.5 675.5 Q366 671 372 659 Q422 549 481 364 Q540 179 589 0 L508 0 Q488 79 456 187 Z M436 254 Q369 473 310 622 Q251 480 180 254 L436 254 Z M375 750 Q354 750 337.5 757.5 Q321 765 298 779 Q281 790 271 795 Q261 800 250 800 Q231 800 222.5 786.5 Q214 773 212 750 L166 750 Q169 857 250 857 Q269 857 285.5 849.5 Q302 842 323 828 Q339 817 349.5 811.5 Q360 806 371 806 Q390 806 398.5 821 Q407 836 408 856 L454 856 Q453 802 433.5 776 Q414 750 375 750 Z " />
<glyph glyph-name="AE" unicode="&#xc6;" horiz-adv-x="860" d="M806 66 L806 0 L385 0 L385 187 L181 187 Q130 62 107 0 L28 0 Q82 144 172.5 347.5 Q263 551 325 658 Q332 670 339.5 675 Q347 680 363 680 L797 680 L797 614 L465 614 L465 379 L774 379 L774 313 L465 313 L465 66 L806 66 Z M385 254 L385 624 Q310 489 209 254 L385 254 Z " />
<glyph glyph-name="B" unicode="B" horiz-adv-x="632" d="M579 190 Q579 97 517.5 48.5 Q456 0 352 0 L96 0 L96 680 L354 680 Q445 680 498.5 632.5 Q552 585 552 504 Q552 449 524.5 410.5 Q497 372 454 357 Q510 340 544.5 297 Q579 254 579 190 Z M175 384 L339 384 Q405 384 439.5 415.5 Q474 447 474 502 Q474 557 438.5 586 Q403 615 337 615 L175 615 L175 384 Z M499 192 Q499 253 458.5 285.5 Q418 318 341 318 L175 318 L175 65 L339 65 Q422 65 460.5 96.5 Q499 128 499 192 Z " />
<glyph glyph-name="C" unicode="C" horiz-adv-x="591" d="M60 320 L60 360 Q60 532 131.5 612 Q203 692 315 692 Q379 692 428 668.5 Q477 645 506.5 606 Q536 567 543 520 L545 507 L466 507 Q448 563 411.5 593 Q375 623 315 623 Q219 623 179.5 548.5 Q140 474 140 357 L140 323 Q140 206 179.5 131.5 Q219 57 315 57 Q377 57 414.5 89.5 Q452 122 467 183 L547 183 L545 170 Q533 90 471.5 39 Q410 -12 315 -12 Q203 -12 131.5 68 Q60 148 60 320 Z " />
<glyph glyph-name="Cacute" unicode="&#x106;" horiz-adv-x="591" d="M60 320 L60 360 Q60 532 131.5 612 Q203 692 315 692 Q379 692 428 668.5 Q477 645 506.5 606 Q536 567 543 520 L545 507 L466 507 Q448 563 411.5 593 Q375 623 315 623 Q219 623 179.5 548.5 Q140 474 140 357 L140 323 Q140 206 179.5 131.5 Q219 57 315 57 Q377 57 414.5 89.5 Q452 122 467 183 L547 183 L545 170 Q533 90 471.5 39 Q410 -12 315 -12 Q203 -12 131.5 68 Q60 148 60 320 Z M352 745 L281 745 Q309 811 348 865 L441 865 Q396 811 352 745 Z " />
<glyph glyph-name="Ccaron" unicode="&#x10c;" horiz-adv-x="591" d="M60 320 L60 360 Q60 532 131.5 612 Q203 692 315 692 Q379 692 428 668.5 Q477 645 506.5 606 Q536 567 543 520 L545 507 L466 507 Q448 563 411.5 593 Q375 623 315 623 Q219 623 179.5 548.5 Q140 474 140 357 L140 323 Q140 206 179.5 131.5 Q219 57 315 57 Q377 57 414.5 89.5 Q452 122 467 183 L547 183 L545 170 Q533 90 471.5 39 Q410 -12 315 -12 Q203 -12 131.5 68 Q60 148 60 320 Z M443 865 Q413 795 375 745 L266 745 Q225 798 197 865 L259 865 Q285 822 320 781 Q357 823 381 865 L443 865 Z " />
<glyph glyph-name="Ccedilla" unicode="&#xc7;" horiz-adv-x="591" d="M547 183 L545 170 Q533 96 477.5 45.5 Q422 -5 336 -11 L323 -39 Q363 -39 386.5 -57.5 Q410 -76 410 -110 Q410 -146 384.5 -167.5 Q359 -189 316 -189 Q260 -189 223 -160 L248 -119 Q278 -141 315 -141 Q334 -141 344.5 -133 Q355 -125 355 -110 Q355 -96 342.5 -88.5 Q330 -81 308 -81 Q291 -81 276 -86 L259 -64 L285 -10 Q184 0 122 80 Q60 160 60 320 L60 360 Q60 532 131.5 612 Q203 692 315 692 Q378 692 427 668.5 Q476 645 506 605.5 Q536 566 543 520 L545 507 L466 507 Q448 563 411.5 593 Q375 623 315 623 Q219 623 179.5 548.5 Q140 474 140 357 L140 323 Q140 206 179.5 131.5 Q219 57 315 57 Q435 57 467 183 L547 183 Z " />
<glyph glyph-name="Cdotaccent" unicode="&#x10a;" horiz-adv-x="591" d="M60 320 L60 360 Q60 532 131.5 612 Q203 692 315 692 Q379 692 428 668.5 Q477 645 506.5 606 Q536 567 543 520 L545 507 L466 507 Q448 563 411.5 593 Q375 623 315 623 Q219 623 179.5 548.5 Q140 474 140 357 L140 323 Q140 206 179.5 131.5 Q219 57 315 57 Q377 57 414.5 89.5 Q452 122 467 183 L547 183 L545 170 Q533 90 471.5 39 Q410 -12 315 -12 Q203 -12 131.5 68 Q60 148 60 320 Z M269 812 Q269 834 284 848.5 Q299 863 321 863 Q343 863 357.5 848.5 Q372 834 372 812 Q372 790 357.5 775.5 Q343 761 321 761 Q299 761 284 775.5 Q269 790 269 812 Z " />
<glyph glyph-name="D" unicode="D" horiz-adv-x="640" d="M96 680 L288 680 Q415 680 497.5 603 Q580 526 580 355 L580 325 Q580 155 497 77.5 Q414 0 288 0 L96 0 L96 680 Z M283 66 Q387 66 444 131 Q501 196 501 328 L501 352 Q501 485 444 549.5 Q387 614 283 614 L175 614 L175 66 L283 66 Z " />
<glyph glyph-name="Eth" unicode="&#xd0;" horiz-adv-x="652" d="M592 355 L592 325 Q592 155 510 77.5 Q428 0 303 0 L108 0 L108 313 L40 313 L40 372 L108 372 L108 680 L303 680 Q428 680 510 603 Q592 526 592 355 Z M513 352 Q513 485 455.5 549.5 Q398 614 292 614 L187 614 L187 372 L322 372 L322 313 L187 313 L187 66 L292 66 Q397 66 455 131 Q513 196 513 328 L513 352 Z " />
<glyph glyph-name="Dcaron" unicode="&#x10e;" horiz-adv-x="640" d="M96 680 L288 680 Q415 680 497.5 603 Q580 526 580 355 L580 325 Q580 155 497 77.5 Q414 0 288 0 L96 0 L96 680 Z M283 66 Q387 66 444 131 Q501 196 501 328 L501 352 Q501 485 444 549.5 Q387 614 283 614 L175 614 L175 66 L283 66 Z M424 865 Q394 795 356 745 L247 745 Q206 798 178 865 L240 865 Q266 822 301 781 Q338 823 362 865 L424 865 Z " />
<glyph glyph-name="Dcroat" unicode="&#x110;" horiz-adv-x="652" d="M592 355 L592 325 Q592 155 510 77.5 Q428 0 303 0 L108 0 L108 313 L40 313 L40 372 L108 372 L108 680 L303 680 Q428 680 510 603 Q592 526 592 355 Z M513 352 Q513 485 455.5 549.5 Q398 614 292 614 L187 614 L187 372 L322 372 L322 313 L187 313 L187 66 L292 66 Q397 66 455 131 Q513 196 513 328 L513 352 Z " />
<glyph glyph-name="E" unicode="E" horiz-adv-x="570" d="M517 66 L517 0 L96 0 L96 680 L508 680 L508 614 L175 614 L175 379 L485 379 L485 313 L175 313 L175 66 L517 66 Z " />
<glyph glyph-name="Eacute" unicode="&#xc9;" horiz-adv-x="570" d="M517 66 L517 0 L96 0 L96 680 L508 680 L508 614 L175 614 L175 379 L485 379 L485 313 L175 313 L175 66 L517 66 Z M338 745 L267 745 Q295 811 334 865 L427 865 Q382 811 338 745 Z " />
<glyph glyph-name="Ecaron" unicode="&#x11a;" horiz-adv-x="570" d="M517 66 L517 0 L96 0 L96 680 L508 680 L508 614 L175 614 L175 379 L485 379 L485 313 L175 313 L175 66 L517 66 Z M429 865 Q399 795 361 745 L252 745 Q211 798 183 865 L245 865 Q271 822 306 781 Q343 823 367 865 L429 865 Z " />
<glyph glyph-name="Ecircumflex" unicode="&#xca;" horiz-adv-x="570" d="M517 66 L517 0 L96 0 L96 680 L508 680 L508 614 L175 614 L175 379 L485 379 L485 313 L175 313 L175 66 L517 66 Z M367 745 Q343 787 306 829 Q271 788 245 745 L183 745 Q211 812 252 865 L361 865 Q399 815 429 745 L367 745 Z " />
<glyph glyph-name="Edieresis" unicode="&#xcb;" horiz-adv-x="570" d="M517 66 L517 0 L96 0 L96 680 L508 680 L508 614 L175 614 L175 379 L485 379 L485 313 L175 313 L175 66 L517 66 Z M164 811 Q164 833 179 848 Q194 863 217 863 Q240 863 255.5 848 Q271 833 271 811 Q271 789 255.5 774 Q240 759 217 759 Q194 759 179 774 Q164 789 164 811 Z M343 811 Q343 833 358 848 Q373 863 396 863 Q419 863 434 848 Q449 833 449 811 Q449 789 434 774 Q419 759 396 759 Q373 759 358 774 Q343 789 343 811 Z " />
<glyph glyph-name="Edotaccent" unicode="&#x116;" horiz-adv-x="570" d="M517 66 L517 0 L96 0 L96 680 L508 680 L508 614 L175 614 L175 379 L485 379 L485 313 L175 313 L175 66 L517 66 Z M255 812 Q255 834 270 848.5 Q285 863 307 863 Q329 863 343.5 848.5 Q358 834 358 812 Q358 790 343.5 775.5 Q329 761 307 761 Q285 761 270 775.5 Q255 790 255 812 Z " />
<glyph glyph-name="Egrave" unicode="&#xc8;" horiz-adv-x="570" d="M517 66 L517 0 L96 0 L96 680 L508 680 L508 614 L175 614 L175 379 L485 379 L485 313 L175 313 L175 66 L517 66 Z M277 865 Q316 811 344 745 L272 745 Q224 817 184 865 L277 865 Z " />
<glyph glyph-name="Emacron" unicode="&#x112;" horiz-adv-x="570" d="M517 66 L517 0 L96 0 L96 680 L508 680 L508 614 L175 614 L175 379 L485 379 L485 313 L175 313 L175 66 L517 66 Z M420 832 L420 769 L194 769 L194 832 L420 832 Z " />
<glyph glyph-name="Eogonek" unicode="&#x118;" horiz-adv-x="570" d="M455 -81 Q455 -117 503 -117 L514 -117 L514 -165 Q501 -168 483 -168 Q442 -168 419 -148 Q396 -128 396 -94 Q396 -38 458 0 L96 0 L96 680 L508 680 L508 614 L175 614 L175 379 L485 379 L485 313 L175 313 L175 66 L517 66 L517 0 Q455 -38 455 -81 Z " />
<glyph glyph-name="F" unicode="F" horiz-adv-x="559" d="M175 614 L175 379 L485 379 L485 313 L175 313 L175 0 L96 0 L96 680 L508 680 L508 614 L175 614 Z " />
<glyph glyph-name="G" unicode="G" horiz-adv-x="622" d="M60 320 L60 360 Q60 532 133 612 Q206 692 321 692 Q386 692 435.5 668.5 Q485 645 513.5 607.5 Q542 570 549 528 L551 515 L472 515 Q454 567 418.5 595 Q383 623 320 623 Q222 623 181 548.5 Q140 474 140 357 L140 323 Q140 206 181 131.5 Q222 57 320 57 Q407 57 445 109 Q483 161 483 258 L483 289 L321 289 L321 355 L562 355 L562 255 Q562 117 495.5 52.5 Q429 -12 321 -12 Q206 -12 133 68 Q60 148 60 320 Z " />
<glyph glyph-name="Gbreve" unicode="&#x11e;" horiz-adv-x="622" d="M60 320 L60 360 Q60 532 133 612 Q206 692 321 692 Q386 692 435.5 668.5 Q485 645 513.5 607.5 Q542 570 549 528 L551 515 L472 515 Q454 567 418.5 595 Q383 623 320 623 Q222 623 181 548.5 Q140 474 140 357 L140 323 Q140 206 181 131.5 Q222 57 320 57 Q407 57 445 109 Q483 161 483 258 L483 289 L321 289 L321 355 L562 355 L562 255 Q562 117 495.5 52.5 Q429 -12 321 -12 Q206 -12 133 68 Q60 148 60 320 Z M449 865 Q449 812 415.5 780 Q382 748 326 748 Q269 748 236 780 Q203 812 203 865 L266 865 Q266 838 279.5 818 Q293 798 326 798 Q359 798 373.5 818 Q388 838 388 865 L449 865 L449 865 Z " />
<glyph glyph-name="Gcommaaccent" unicode="&#x122;" horiz-adv-x="622" d="M60 320 L60 360 Q60 532 133 612 Q206 692 321 692 Q386 692 435.5 668.5 Q485 645 513.5 607.5 Q542 570 549 528 L551 515 L472 515 Q454 567 418.5 595 Q383 623 320 623 Q222 623 181 548.5 Q140 474 140 357 L140 323 Q140 206 181 131.5 Q222 57 320 57 Q407 57 445 109 Q483 161 483 258 L483 289 L321 289 L321 355 L562 355 L562 255 Q562 117 495.5 52.5 Q429 -12 321 -12 Q206 -12 133 68 Q60 148 60 320 Z M282 -53 L356 -53 Q355 -100 342 -134 Q329 -168 308 -200 L266 -200 Q282 -124 282 -53 Z " />
<glyph glyph-name="Gdotaccent" unicode="&#x120;" horiz-adv-x="622" d="M60 320 L60 360 Q60 532 133 612 Q206 692 321 692 Q386 692 435.5 668.5 Q485 645 513.5 607.5 Q542 570 549 528 L551 515 L472 515 Q454 567 418.5 595 Q383 623 320 623 Q222 623 181 548.5 Q140 474 140 357 L140 323 Q140 206 181 131.5 Q222 57 320 57 Q407 57 445 109 Q483 161 483 258 L483 289 L321 289 L321 355 L562 355 L562 255 Q562 117 495.5 52.5 Q429 -12 321 -12 Q206 -12 133 68 Q60 148 60 320 Z M274 812 Q274 834 289 848.5 Q304 863 326 863 Q348 863 362.5 848.5 Q377 834 377 812 Q377 790 362.5 775.5 Q348 761 326 761 Q304 761 289 775.5 Q274 790 274 812 Z " />
<glyph glyph-name="H" unicode="H" horiz-adv-x="690" d="M594 680 L594 0 L514 0 L514 313 L175 313 L175 0 L96 0 L96 680 L175 680 L175 379 L514 379 L514 680 L594 680 Z " />
<glyph glyph-name="Hbar" unicode="&#x126;" horiz-adv-x="690" d="M640 505 L594 505 L594 0 L514 0 L514 313 L175 313 L175 0 L96 0 L96 505 L50 505 L50 569 L96 569 L96 680 L175 680 L175 569 L514 569 L514 680 L594 680 L594 569 L640 569 L640 505 Z M514 505 L175 505 L175 379 L514 379 L514 505 Z " />
<glyph glyph-name="I" unicode="I" horiz-adv-x="279" d="M179 0 L100 0 L100 680 L179 680 L179 0 Z " />
<glyph glyph-name="Iacute" unicode="&#xcd;" horiz-adv-x="279" d="M179 0 L100 0 L100 680 L179 680 L179 0 Z M170 745 L99 745 Q127 811 166 865 L259 865 Q214 811 170 745 Z " />
<glyph glyph-name="Icircumflex" unicode="&#xce;" horiz-adv-x="279" d="M179 0 L100 0 L100 680 L179 680 L179 0 Z M200 745 Q176 787 139 829 Q104 788 78 745 L16 745 Q44 812 85 865 L194 865 Q232 815 262 745 L200 745 Z " />
<glyph glyph-name="Idieresis" unicode="&#xcf;" horiz-adv-x="279" d="M179 0 L100 0 L100 680 L179 680 L179 0 Z M-3 811 Q-3 833 12 848 Q27 863 50 863 Q73 863 88.5 848 Q104 833 104 811 Q104 789 88.5 774 Q73 759 50 759 Q27 759 12 774 Q-3 789 -3 811 Z M176 811 Q176 833 191 848 Q206 863 229 863 Q252 863 267 848 Q282 833 282 811 Q282 789 267 774 Q252 759 229 759 Q206 759 191 774 Q176 789 176 811 Z " />
<glyph glyph-name="Idot" unicode="&#x130;" horiz-adv-x="279" d="M179 0 L100 0 L100 680 L179 680 L179 0 Z M88 812 Q88 834 103 848.5 Q118 863 140 863 Q162 863 176.5 848.5 Q191 834 191 812 Q191 790 176.5 775.5 Q162 761 140 761 Q118 761 103 775.5 Q88 790 88 812 Z " />
<glyph glyph-name="Igrave" unicode="&#xcc;" horiz-adv-x="279" d="M179 0 L100 0 L100 680 L179 680 L179 0 Z M110 865 Q149 811 177 745 L105 745 Q57 817 17 865 L110 865 Z " />
<glyph glyph-name="Imacron" unicode="&#x12a;" horiz-adv-x="279" d="M179 0 L100 0 L100 680 L179 680 L179 0 Z M252 832 L252 769 L26 769 L26 832 L252 832 Z " />
<glyph glyph-name="Iogonek" unicode="&#x12e;" horiz-adv-x="279" d="M118 -82 Q118 -117 166 -117 L176 -117 L176 -165 Q163 -168 146 -168 Q104 -168 81 -148.5 Q58 -129 58 -95 Q58 -40 122 0 L100 0 L100 680 L179 680 L179 0 Q152 -16 135 -37 Q118 -58 118 -82 Z " />
<glyph glyph-name="J" unicode="J" horiz-adv-x="413" d="M120 61 Q181 61 210.5 93 Q240 125 240 199 L240 680 L320 680 L320 196 Q320 -8 126 -8 Q97 -8 68 -3 Q39 2 22 9 L22 78 Q68 61 120 61 Z " />
<glyph glyph-name="K" unicode="K" horiz-adv-x="618" d="M517 0 Q486 64 424.5 167.5 Q363 271 312 339 Q243 267 175 204 L175 0 L96 0 L96 680 L175 680 L175 295 Q383 505 495 680 L579 680 Q502 548 366 398 Q431 306 501.5 186 Q572 66 600 0 L517 0 Z " />
<glyph glyph-name="Kcommaaccent" unicode="&#x136;" horiz-adv-x="618" d="M517 0 Q486 64 424.5 167.5 Q363 271 312 339 Q243 267 175 204 L175 0 L96 0 L96 680 L175 680 L175 295 Q383 505 495 680 L579 680 Q502 548 366 398 Q431 306 501.5 186 Q572 66 600 0 L517 0 Z M275 -53 L349 -53 Q348 -100 335 -134 Q322 -168 301 -200 L259 -200 Q275 -124 275 -53 Z " />
<glyph glyph-name="L" unicode="L" horiz-adv-x="539" d="M504 66 L504 0 L96 0 L96 680 L175 680 L175 66 L504 66 Z " />
<glyph glyph-name="Lacute" unicode="&#x139;" horiz-adv-x="539" d="M504 66 L504 0 L96 0 L96 680 L175 680 L175 66 L504 66 Z M171 745 L100 745 Q128 811 167 865 L260 865 Q215 811 171 745 Z " />
<glyph glyph-name="Lcaron" unicode="&#x13d;" horiz-adv-x="539" d="M504 66 L504 0 L96 0 L96 680 L175 680 L175 66 L504 66 Z M286 505 L251 505 Q258 542 264 590.5 Q270 639 270 681 L339 681 Q336 578 286 505 Z " />
<glyph glyph-name="Lcommaaccent" unicode="&#x13b;" horiz-adv-x="539" d="M504 66 L504 0 L96 0 L96 680 L175 680 L175 66 L504 66 Z M266 -53 L340 -53 Q339 -100 326 -134 Q313 -168 292 -200 L250 -200 Q266 -124 266 -53 Z " />
<glyph glyph-name="Lslash" unicode="&#x141;" horiz-adv-x="557" d="M522 66 L522 0 L113 0 L113 248 L36 201 L36 266 L113 313 L113 680 L193 680 L193 362 L334 448 L334 381 L193 296 L193 66 L522 66 Z " />
<glyph glyph-name="M" unicode="M" horiz-adv-x="789" d="M693 680 L693 0 L617 0 L617 571 Q516 332 428 174 Q417 155 399 155 L390 155 Q380 155 374 159.5 Q368 164 363 174 Q315 262 263.5 369.5 Q212 477 172 570 L172 0 L96 0 L96 680 L196 680 Q239 583 297 460 Q355 337 397 256 Q442 341 498 463.5 Q554 586 591 680 L693 680 Z " />
<glyph glyph-name="N" unicode="N" horiz-adv-x="692" d="M596 680 L596 0 L526 0 L172 566 L172 0 L96 0 L96 680 L181 680 L520 139 L520 680 L596 680 Z " />
<glyph glyph-name="Nacute" unicode="&#x143;" horiz-adv-x="692" d="M596 680 L596 0 L526 0 L172 566 L172 0 L96 0 L96 680 L181 680 L520 139 L520 680 L596 680 Z M383 745 L312 745 Q340 811 379 865 L472 865 Q427 811 383 745 Z " />
<glyph glyph-name="Ncaron" unicode="&#x147;" horiz-adv-x="692" d="M596 680 L596 0 L526 0 L172 566 L172 0 L96 0 L96 680 L181 680 L520 139 L520 680 L596 680 Z M475 865 Q445 795 407 745 L298 745 Q257 798 229 865 L291 865 Q317 822 352 781 Q389 823 413 865 L475 865 Z " />
<glyph glyph-name="Ncommaaccent" unicode="&#x145;" horiz-adv-x="692" d="M596 680 L596 0 L526 0 L172 566 L172 0 L96 0 L96 680 L181 680 L520 139 L520 680 L596 680 Z M309 -53 L383 -53 Q382 -100 369 -134 Q356 -168 335 -200 L293 -200 Q309 -124 309 -53 Z " />
<glyph glyph-name="Eng" unicode="&#x14a;" horiz-adv-x="692" d="M596 680 L596 -2 Q596 -85 549.5 -127 Q503 -169 424 -169 Q369 -169 342 -155 L342 -87 Q375 -99 419 -99 Q519 -99 519 -3 L519 10 L172 564 L172 0 L96 0 L96 680 L181 680 L520 141 L520 680 L596 680 Z " />
<glyph glyph-name="Ntilde" unicode="&#xd1;" horiz-adv-x="692" d="M596 680 L596 0 L526 0 L172 566 L172 0 L96 0 L96 680 L181 680 L520 139 L520 680 L596 680 Z M417 750 Q396 750 379.5 757.5 Q363 765 340 779 Q323 790 313 795 Q303 800 292 800 Q273 800 264.5 786.5 Q256 773 254 750 L208 750 Q211 857 292 857 Q311 857 327.5 849.5 Q344 842 365 828 Q381 817 391.5 811.5 Q402 806 413 806 Q432 806 440.5 821 Q449 836 450 856 L496 856 Q495 802 475.5 776 Q456 750 417 750 Z " />
<glyph glyph-name="O" unicode="O" horiz-adv-x="643" d="M60 320 L60 360 Q60 532 133 612 Q206 692 322 692 Q437 692 510.5 612 Q584 532 584 360 L584 320 Q584 148 510.5 68 Q437 -12 322 -12 Q206 -12 133 68 Q60 148 60 320 Z M504 323 L504 357 Q504 474 462.5 548.5 Q421 623 322 623 Q222 623 181 548.5 Q140 474 140 357 L140 323 Q140 206 181 131.5 Q222 57 322 57 Q421 57 462.5 131.5 Q504 206 504 323 Z " />
<glyph glyph-name="Oacute" unicode="&#xd3;" horiz-adv-x="643" d="M60 320 L60 360 Q60 532 133 612 Q206 692 322 692 Q437 692 510.5 612 Q584 532 584 360 L584 320 Q584 148 510.5 68 Q437 -12 322 -12 Q206 -12 133 68 Q60 148 60 320 Z M504 323 L504 357 Q504 474 462.5 548.5 Q421 623 322 623 Q222 623 181 548.5 Q140 474 140 357 L140 323 Q140 206 181 131.5 Q222 57 322 57 Q421 57 462.5 131.5 Q504 206 504 323 Z M353 745 L282 745 Q310 811 349 865 L442 865 Q397 811 353 745 Z " />
<glyph glyph-name="Ocircumflex" unicode="&#xd4;" horiz-adv-x="643" d="M60 320 L60 360 Q60 532 133 612 Q206 692 322 692 Q437 692 510.5 612 Q584 532 584 360 L584 320 Q584 148 510.5 68 Q437 -12 322 -12 Q206 -12 133 68 Q60 148 60 320 Z M504 323 L504 357 Q504 474 462.5 548.5 Q421 623 322 623 Q222 623 181 548.5 Q140 474 140 357 L140 323 Q140 206 181 131.5 Q222 57 322 57 Q421 57 462.5 131.5 Q504 206 504 323 Z M382 745 Q358 787 321 829 Q286 788 260 745 L198 745 Q226 812 267 865 L376 865 Q414 815 444 745 L382 745 Z " />
<glyph glyph-name="Odieresis" unicode="&#xd6;" horiz-adv-x="643" d="M60 320 L60 360 Q60 532 133 612 Q206 692 322 692 Q437 692 510.5 612 Q584 532 584 360 L584 320 Q584 148 510.5 68 Q437 -12 322 -12 Q206 -12 133 68 Q60 148 60 320 Z M504 323 L504 357 Q504 474 462.5 548.5 Q421 623 322 623 Q222 623 181 548.5 Q140 474 140 357 L140 323 Q140 206 181 131.5 Q222 57 322 57 Q421 57 462.5 131.5 Q504 206 504 323 Z M179 811 Q179 833 194 848 Q209 863 232 863 Q255 863 270.5 848 Q286 833 286 811 Q286 789 270.5 774 Q255 759 232 759 Q209 759 194 774 Q179 789 179 811 Z M358 811 Q358 833 373 848 Q388 863 411 863 Q434 863 449 848 Q464 833 464 811 Q464 789 449 774 Q434 759 411 759 Q388 759 373 774 Q358 789 358 811 Z " />
<glyph glyph-name="Ograve" unicode="&#xd2;" horiz-adv-x="643" d="M60 320 L60 360 Q60 532 133 612 Q206 692 322 692 Q437 692 510.5 612 Q584 532 584 360 L584 320 Q584 148 510.5 68 Q437 -12 322 -12 Q206 -12 133 68 Q60 148 60 320 Z M504 323 L504 357 Q504 474 462.5 548.5 Q421 623 322 623 Q222 623 181 548.5 Q140 474 140 357 L140 323 Q140 206 181 131.5 Q222 57 322 57 Q421 57 462.5 131.5 Q504 206 504 323 Z M292 865 Q331 811 359 745 L287 745 Q239 817 199 865 L292 865 Z " />
<glyph glyph-name="Ohungarumlaut" unicode="&#x150;" horiz-adv-x="643" d="M60 320 L60 360 Q60 532 133 612 Q206 692 322 692 Q437 692 510.5 612 Q584 532 584 360 L584 320 Q584 148 510.5 68 Q437 -12 322 -12 Q206 -12 133 68 Q60 148 60 320 Z M504 323 L504 357 Q504 474 462.5 548.5 Q421 623 322 623 Q222 623 181 548.5 Q140 474 140 357 L140 323 Q140 206 181 131.5 Q222 57 322 57 Q421 57 462.5 131.5 Q504 206 504 323 Z M289 745 L225 745 Q243 793 281 865 L367 865 Q330 821 289 745 Z M422 745 L359 745 Q391 813 426 865 L511 865 Q487 835 422 745 Z " />
<glyph glyph-name="Omacron" unicode="&#x14c;" horiz-adv-x="643" d="M60 320 L60 360 Q60 532 133 612 Q206 692 322 692 Q437 692 510.5 612 Q584 532 584 360 L584 320 Q584 148 510.5 68 Q437 -12 322 -12 Q206 -12 133 68 Q60 148 60 320 Z M504 323 L504 357 Q504 474 462.5 548.5 Q421 623 322 623 Q222 623 181 548.5 Q140 474 140 357 L140 323 Q140 206 181 131.5 Q222 57 322 57 Q421 57 462.5 131.5 Q504 206 504 323 Z M435 832 L435 769 L209 769 L209 832 L435 832 Z " />
<glyph glyph-name="Oslash" unicode="&#xd8;" horiz-adv-x="639" d="M579 360 L579 320 Q579 148 506.5 68 Q434 -12 320 -12 Q245 -12 189 21 L165 -26 L110 0 L140 59 Q60 144 60 320 L60 360 Q60 532 132.5 612 Q205 692 320 692 Q392 692 449 660 L472 706 L527 680 L497 622 Q579 537 579 360 Z M179 135 L415 595 Q378 623 320 623 Q221 623 180.5 548.5 Q140 474 140 357 L140 323 Q140 202 179 135 Z M500 357 Q500 479 459 547 L222 86 Q262 57 320 57 Q418 57 459 131.5 Q500 206 500 323 L500 357 Z " />
<glyph glyph-name="Otilde" unicode="&#xd5;" horiz-adv-x="643" d="M60 320 L60 360 Q60 532 133 612 Q206 692 322 692 Q437 692 510.5 612 Q584 532 584 360 L584 320 Q584 148 510.5 68 Q437 -12 322 -12 Q206 -12 133 68 Q60 148 60 320 Z M504 323 L504 357 Q504 474 462.5 548.5 Q421 623 322 623 Q222 623 181 548.5 Q140 474 140 357 L140 323 Q140 206 181 131.5 Q222 57 322 57 Q421 57 462.5 131.5 Q504 206 504 323 Z M386 750 Q365 750 348.5 757.5 Q332 765 309 779 Q292 790 282 795 Q272 800 261 800 Q242 800 233.5 786.5 Q225 773 223 750 L177 750 Q180 857 261 857 Q280 857 296.5 849.5 Q313 842 334 828 Q350 817 360.5 811.5 Q371 806 382 806 Q401 806 409.5 821 Q418 836 419 856 L465 856 Q464 802 444.5 776 Q425 750 386 750 Z " />
<glyph glyph-name="OE" unicode="&#x152;" horiz-adv-x="958" d="M904 66 L904 0 L483 0 L483 59 Q422 -12 315 -12 Q243 -12 186 22 Q129 56 94.5 130.5 Q60 205 60 322 L60 358 Q60 475 94.5 549.5 Q129 624 186 658 Q243 692 315 692 Q364 692 407.5 674.5 Q451 657 483 621 L483 680 L895 680 L895 614 L563 614 L563 379 L872 379 L872 313 L563 313 L563 66 L904 66 Z M483 167 L483 513 Q441 623 322 623 Q224 623 182 547 Q140 471 140 355 L140 325 Q140 209 182 133 Q224 57 322 57 Q441 57 483 167 Z " />
<glyph glyph-name="P" unicode="P" horiz-adv-x="597" d="M557 473 Q557 407 527.5 360.5 Q498 314 447 290.5 Q396 267 334 267 L175 267 L175 0 L96 0 L96 680 L334 680 Q396 680 447 656.5 Q498 633 527.5 586.5 Q557 540 557 473 Z M478 473 Q478 543 436.5 578.5 Q395 614 321 614 L175 614 L175 333 L321 333 Q395 333 436.5 368 Q478 403 478 473 Z " />
<glyph glyph-name="Thorn" unicode="&#xde;" horiz-adv-x="585" d="M545 352 Q545 252 483 198.5 Q421 145 324 145 L175 145 L175 0 L96 0 L96 680 L175 680 L175 559 L324 559 Q387 559 437 535.5 Q487 512 516 465 Q545 418 545 352 Z M467 352 Q467 422 426.5 457 Q386 492 312 492 L175 492 L175 211 L312 211 Q386 211 426.5 246 Q467 281 467 352 Z " />
<glyph glyph-name="Q" unicode="Q" horiz-adv-x="643" d="M420 5 Q457 -29 542 -29 Q561 -29 577 -27 L577 -89 Q555 -95 527 -95 Q474 -95 423.5 -75 Q373 -55 346 -11 Q338 -12 322 -12 Q206 -12 133 68 Q60 148 60 320 L60 360 Q60 532 133 612 Q206 692 322 692 Q437 692 510.5 612 Q584 532 584 360 L584 320 Q584 188 540 111 Q496 34 420 5 Z M504 323 L504 357 Q504 474 462.5 548.5 Q421 623 322 623 Q222 623 181 548.5 Q140 474 140 357 L140 323 Q140 206 181 131.5 Q222 57 322 57 Q421 57 462.5 131.5 Q504 206 504 323 Z " />
<glyph glyph-name="R" unicode="R" horiz-adv-x="622" d="M497 0 Q460 68 408.5 152 Q357 236 312 293 L175 293 L175 0 L96 0 L96 680 L343 680 Q441 680 498 627.5 Q555 575 555 488 Q555 414 511.5 363.5 Q468 313 399 302 Q446 241 500 150 Q554 59 584 0 L497 0 Z M175 359 L334 359 Q404 359 440 393 Q476 427 476 487 Q476 547 440 580.5 Q404 614 334 614 L175 614 L175 359 Z " />
<glyph glyph-name="Racute" unicode="&#x154;" horiz-adv-x="622" d="M497 0 Q460 68 408.5 152 Q357 236 312 293 L175 293 L175 0 L96 0 L96 680 L343 680 Q441 680 498 627.5 Q555 575 555 488 Q555 414 511.5 363.5 Q468 313 399 302 Q446 241 500 150 Q554 59 584 0 L497 0 Z M175 359 L334 359 Q404 359 440 393 Q476 427 476 487 Q476 547 440 580.5 Q404 614 334 614 L175 614 L175 359 Z M333 745 L262 745 Q290 811 329 865 L422 865 Q377 811 333 745 Z " />
<glyph glyph-name="Rcaron" unicode="&#x158;" horiz-adv-x="622" d="M497 0 Q460 68 408.5 152 Q357 236 312 293 L175 293 L175 0 L96 0 L96 680 L343 680 Q441 680 498 627.5 Q555 575 555 488 Q555 414 511.5 363.5 Q468 313 399 302 Q446 241 500 150 Q554 59 584 0 L497 0 Z M175 359 L334 359 Q404 359 440 393 Q476 427 476 487 Q476 547 440 580.5 Q404 614 334 614 L175 614 L175 359 Z M424 865 Q394 795 356 745 L247 745 Q206 798 178 865 L240 865 Q266 822 301 781 Q338 823 362 865 L424 865 Z " />
<glyph glyph-name="Rcommaaccent" unicode="&#x156;" horiz-adv-x="622" d="M497 0 Q460 68 408.5 152 Q357 236 312 293 L175 293 L175 0 L96 0 L96 680 L343 680 Q441 680 498 627.5 Q555 575 555 488 Q555 414 511.5 363.5 Q468 313 399 302 Q446 241 500 150 Q554 59 584 0 L497 0 Z M175 359 L334 359 Q404 359 440 393 Q476 427 476 487 Q476 547 440 580.5 Q404 614 334 614 L175 614 L175 359 Z M295 -53 L369 -53 Q368 -100 355 -134 Q342 -168 321 -200 L279 -200 Q295 -124 295 -53 Z " />
<glyph glyph-name="S" unicode="S" horiz-adv-x="569" d="M422 518 Q414 565 377.5 593.5 Q341 622 277 622 Q215 622 179.5 591 Q144 560 144 514 Q144 467 173.5 442 Q203 417 273 395 L340 375 Q425 349 472 306 Q519 263 519 183 Q519 95 458 43 Q397 -9 291 -9 Q215 -9 160.5 15.5 Q106 40 77 82 Q48 124 45 176 L44 196 L121 196 Q127 132 171 95 Q215 58 291 58 Q361 58 400 91 Q439 124 439 183 Q439 232 408.5 259.5 Q378 287 319 304 L256 323 Q154 354 110 395 Q66 436 66 509 Q66 561 92 602 Q118 643 166 666 Q214 689 279 689 Q345 689 393.5 667.5 Q442 646 468.5 610 Q495 574 498 532 L499 518 L422 518 Z " />
<glyph glyph-name="Sacute" unicode="&#x15a;" horiz-adv-x="569" d="M422 518 Q414 565 377.5 593.5 Q341 622 277 622 Q215 622 179.5 591 Q144 560 144 514 Q144 467 173.5 442 Q203 417 273 395 L340 375 Q425 349 472 306 Q519 263 519 183 Q519 95 458 43 Q397 -9 291 -9 Q215 -9 160.5 15.5 Q106 40 77 82 Q48 124 45 176 L44 196 L121 196 Q127 132 171 95 Q215 58 291 58 Q361 58 400 91 Q439 124 439 183 Q439 232 408.5 259.5 Q378 287 319 304 L256 323 Q154 354 110 395 Q66 436 66 509 Q66 561 92 602 Q118 643 166 666 Q214 689 279 689 Q345 689 393.5 667.5 Q442 646 468.5 610 Q495 574 498 532 L499 518 L422 518 Z M315 745 L244 745 Q272 811 311 865 L404 865 Q359 811 315 745 Z " />
<glyph glyph-name="Scaron" unicode="&#x160;" horiz-adv-x="569" d="M422 518 Q414 565 377.5 593.5 Q341 622 277 622 Q215 622 179.5 591 Q144 560 144 514 Q144 467 173.5 442 Q203 417 273 395 L340 375 Q425 349 472 306 Q519 263 519 183 Q519 95 458 43 Q397 -9 291 -9 Q215 -9 160.5 15.5 Q106 40 77 82 Q48 124 45 176 L44 196 L121 196 Q127 132 171 95 Q215 58 291 58 Q361 58 400 91 Q439 124 439 183 Q439 232 408.5 259.5 Q378 287 319 304 L256 323 Q154 354 110 395 Q66 436 66 509 Q66 561 92 602 Q118 643 166 666 Q214 689 279 689 Q345 689 393.5 667.5 Q442 646 468.5 610 Q495 574 498 532 L499 518 L422 518 Z M407 865 Q377 795 339 745 L230 745 Q189 798 161 865 L223 865 Q249 822 284 781 Q321 823 345 865 L407 865 Z " />
<glyph glyph-name="Scedilla" unicode="&#x15e;" horiz-adv-x="569" d="M306 -9 L291 -39 Q331 -39 355 -57.5 Q379 -76 379 -110 Q379 -146 353 -167.5 Q327 -189 284 -189 Q228 -189 191 -160 L216 -119 Q246 -141 284 -141 Q303 -141 313.5 -133 Q324 -125 324 -110 Q324 -96 311.5 -88.5 Q299 -81 276 -81 Q267 -81 258.5 -82.5 Q250 -84 245 -86 L228 -64 L255 -7 Q158 1 103.5 51.5 Q49 102 45 176 L44 196 L121 196 Q127 132 171 95 Q215 58 291 58 Q361 58 400 91 Q439 124 439 183 Q439 232 408.5 259.5 Q378 287 319 304 L256 323 Q154 354 110 395 Q66 436 66 509 Q66 561 92 602 Q118 643 166 666 Q214 689 279 689 Q345 689 393.5 667.5 Q442 646 468.5 610 Q495 574 498 532 L499 518 L422 518 Q414 565 377.5 593.5 Q341 622 277 622 Q215 622 179.5 591 Q144 560 144 514 Q144 467 173.5 442 Q203 417 273 395 L340 375 Q425 349 472 306 Q519 263 519 183 Q519 99 462 47 Q405 -5 306 -9 Z " />
<glyph glyph-name="Scommaaccent" unicode="&#x218;" horiz-adv-x="569" d="M422 518 Q414 565 377.5 593.5 Q341 622 277 622 Q215 622 179.5 591 Q144 560 144 514 Q144 467 173.5 442 Q203 417 273 395 L340 375 Q425 349 472 306 Q519 263 519 183 Q519 95 458 43 Q397 -9 291 -9 Q215 -9 160.5 15.5 Q106 40 77 82 Q48 124 45 176 L44 196 L121 196 Q127 132 171 95 Q215 58 291 58 Q361 58 400 91 Q439 124 439 183 Q439 232 408.5 259.5 Q378 287 319 304 L256 323 Q154 354 110 395 Q66 436 66 509 Q66 561 92 602 Q118 643 166 666 Q214 689 279 689 Q345 689 393.5 667.5 Q442 646 468.5 610 Q495 574 498 532 L499 518 L422 518 Z M247 -53 L321 -53 Q320 -100 307 -134 Q294 -168 273 -200 L231 -200 Q247 -124 247 -53 Z " />
<glyph glyph-name="T" unicode="T" horiz-adv-x="541" d="M514 614 L310 614 L310 0 L231 0 L231 614 L27 614 L27 680 L514 680 L514 614 Z " />
<glyph glyph-name="Tbar" unicode="&#x166;" horiz-adv-x="541" d="M310 614 L310 370 L411 370 L411 311 L310 311 L310 0 L231 0 L231 311 L129 311 L129 370 L231 370 L231 614 L27 614 L27 680 L514 680 L514 614 L310 614 Z " />
<glyph glyph-name="Tcaron" unicode="&#x164;" horiz-adv-x="541" d="M514 614 L310 614 L310 0 L231 0 L231 614 L27 614 L27 680 L514 680 L514 614 Z M393 865 Q363 795 325 745 L216 745 Q175 798 147 865 L209 865 Q235 822 270 781 Q307 823 331 865 L393 865 Z " />
<glyph glyph-name="uni0162" unicode="&#x162;" horiz-adv-x="541" d="M298 0 L280 -39 Q320 -39 344 -57.5 Q368 -76 368 -110 Q368 -146 342 -167.5 Q316 -189 273 -189 Q217 -189 180 -160 L205 -119 Q235 -141 272 -141 Q312 -141 312 -110 Q312 -96 300 -88.5 Q288 -81 265 -81 Q248 -81 233 -86 L217 -64 L247 0 L231 0 L231 614 L27 614 L27 680 L514 680 L514 614 L310 614 L310 0 L298 0 Z " />
<glyph glyph-name="uni021A" unicode="&#x21a;" horiz-adv-x="541" d="M514 614 L310 614 L310 0 L231 0 L231 614 L27 614 L27 680 L514 680 L514 614 Z M236 -53 L310 -53 Q309 -100 296 -134 Q283 -168 262 -200 L220 -200 Q236 -124 236 -53 Z " />
<glyph glyph-name="U" unicode="U" horiz-adv-x="670" d="M576 680 L576 214 Q576 100 512 45.5 Q448 -9 335 -9 Q222 -9 158 45.5 Q94 100 94 214 L94 680 L173 680 L173 221 Q173 135 214.5 96 Q256 57 335 57 Q414 57 455 96 Q496 135 496 221 L496 680 L576 680 Z " />
<glyph glyph-name="Uacute" unicode="&#xda;" horiz-adv-x="670" d="M576 680 L576 214 Q576 100 512 45.5 Q448 -9 335 -9 Q222 -9 158 45.5 Q94 100 94 214 L94 680 L173 680 L173 221 Q173 135 214.5 96 Q256 57 335 57 Q414 57 455 96 Q496 135 496 221 L496 680 L576 680 Z M366 745 L295 745 Q323 811 362 865 L455 865 Q410 811 366 745 Z " />
<glyph glyph-name="Ucircumflex" unicode="&#xdb;" horiz-adv-x="670" d="M576 680 L576 214 Q576 100 512 45.5 Q448 -9 335 -9 Q222 -9 158 45.5 Q94 100 94 214 L94 680 L173 680 L173 221 Q173 135 214.5 96 Q256 57 335 57 Q414 57 455 96 Q496 135 496 221 L496 680 L576 680 Z M395 745 Q371 787 334 829 Q299 788 273 745 L211 745 Q239 812 280 865 L389 865 Q427 815 457 745 L395 745 Z " />
<glyph glyph-name="Udieresis" unicode="&#xdc;" horiz-adv-x="670" d="M576 680 L576 214 Q576 100 512 45.5 Q448 -9 335 -9 Q222 -9 158 45.5 Q94 100 94 214 L94 680 L173 680 L173 221 Q173 135 214.5 96 Q256 57 335 57 Q414 57 455 96 Q496 135 496 221 L496 680 L576 680 Z M192 811 Q192 833 207 848 Q222 863 245 863 Q268 863 283.5 848 Q299 833 299 811 Q299 789 283.5 774 Q268 759 245 759 Q222 759 207 774 Q192 789 192 811 Z M371 811 Q371 833 386 848 Q401 863 424 863 Q447 863 462 848 Q477 833 477 811 Q477 789 462 774 Q447 759 424 759 Q401 759 386 774 Q371 789 371 811 Z " />
<glyph glyph-name="Ugrave" unicode="&#xd9;" horiz-adv-x="670" d="M576 680 L576 214 Q576 100 512 45.5 Q448 -9 335 -9 Q222 -9 158 45.5 Q94 100 94 214 L94 680 L173 680 L173 221 Q173 135 214.5 96 Q256 57 335 57 Q414 57 455 96 Q496 135 496 221 L496 680 L576 680 Z M305 865 Q344 811 372 745 L300 745 Q252 817 212 865 L305 865 Z " />
<glyph glyph-name="Uhungarumlaut" unicode="&#x170;" horiz-adv-x="670" d="M576 680 L576 214 Q576 100 512 45.5 Q448 -9 335 -9 Q222 -9 158 45.5 Q94 100 94 214 L94 680 L173 680 L173 221 Q173 135 214.5 96 Q256 57 335 57 Q414 57 455 96 Q496 135 496 221 L496 680 L576 680 Z M302 745 L238 745 Q256 793 294 865 L380 865 Q343 821 302 745 Z M435 745 L372 745 Q404 813 439 865 L524 865 Q500 835 435 745 Z " />
<glyph glyph-name="Umacron" unicode="&#x16a;" horiz-adv-x="670" d="M576 680 L576 214 Q576 100 512 45.5 Q448 -9 335 -9 Q222 -9 158 45.5 Q94 100 94 214 L94 680 L173 680 L173 221 Q173 135 214.5 96 Q256 57 335 57 Q414 57 455 96 Q496 135 496 221 L496 680 L576 680 Z M448 832 L448 769 L222 769 L222 832 L448 832 Z " />
<glyph glyph-name="Uogonek" unicode="&#x172;" horiz-adv-x="670" d="M342 -90 Q342 -44 381 -7 Q353 -9 332 -9 Q222 -9 158 45.5 Q94 100 94 214 L94 680 L173 680 L173 221 Q173 135 214.5 96 Q256 57 335 57 Q414 57 455 96 Q496 135 496 221 L496 680 L576 680 L576 214 Q576 157 561.5 120.5 Q547 84 526 63 Q505 42 466 14 Q431 -13 416.5 -31 Q402 -49 402 -74 Q402 -117 451 -117 L461 -117 L461 -165 Q448 -168 431 -168 Q389 -168 365.5 -147.5 Q342 -127 342 -90 Z " />
<glyph glyph-name="Uring" unicode="&#x16e;" horiz-adv-x="670" d="M576 680 L576 214 Q576 100 512 45.5 Q448 -9 335 -9 Q222 -9 158 45.5 Q94 100 94 214 L94 680 L173 680 L173 221 Q173 135 214.5 96 Q256 57 335 57 Q414 57 455 96 Q496 135 496 221 L496 680 L576 680 Z M240 819 Q240 858 267 883.5 Q294 909 335 909 Q377 909 403.5 883.5 Q430 858 430 819 Q430 780 403.5 755 Q377 730 335 730 Q294 730 267 755 Q240 780 240 819 Z M385 819 Q385 841 371.5 855 Q358 869 335 869 Q312 869 298.5 855 Q285 841 285 819 Q285 797 298.5 783 Q312 769 335 769 Q358 769 371.5 783 Q385 797 385 819 Z " />
<glyph glyph-name="V" unicode="V" horiz-adv-x="600" d="M571 680 Q438 204 357 21 Q351 9 344 4.5 Q337 0 320 0 L282 0 Q264 0 257.5 4.5 Q251 9 246 21 Q197 137 134.5 329 Q72 521 29 680 L115 680 Q151 542 204.5 371.5 Q258 201 304 83 Q348 202 401 373 Q454 544 489 680 L571 680 Z " />
<glyph glyph-name="W" unicode="W" horiz-adv-x="934" d="M899 680 Q862 511 813.5 324 Q765 137 724 21 Q720 9 712.5 4.5 Q705 0 688 0 L649 0 Q632 0 624.5 4.5 Q617 9 614 21 L467 554 L322 21 Q318 9 310.5 4.5 Q303 0 286 0 L247 0 Q230 0 223 4.5 Q216 9 212 21 Q170 142 119.5 332.5 Q69 523 35 680 L120 680 Q146 551 188.5 383 Q231 215 270 89 L429 680 L509 680 L671 89 Q709 216 751 383.5 Q793 551 818 680 L899 680 Z " />
<glyph glyph-name="Wacute" unicode="&#x1e82;" horiz-adv-x="934" d="M899 680 Q862 511 813.5 324 Q765 137 724 21 Q720 9 712.5 4.5 Q705 0 688 0 L649 0 Q632 0 624.5 4.5 Q617 9 614 21 L467 554 L322 21 Q318 9 310.5 4.5 Q303 0 286 0 L247 0 Q230 0 223 4.5 Q216 9 212 21 Q170 142 119.5 332.5 Q69 523 35 680 L120 680 Q146 551 188.5 383 Q231 215 270 89 L429 680 L509 680 L671 89 Q709 216 751 383.5 Q793 551 818 680 L899 680 Z M497 745 L426 745 Q454 811 493 865 L586 865 Q541 811 497 745 Z " />
<glyph glyph-name="Wcircumflex" unicode="&#x174;" horiz-adv-x="934" d="M899 680 Q862 511 813.5 324 Q765 137 724 21 Q720 9 712.5 4.5 Q705 0 688 0 L649 0 Q632 0 624.5 4.5 Q617 9 614 21 L467 554 L322 21 Q318 9 310.5 4.5 Q303 0 286 0 L247 0 Q230 0 223 4.5 Q216 9 212 21 Q170 142 119.5 332.5 Q69 523 35 680 L120 680 Q146 551 188.5 383 Q231 215 270 89 L429 680 L509 680 L671 89 Q709 216 751 383.5 Q793 551 818 680 L899 680 Z M527 745 Q503 787 466 829 Q431 788 405 745 L343 745 Q371 812 412 865 L521 865 Q559 815 589 745 L527 745 Z " />
<glyph glyph-name="Wdieresis" unicode="&#x1e84;" horiz-adv-x="934" d="M899 680 Q862 511 813.5 324 Q765 137 724 21 Q720 9 712.5 4.5 Q705 0 688 0 L649 0 Q632 0 624.5 4.5 Q617 9 614 21 L467 554 L322 21 Q318 9 310.5 4.5 Q303 0 286 0 L247 0 Q230 0 223 4.5 Q216 9 212 21 Q170 142 119.5 332.5 Q69 523 35 680 L120 680 Q146 551 188.5 383 Q231 215 270 89 L429 680 L509 680 L671 89 Q709 216 751 383.5 Q793 551 818 680 L899 680 Z M324 811 Q324 833 339 848 Q354 863 377 863 Q400 863 415.5 848 Q431 833 431 811 Q431 789 415.5 774 Q400 759 377 759 Q354 759 339 774 Q324 789 324 811 Z M503 811 Q503 833 518 848 Q533 863 556 863 Q579 863 594 848 Q609 833 609 811 Q609 789 594 774 Q579 759 556 759 Q533 759 518 774 Q503 789 503 811 Z " />
<glyph glyph-name="Wgrave" unicode="&#x1e80;" horiz-adv-x="934" d="M899 680 Q862 511 813.5 324 Q765 137 724 21 Q720 9 712.5 4.5 Q705 0 688 0 L649 0 Q632 0 624.5 4.5 Q617 9 614 21 L467 554 L322 21 Q318 9 310.5 4.5 Q303 0 286 0 L247 0 Q230 0 223 4.5 Q216 9 212 21 Q170 142 119.5 332.5 Q69 523 35 680 L120 680 Q146 551 188.5 383 Q231 215 270 89 L429 680 L509 680 L671 89 Q709 216 751 383.5 Q793 551 818 680 L899 680 Z M437 865 Q476 811 504 745 L432 745 Q384 817 344 865 L437 865 Z " />
<glyph glyph-name="X" unicode="X" horiz-adv-x="578" d="M458 0 Q369 179 288 300 Q247 239 207 167 Q167 95 117 0 L36 0 Q122 171 241 358 Q123 533 46 680 L129 680 Q200 546 289 415 Q378 546 449 680 L529 680 Q449 525 336 358 Q447 187 542 0 L458 0 Z " />
<glyph glyph-name="Y" unicode="Y" horiz-adv-x="563" d="M322 255 L322 0 L242 0 L242 255 Q102 490 23 680 L105 680 Q180 503 283 329 Q388 509 459 680 L540 680 Q459 484 322 255 Z " />
<glyph glyph-name="Yacute" unicode="&#xdd;" horiz-adv-x="563" d="M322 255 L322 0 L242 0 L242 255 Q102 490 23 680 L105 680 Q180 503 283 329 Q388 509 459 680 L540 680 Q459 484 322 255 Z M313 745 L242 745 Q270 811 309 865 L402 865 Q357 811 313 745 Z " />
<glyph glyph-name="Ycircumflex" unicode="&#x176;" horiz-adv-x="563" d="M322 255 L322 0 L242 0 L242 255 Q102 490 23 680 L105 680 Q180 503 283 329 Q388 509 459 680 L540 680 Q459 484 322 255 Z M343 745 Q319 787 282 829 Q247 788 221 745 L159 745 Q187 812 228 865 L337 865 Q375 815 405 745 L343 745 Z " />
<glyph glyph-name="Ydieresis" unicode="&#x178;" horiz-adv-x="563" d="M322 255 L322 0 L242 0 L242 255 Q102 490 23 680 L105 680 Q180 503 283 329 Q388 509 459 680 L540 680 Q459 484 322 255 Z M139 811 Q139 833 154 848 Q169 863 192 863 Q215 863 230.5 848 Q246 833 246 811 Q246 789 230.5 774 Q215 759 192 759 Q169 759 154 774 Q139 789 139 811 Z M318 811 Q318 833 333 848 Q348 863 371 863 Q394 863 409 848 Q424 833 424 811 Q424 789 409 774 Q394 759 371 759 Q348 759 333 774 Q318 789 318 811 Z " />
<glyph glyph-name="Ygrave" unicode="&#x1ef2;" horiz-adv-x="563" d="M322 255 L322 0 L242 0 L242 255 Q102 490 23 680 L105 680 Q180 503 283 329 Q388 509 459 680 L540 680 Q459 484 322 255 Z M253 865 Q292 811 320 745 L248 745 Q200 817 160 865 L253 865 Z " />
<glyph glyph-name="Z" unicode="Z" horiz-adv-x="575" d="M532 66 L532 0 L46 0 L46 53 L432 614 L60 614 L60 680 L529 680 L529 628 L142 66 L532 66 Z " />
<glyph glyph-name="Zacute" unicode="&#x179;" horiz-adv-x="575" d="M532 66 L532 0 L46 0 L46 53 L432 614 L60 614 L60 680 L529 680 L529 628 L142 66 L532 66 Z M326 745 L255 745 Q283 811 322 865 L415 865 Q370 811 326 745 Z " />
<glyph glyph-name="Zcaron" unicode="&#x17d;" horiz-adv-x="575" d="M532 66 L532 0 L46 0 L46 53 L432 614 L60 614 L60 680 L529 680 L529 628 L142 66 L532 66 Z M417 865 Q387 795 349 745 L240 745 Q199 798 171 865 L233 865 Q259 822 294 781 Q331 823 355 865 L417 865 Z " />
<glyph glyph-name="Zdotaccent" unicode="&#x17b;" horiz-adv-x="575" d="M532 66 L532 0 L46 0 L46 53 L432 614 L60 614 L60 680 L529 680 L529 628 L142 66 L532 66 Z M243 812 Q243 834 258 848.5 Q273 863 295 863 Q317 863 331.5 848.5 Q346 834 346 812 Q346 790 331.5 775.5 Q317 761 295 761 Q273 761 258 775.5 Q243 790 243 812 Z " />
<glyph glyph-name="a" unicode="a" horiz-adv-x="506" d="M463 59 L463 1 Q453 -4 435 -4 Q397 -4 377.5 14 Q358 32 353 60 Q333 27 296.5 9 Q260 -9 211 -9 Q138 -9 95.5 28 Q53 65 53 126 Q53 206 123.5 251.5 Q194 297 347 316 L347 328 Q347 380 322 406 Q297 432 244 432 Q197 432 171 410 Q145 388 138 352 L68 352 Q71 415 119.5 454.5 Q168 494 244 494 Q326 494 373.5 453.5 Q421 413 421 333 L421 113 Q421 80 430.5 69.5 Q440 59 463 59 Z M347 160 L347 260 Q234 242 180 213.5 Q126 185 126 131 Q126 94 151.5 74 Q177 54 224 54 Q277 54 312 82.5 Q347 111 347 160 Z " />
<glyph glyph-name="aacute" unicode="&#xe1;" horiz-adv-x="506" d="M463 59 L463 1 Q453 -4 435 -4 Q397 -4 377.5 14 Q358 32 353 60 Q333 27 296.5 9 Q260 -9 211 -9 Q138 -9 95.5 28 Q53 65 53 126 Q53 206 123.5 251.5 Q194 297 347 316 L347 328 Q347 380 322 406 Q297 432 244 432 Q197 432 171 410 Q145 388 138 352 L68 352 Q71 415 119.5 454.5 Q168 494 244 494 Q326 494 373.5 453.5 Q421 413 421 333 L421 113 Q421 80 430.5 69.5 Q440 59 463 59 Z M347 160 L347 260 Q234 242 180 213.5 Q126 185 126 131 Q126 94 151.5 74 Q177 54 224 54 Q277 54 312 82.5 Q347 111 347 160 Z M280 560 L209 560 Q237 626 276 680 L369 680 Q324 626 280 560 Z " />
<glyph glyph-name="abreve" unicode="&#x103;" horiz-adv-x="506" d="M463 59 L463 1 Q453 -4 435 -4 Q397 -4 377.5 14 Q358 32 353 60 Q333 27 296.5 9 Q260 -9 211 -9 Q138 -9 95.5 28 Q53 65 53 126 Q53 206 123.5 251.5 Q194 297 347 316 L347 328 Q347 380 322 406 Q297 432 244 432 Q197 432 171 410 Q145 388 138 352 L68 352 Q71 415 119.5 454.5 Q168 494 244 494 Q326 494 373.5 453.5 Q421 413 421 333 L421 113 Q421 80 430.5 69.5 Q440 59 463 59 Z M347 160 L347 260 Q234 242 180 213.5 Q126 185 126 131 Q126 94 151.5 74 Q177 54 224 54 Q277 54 312 82.5 Q347 111 347 160 Z M372 680 Q372 627 338.5 595 Q305 563 249 563 Q192 563 159 595 Q126 627 126 680 L189 680 Q189 653 202.5 633 Q216 613 249 613 Q282 613 296.5 633 Q311 653 311 680 L372 680 L372 680 Z " />
<glyph glyph-name="acircumflex" unicode="&#xe2;" horiz-adv-x="506" d="M463 59 L463 1 Q453 -4 435 -4 Q397 -4 377.5 14 Q358 32 353 60 Q333 27 296.5 9 Q260 -9 211 -9 Q138 -9 95.5 28 Q53 65 53 126 Q53 206 123.5 251.5 Q194 297 347 316 L347 328 Q347 380 322 406 Q297 432 244 432 Q197 432 171 410 Q145 388 138 352 L68 352 Q71 415 119.5 454.5 Q168 494 244 494 Q326 494 373.5 453.5 Q421 413 421 333 L421 113 Q421 80 430.5 69.5 Q440 59 463 59 Z M347 160 L347 260 Q234 242 180 213.5 Q126 185 126 131 Q126 94 151.5 74 Q177 54 224 54 Q277 54 312 82.5 Q347 111 347 160 Z M310 560 Q286 602 249 644 Q214 603 188 560 L126 560 Q154 627 195 680 L304 680 Q342 630 372 560 L310 560 Z " />
<glyph glyph-name="adieresis" unicode="&#xe4;" horiz-adv-x="506" d="M463 59 L463 1 Q453 -4 435 -4 Q397 -4 377.5 14 Q358 32 353 60 Q333 27 296.5 9 Q260 -9 211 -9 Q138 -9 95.5 28 Q53 65 53 126 Q53 206 123.5 251.5 Q194 297 347 316 L347 328 Q347 380 322 406 Q297 432 244 432 Q197 432 171 410 Q145 388 138 352 L68 352 Q71 415 119.5 454.5 Q168 494 244 494 Q326 494 373.5 453.5 Q421 413 421 333 L421 113 Q421 80 430.5 69.5 Q440 59 463 59 Z M347 160 L347 260 Q234 242 180 213.5 Q126 185 126 131 Q126 94 151.5 74 Q177 54 224 54 Q277 54 312 82.5 Q347 111 347 160 Z M107 626 Q107 648 122 663 Q137 678 160 678 Q183 678 198.5 663 Q214 648 214 626 Q214 604 198.5 589 Q183 574 160 574 Q137 574 122 589 Q107 604 107 626 Z M286 626 Q286 648 301 663 Q316 678 339 678 Q362 678 377 663 Q392 648 392 626 Q392 604 377 589 Q362 574 339 574 Q316 574 301 589 Q286 604 286 626 Z " />
<glyph glyph-name="agrave" unicode="&#xe0;" horiz-adv-x="506" d="M463 59 L463 1 Q453 -4 435 -4 Q397 -4 377.5 14 Q358 32 353 60 Q333 27 296.5 9 Q260 -9 211 -9 Q138 -9 95.5 28 Q53 65 53 126 Q53 206 123.5 251.5 Q194 297 347 316 L347 328 Q347 380 322 406 Q297 432 244 432 Q197 432 171 410 Q145 388 138 352 L68 352 Q71 415 119.5 454.5 Q168 494 244 494 Q326 494 373.5 453.5 Q421 413 421 333 L421 113 Q421 80 430.5 69.5 Q440 59 463 59 Z M347 160 L347 260 Q234 242 180 213.5 Q126 185 126 131 Q126 94 151.5 74 Q177 54 224 54 Q277 54 312 82.5 Q347 111 347 160 Z M220 680 Q259 626 287 560 L215 560 Q167 632 127 680 L220 680 Z " />
<glyph glyph-name="amacron" unicode="&#x101;" horiz-adv-x="506" d="M463 59 L463 1 Q453 -4 435 -4 Q397 -4 377.5 14 Q358 32 353 60 Q333 27 296.5 9 Q260 -9 211 -9 Q138 -9 95.5 28 Q53 65 53 126 Q53 206 123.5 251.5 Q194 297 347 316 L347 328 Q347 380 322 406 Q297 432 244 432 Q197 432 171 410 Q145 388 138 352 L68 352 Q71 415 119.5 454.5 Q168 494 244 494 Q326 494 373.5 453.5 Q421 413 421 333 L421 113 Q421 80 430.5 69.5 Q440 59 463 59 Z M347 160 L347 260 Q234 242 180 213.5 Q126 185 126 131 Q126 94 151.5 74 Q177 54 224 54 Q277 54 312 82.5 Q347 111 347 160 Z M362 647 L362 584 L136 584 L136 647 L362 647 Z " />
<glyph glyph-name="aogonek" unicode="&#x105;" horiz-adv-x="504" d="M337 -95 Q337 -38 402 1 Q360 14 353 61 Q332 27 296 9 Q260 -9 210 -9 Q137 -9 95 28 Q53 65 53 126 Q53 207 122 251.5 Q191 296 347 318 L347 329 Q347 381 323 406.5 Q299 432 247 432 Q197 432 173.5 411 Q150 390 142 352 L72 352 Q75 416 122 455 Q169 494 247 494 Q328 494 374.5 454 Q421 414 421 333 L421 117 Q421 81 429.5 70 Q438 59 461 59 L461 1 Q439 -11 418 -33.5 Q397 -56 397 -82 Q397 -117 445 -117 L455 -117 L455 -165 Q441 -168 425 -168 Q383 -168 360 -148.5 Q337 -129 337 -95 Z M347 160 L347 260 Q233 240 179.5 212.5 Q126 185 126 132 Q126 95 151.5 74.5 Q177 54 224 54 Q277 54 312 82.5 Q347 111 347 160 Z " />
<glyph glyph-name="aring" unicode="&#xe5;" horiz-adv-x="506" d="M463 59 L463 1 Q453 -4 435 -4 Q397 -4 377.5 14 Q358 32 353 60 Q333 27 296.5 9 Q260 -9 211 -9 Q138 -9 95.5 28 Q53 65 53 126 Q53 206 123.5 251.5 Q194 297 347 316 L347 328 Q347 380 322 406 Q297 432 244 432 Q197 432 171 410 Q145 388 138 352 L68 352 Q71 415 119.5 454.5 Q168 494 244 494 Q326 494 373.5 453.5 Q421 413 421 333 L421 113 Q421 80 430.5 69.5 Q440 59 463 59 Z M347 160 L347 260 Q234 242 180 213.5 Q126 185 126 131 Q126 94 151.5 74 Q177 54 224 54 Q277 54 312 82.5 Q347 111 347 160 Z M154 634 Q154 673 181 698.5 Q208 724 249 724 Q291 724 317.5 698.5 Q344 673 344 634 Q344 595 317.5 570 Q291 545 249 545 Q208 545 181 570 Q154 595 154 634 Z M299 634 Q299 656 285.5 670 Q272 684 249 684 Q226 684 212.5 670 Q199 656 199 634 Q199 612 212.5 598 Q226 584 249 584 Q272 584 285.5 598 Q299 612 299 634 Z " />
<glyph glyph-name="atilde" unicode="&#xe3;" horiz-adv-x="506" d="M463 59 L463 1 Q453 -4 435 -4 Q397 -4 377.5 14 Q358 32 353 60 Q333 27 296.5 9 Q260 -9 211 -9 Q138 -9 95.5 28 Q53 65 53 126 Q53 206 123.5 251.5 Q194 297 347 316 L347 328 Q347 380 322 406 Q297 432 244 432 Q197 432 171 410 Q145 388 138 352 L68 352 Q71 415 119.5 454.5 Q168 494 244 494 Q326 494 373.5 453.5 Q421 413 421 333 L421 113 Q421 80 430.5 69.5 Q440 59 463 59 Z M347 160 L347 260 Q234 242 180 213.5 Q126 185 126 131 Q126 94 151.5 74 Q177 54 224 54 Q277 54 312 82.5 Q347 111 347 160 Z M314 565 Q293 565 276.5 572.5 Q260 580 237 594 Q220 605 210 610 Q200 615 189 615 Q170 615 161.5 601.5 Q153 588 151 565 L105 565 Q108 672 189 672 Q208 672 224.5 664.5 Q241 657 262 643 Q278 632 288.5 626.5 Q299 621 310 621 Q329 621 337.5 636 Q346 651 347 671 L393 671 Q392 617 372.5 591 Q353 565 314 565 Z " />
<glyph glyph-name="ae" unicode="&#xe6;" horiz-adv-x="805" d="M418 232 Q418 157 449.5 106.5 Q481 56 550 56 Q604 56 631.5 78.5 Q659 101 672 137 L748 137 Q713 -9 550 -9 Q493 -9 449 16 Q405 41 379 90 Q361 44 319 17.5 Q277 -9 218 -9 Q140 -9 96.5 27 Q53 63 53 125 Q53 204 120.5 245 Q188 286 342 297 L342 329 Q342 381 317.5 406.5 Q293 432 241 432 Q193 432 167.5 410 Q142 388 137 352 L68 352 Q70 417 117 455.5 Q164 494 243 494 Q296 494 334.5 474.5 Q373 455 393 418 Q421 455 461 474.5 Q501 494 551 494 Q643 494 699 435.5 Q755 377 755 274 L755 232 L418 232 Z M420 292 L682 292 Q677 354 645.5 391.5 Q614 429 550 429 Q490 429 459 391 Q428 353 420 292 Z M342 160 L342 239 Q230 231 178 205 Q126 179 126 129 Q126 94 151.5 74 Q177 54 223 54 Q275 54 308.5 82 Q342 110 342 160 Z " />
<glyph glyph-name="b" unicode="b" horiz-adv-x="550" d="M499 251 L499 234 Q499 117 446 54 Q393 -9 306 -9 Q202 -9 156 72 L156 0 L85 0 L85 700 L159 700 L159 419 Q206 494 306 494 Q393 494 446 431 Q499 368 499 251 Z M425 251 Q425 328 394 379 Q363 430 292 430 Q224 430 191.5 380 Q159 330 159 257 L159 228 Q159 156 191.5 106 Q224 56 292 56 Q363 56 394 106.5 Q425 157 425 234 L425 251 Z " />
<glyph glyph-name="c" unicode="c" horiz-adv-x="491" d="M448 152 Q444 103 417 66.5 Q390 30 348 10.5 Q306 -9 258 -9 Q163 -9 107 54 Q51 117 51 234 L51 251 Q51 368 107.5 431 Q164 494 259 494 Q336 494 388 452.5 Q440 411 446 346 L447 335 L373 335 Q350 430 257 430 Q187 430 156 379 Q125 328 125 251 L125 234 Q125 158 155.5 107 Q186 56 256 56 Q308 56 338 84.5 Q368 113 377 163 L449 163 L448 152 Z " />
<glyph glyph-name="cacute" unicode="&#x107;" horiz-adv-x="491" d="M448 152 Q444 103 417 66.5 Q390 30 348 10.5 Q306 -9 258 -9 Q163 -9 107 54 Q51 117 51 234 L51 251 Q51 368 107.5 431 Q164 494 259 494 Q336 494 388 452.5 Q440 411 446 346 L447 335 L373 335 Q350 430 257 430 Q187 430 156 379 Q125 328 125 251 L125 234 Q125 158 155.5 107 Q186 56 256 56 Q308 56 338 84.5 Q368 113 377 163 L449 163 L448 152 Z M291 560 L220 560 Q248 626 287 680 L380 680 Q335 626 291 560 Z " />
<glyph glyph-name="ccaron" unicode="&#x10d;" horiz-adv-x="491" d="M448 152 Q444 103 417 66.5 Q390 30 348 10.5 Q306 -9 258 -9 Q163 -9 107 54 Q51 117 51 234 L51 251 Q51 368 107.5 431 Q164 494 259 494 Q336 494 388 452.5 Q440 411 446 346 L447 335 L373 335 Q350 430 257 430 Q187 430 156 379 Q125 328 125 251 L125 234 Q125 158 155.5 107 Q186 56 256 56 Q308 56 338 84.5 Q368 113 377 163 L449 163 L448 152 Z M383 680 Q353 610 315 560 L206 560 Q165 613 137 680 L199 680 Q225 637 260 596 Q297 638 321 680 L383 680 Z " />
<glyph glyph-name="ccedilla" unicode="&#xe7;" horiz-adv-x="491" d="M449 163 L448 152 Q441 84 392.5 40.5 Q344 -3 276 -8 L262 -39 Q302 -39 325.5 -57.5 Q349 -76 349 -110 Q349 -146 323.5 -167.5 Q298 -189 255 -189 Q197 -189 162 -160 L187 -119 Q217 -141 254 -141 Q273 -141 283.5 -133 Q294 -125 294 -110 Q294 -96 281.5 -88.5 Q269 -81 247 -81 Q230 -81 215 -86 L198 -64 L225 -7 Q144 4 97.5 66 Q51 128 51 234 L51 251 Q51 368 107.5 431 Q164 494 259 494 Q336 494 388 452.5 Q440 411 446 346 L447 335 L373 335 Q350 430 257 430 Q187 430 156 379 Q125 328 125 251 L125 234 Q125 158 155.5 107 Q186 56 256 56 Q308 56 338 84.5 Q368 113 377 163 L449 163 Z " />
<glyph glyph-name="cdotaccent" unicode="&#x10b;" horiz-adv-x="491" d="M448 152 Q444 103 417 66.5 Q390 30 348 10.5 Q306 -9 258 -9 Q163 -9 107 54 Q51 117 51 234 L51 251 Q51 368 107.5 431 Q164 494 259 494 Q336 494 388 452.5 Q440 411 446 346 L447 335 L373 335 Q350 430 257 430 Q187 430 156 379 Q125 328 125 251 L125 234 Q125 158 155.5 107 Q186 56 256 56 Q308 56 338 84.5 Q368 113 377 163 L449 163 L448 152 Z M209 627 Q209 649 224 663.5 Q239 678 261 678 Q283 678 297.5 663.5 Q312 649 312 627 Q312 605 297.5 590.5 Q283 576 261 576 Q239 576 224 590.5 Q209 605 209 627 Z " />
<glyph glyph-name="d" unicode="d" horiz-adv-x="550" d="M464 700 L464 0 L394 0 L394 72 Q372 33 334 12 Q296 -9 244 -9 Q157 -9 104 54 Q51 117 51 234 L51 251 Q51 368 104 431 Q157 494 244 494 Q345 494 390 419 L390 700 L464 700 Z M390 228 L390 257 Q390 330 358 380 Q326 430 258 430 Q187 430 156 379 Q125 328 125 251 L125 234 Q125 157 156 106.5 Q187 56 258 56 Q326 56 358 106 Q390 156 390 228 Z " />
<glyph glyph-name="eth" unicode="&#xf0;" horiz-adv-x="515" d="M464 274 L464 233 Q464 117 407 54 Q350 -9 258 -9 Q165 -9 108 54 Q51 117 51 234 L51 252 Q51 330 77 384.5 Q103 439 148.5 467 Q194 495 251 495 Q318 495 352 462 Q330 518 291 571 L169 538 L156 584 L258 612 Q215 662 164 700 L257 700 Q296 673 331 631 L430 658 L442 611 L363 590 Q409 526 436.5 446.5 Q464 367 464 274 Z M390 252 Q390 329 359 379.5 Q328 430 258 430 Q187 430 156 379.5 Q125 329 125 252 L125 234 Q125 158 156 107 Q187 56 258 56 Q328 56 359 107 Q390 158 390 234 L390 252 Z " />
<glyph glyph-name="dcaron" unicode="&#x10f;" horiz-adv-x="584" d="M464 700 L464 0 L394 0 L394 72 Q372 33 334 12 Q296 -9 244 -9 Q157 -9 104 54 Q51 117 51 234 L51 251 Q51 368 104 431 Q157 494 244 494 Q345 494 390 419 L390 700 L464 700 Z M390 228 L390 257 Q390 330 358 380 Q326 430 258 430 Q187 430 156 379 Q125 328 125 251 L125 234 Q125 157 156 106.5 Q187 56 258 56 Q326 56 358 106 Q390 156 390 228 Z M554 524 L519 524 Q526 561 532 609.5 Q538 658 538 700 L607 700 Q604 597 554 524 Z " />
<glyph glyph-name="dslash" unicode="&#x111;" horiz-adv-x="549" d="M535 555 L464 555 L464 0 L394 0 L394 72 Q372 33 334 12 Q296 -9 244 -9 Q157 -9 104 54 Q51 117 51 234 L51 251 Q51 368 104 431 Q157 494 244 494 Q345 494 390 419 L390 555 L253 555 L253 614 L390 614 L390 700 L464 700 L464 614 L535 614 L535 555 Z M390 228 L390 257 Q390 330 358 380 Q326 430 258 430 Q187 430 156 379 Q125 328 125 251 L125 234 Q125 157 156 106.5 Q187 56 258 56 Q326 56 358 106 Q390 156 390 228 Z " />
<glyph glyph-name="e" unicode="e" horiz-adv-x="508" d="M125 232 Q126 157 157.5 106.5 Q189 56 258 56 Q349 56 375 137 L451 137 Q435 69 387 30 Q339 -9 255 -9 Q163 -9 107 54 Q51 117 51 234 L51 251 Q51 329 78 383.5 Q105 438 151.5 466 Q198 494 257 494 Q349 494 403.5 435.5 Q458 377 458 274 L458 232 L125 232 Z M128 292 L385 292 Q380 354 349.5 391.5 Q319 429 255 429 Q196 429 166 391 Q136 353 128 292 Z " />
<glyph glyph-name="eacute" unicode="&#xe9;" horiz-adv-x="508" d="M125 232 Q126 157 157.5 106.5 Q189 56 258 56 Q349 56 375 137 L451 137 Q435 69 387 30 Q339 -9 255 -9 Q163 -9 107 54 Q51 117 51 234 L51 251 Q51 329 78 383.5 Q105 438 151.5 466 Q198 494 257 494 Q349 494 403.5 435.5 Q458 377 458 274 L458 232 L125 232 Z M128 292 L385 292 Q380 354 349.5 391.5 Q319 429 255 429 Q196 429 166 391 Q136 353 128 292 Z M288 560 L217 560 Q245 626 284 680 L377 680 Q332 626 288 560 Z " />
<glyph glyph-name="ecaron" unicode="&#x11b;" horiz-adv-x="508" d="M125 232 Q126 157 157.5 106.5 Q189 56 258 56 Q349 56 375 137 L451 137 Q435 69 387 30 Q339 -9 255 -9 Q163 -9 107 54 Q51 117 51 234 L51 251 Q51 329 78 383.5 Q105 438 151.5 466 Q198 494 257 494 Q349 494 403.5 435.5 Q458 377 458 274 L458 232 L125 232 Z M128 292 L385 292 Q380 354 349.5 391.5 Q319 429 255 429 Q196 429 166 391 Q136 353 128 292 Z M379 680 Q349 610 311 560 L202 560 Q161 613 133 680 L195 680 Q221 637 256 596 Q293 638 317 680 L379 680 Z " />
<glyph glyph-name="ecircumflex" unicode="&#xea;" horiz-adv-x="508" d="M125 232 Q126 157 157.5 106.5 Q189 56 258 56 Q349 56 375 137 L451 137 Q435 69 387 30 Q339 -9 255 -9 Q163 -9 107 54 Q51 117 51 234 L51 251 Q51 329 78 383.5 Q105 438 151.5 466 Q198 494 257 494 Q349 494 403.5 435.5 Q458 377 458 274 L458 232 L125 232 Z M128 292 L385 292 Q380 354 349.5 391.5 Q319 429 255 429 Q196 429 166 391 Q136 353 128 292 Z M317 560 Q293 602 256 644 Q221 603 195 560 L133 560 Q161 627 202 680 L311 680 Q349 630 379 560 L317 560 Z " />
<glyph glyph-name="edieresis" unicode="&#xeb;" horiz-adv-x="508" d="M125 232 Q126 157 157.5 106.5 Q189 56 258 56 Q349 56 375 137 L451 137 Q435 69 387 30 Q339 -9 255 -9 Q163 -9 107 54 Q51 117 51 234 L51 251 Q51 329 78 383.5 Q105 438 151.5 466 Q198 494 257 494 Q349 494 403.5 435.5 Q458 377 458 274 L458 232 L125 232 Z M128 292 L385 292 Q380 354 349.5 391.5 Q319 429 255 429 Q196 429 166 391 Q136 353 128 292 Z M114 626 Q114 648 129 663 Q144 678 167 678 Q190 678 205.5 663 Q221 648 221 626 Q221 604 205.5 589 Q190 574 167 574 Q144 574 129 589 Q114 604 114 626 Z M293 626 Q293 648 308 663 Q323 678 346 678 Q369 678 384 663 Q399 648 399 626 Q399 604 384 589 Q369 574 346 574 Q323 574 308 589 Q293 604 293 626 Z " />
<glyph glyph-name="edotaccent" unicode="&#x117;" horiz-adv-x="508" d="M125 232 Q126 157 157.5 106.5 Q189 56 258 56 Q349 56 375 137 L451 137 Q435 69 387 30 Q339 -9 255 -9 Q163 -9 107 54 Q51 117 51 234 L51 251 Q51 329 78 383.5 Q105 438 151.5 466 Q198 494 257 494 Q349 494 403.5 435.5 Q458 377 458 274 L458 232 L125 232 Z M128 292 L385 292 Q380 354 349.5 391.5 Q319 429 255 429 Q196 429 166 391 Q136 353 128 292 Z M205 627 Q205 649 220 663.5 Q235 678 257 678 Q279 678 293.5 663.5 Q308 649 308 627 Q308 605 293.5 590.5 Q279 576 257 576 Q235 576 220 590.5 Q205 605 205 627 Z " />
<glyph glyph-name="egrave" unicode="&#xe8;" horiz-adv-x="508" d="M125 232 Q126 157 157.5 106.5 Q189 56 258 56 Q349 56 375 137 L451 137 Q435 69 387 30 Q339 -9 255 -9 Q163 -9 107 54 Q51 117 51 234 L51 251 Q51 329 78 383.5 Q105 438 151.5 466 Q198 494 257 494 Q349 494 403.5 435.5 Q458 377 458 274 L458 232 L125 232 Z M128 292 L385 292 Q380 354 349.5 391.5 Q319 429 255 429 Q196 429 166 391 Q136 353 128 292 Z M227 680 Q266 626 294 560 L222 560 Q174 632 134 680 L227 680 Z " />
<glyph glyph-name="emacron" unicode="&#x113;" horiz-adv-x="508" d="M125 232 Q126 157 157.5 106.5 Q189 56 258 56 Q349 56 375 137 L451 137 Q435 69 387 30 Q339 -9 255 -9 Q163 -9 107 54 Q51 117 51 234 L51 251 Q51 329 78 383.5 Q105 438 151.5 466 Q198 494 257 494 Q349 494 403.5 435.5 Q458 377 458 274 L458 232 L125 232 Z M128 292 L385 292 Q380 354 349.5 391.5 Q319 429 255 429 Q196 429 166 391 Q136 353 128 292 Z M370 647 L370 584 L144 584 L144 647 L370 647 Z " />
<glyph glyph-name="eogonek" unicode="&#x119;" horiz-adv-x="508" d="M261 -91 Q261 -44 299 -6 Q278 -9 255 -9 Q163 -9 107 54 Q51 117 51 234 L51 251 Q51 329 78 383.5 Q105 438 151.5 466 Q198 494 257 494 Q349 494 403.5 435.5 Q458 377 458 274 L458 232 L125 232 Q126 157 157.5 106.5 Q189 56 258 56 Q349 56 375 137 L451 137 Q435 66 385 27 Q348 -2 334 -24.5 Q320 -47 320 -75 Q320 -94 332 -105.5 Q344 -117 369 -117 L379 -117 L379 -165 Q366 -168 350 -168 Q309 -168 285 -147.5 Q261 -127 261 -91 Z M385 292 Q381 353 350 391 Q319 429 255 429 Q196 429 165.5 391 Q135 353 127 292 L385 292 Z " />
<glyph glyph-name="f" unicode="f" horiz-adv-x="324" d="M264 641 Q219 641 201 620 Q183 599 183 547 L183 485 L290 485 L290 428 L183 428 L183 0 L109 0 L109 428 L29 428 L29 485 L109 485 L109 563 Q109 631 145 668 Q181 705 249 705 Q276 705 296 700 L296 639 Q272 641 264 641 Z " />
<glyph glyph-name="g" unicode="g" horiz-adv-x="538" d="M457 485 L457 8 Q457 -80 404 -124.5 Q351 -169 263 -169 Q178 -169 127.5 -136.5 Q77 -104 70 -47 L69 -38 L147 -38 Q155 -68 182.5 -87.5 Q210 -107 262 -107 Q322 -107 352.5 -78.5 Q383 -50 383 13 L383 90 Q336 20 241 20 Q158 20 105.5 80.5 Q53 141 53 251 L53 263 Q53 373 105.5 433.5 Q158 494 241 494 Q341 494 386 419 L386 485 L457 485 Z M383 254 L383 260 Q383 334 353.5 382 Q324 430 256 430 Q187 430 157 382 Q127 334 127 261 L127 253 Q127 181 157 133 Q187 85 256 85 Q324 85 353.5 133 Q383 181 383 254 Z " />
<glyph glyph-name="gbreve" unicode="&#x11f;" horiz-adv-x="538" d="M457 485 L457 8 Q457 -80 404 -124.5 Q351 -169 263 -169 Q178 -169 127.5 -136.5 Q77 -104 70 -47 L69 -38 L147 -38 Q155 -68 182.5 -87.5 Q210 -107 262 -107 Q322 -107 352.5 -78.5 Q383 -50 383 13 L383 90 Q336 20 241 20 Q158 20 105.5 80.5 Q53 141 53 251 L53 263 Q53 373 105.5 433.5 Q158 494 241 494 Q341 494 386 419 L386 485 L457 485 Z M383 254 L383 260 Q383 334 353.5 382 Q324 430 256 430 Q187 430 157 382 Q127 334 127 261 L127 253 Q127 181 157 133 Q187 85 256 85 Q324 85 353.5 133 Q383 181 383 254 Z M393 680 Q393 627 359.5 595 Q326 563 270 563 Q213 563 180 595 Q147 627 147 680 L210 680 Q210 653 223.5 633 Q237 613 270 613 Q303 613 317.5 633 Q332 653 332 680 L393 680 L393 680 Z " />
<glyph glyph-name="gcommaaccent" unicode="&#x123;" horiz-adv-x="538" d="M457 485 L457 8 Q457 -80 404 -124.5 Q351 -169 263 -169 Q178 -169 127.5 -136.5 Q77 -104 70 -47 L69 -38 L147 -38 Q155 -68 182.5 -87.5 Q210 -107 262 -107 Q322 -107 352.5 -78.5 Q383 -50 383 13 L383 90 Q336 20 241 20 Q158 20 105.5 80.5 Q53 141 53 251 L53 263 Q53 373 105.5 433.5 Q158 494 241 494 Q341 494 386 419 L386 485 L457 485 Z M383 254 L383 260 Q383 334 353.5 382 Q324 430 256 430 Q187 430 157 382 Q127 334 127 261 L127 253 Q127 181 157 133 Q187 85 256 85 Q324 85 353.5 133 Q383 181 383 254 Z M295 568 L221 568 Q222 615 235 649 Q248 683 269 715 L311 715 Q295 639 295 568 Z " />
<glyph glyph-name="gdotaccent" unicode="&#x121;" horiz-adv-x="538" d="M457 485 L457 8 Q457 -80 404 -124.5 Q351 -169 263 -169 Q178 -169 127.5 -136.5 Q77 -104 70 -47 L69 -38 L147 -38 Q155 -68 182.5 -87.5 Q210 -107 262 -107 Q322 -107 352.5 -78.5 Q383 -50 383 13 L383 90 Q336 20 241 20 Q158 20 105.5 80.5 Q53 141 53 251 L53 263 Q53 373 105.5 433.5 Q158 494 241 494 Q341 494 386 419 L386 485 L457 485 Z M383 254 L383 260 Q383 334 353.5 382 Q324 430 256 430 Q187 430 157 382 Q127 334 127 261 L127 253 Q127 181 157 133 Q187 85 256 85 Q324 85 353.5 133 Q383 181 383 254 Z M218 627 Q218 649 233 663.5 Q248 678 270 678 Q292 678 306.5 663.5 Q321 649 321 627 Q321 605 306.5 590.5 Q292 576 270 576 Q248 576 233 590.5 Q218 605 218 627 Z " />
<glyph glyph-name="h" unicode="h" horiz-adv-x="552" d="M471 321 L471 0 L397 0 L397 308 Q397 362 369 396 Q341 430 284 430 Q228 430 193.5 394.5 Q159 359 159 308 L159 0 L85 0 L85 700 L159 700 L159 422 Q207 494 300 494 Q376 494 423.5 447 Q471 400 471 321 Z " />
<glyph glyph-name="hbar" unicode="&#x127;" horiz-adv-x="551" d="M470 321 L470 0 L396 0 L396 308 Q396 362 368 396 Q340 430 283 430 Q227 430 192.5 394.5 Q158 359 158 308 L158 0 L84 0 L84 555 L14 555 L14 614 L84 614 L84 700 L158 700 L158 614 L296 614 L296 555 L158 555 L158 422 Q177 452 212 473 Q247 494 299 494 Q375 494 422.5 447 Q470 400 470 321 Z " />
<glyph glyph-name="i" unicode="i" horiz-adv-x="245" d="M159 0 L85 0 L85 485 L159 485 L159 0 Z M71 627 Q71 649 86 663.5 Q101 678 123 678 Q145 678 159.5 663.5 Q174 649 174 627 Q174 605 159.5 590.5 Q145 576 123 576 Q101 576 86 590.5 Q71 605 71 627 Z " />
<glyph glyph-name="dotlessi" unicode="&#x131;" horiz-adv-x="245" d="M159 0 L85 0 L85 485 L159 485 L159 0 Z " />
<glyph glyph-name="iacute" unicode="&#xed;" horiz-adv-x="245" d="M159 0 L85 0 L85 485 L159 485 L159 0 Z M153 560 L82 560 Q110 626 149 680 L242 680 Q197 626 153 560 Z " />
<glyph glyph-name="icircumflex" unicode="&#xee;" horiz-adv-x="245" d="M159 0 L85 0 L85 485 L159 485 L159 0 Z M183 560 Q159 602 122 644 Q87 603 61 560 L-1 560 Q27 627 68 680 L177 680 Q215 630 245 560 L183 560 Z " />
<glyph glyph-name="idieresis" unicode="&#xef;" horiz-adv-x="245" d="M159 0 L85 0 L85 485 L159 485 L159 0 Z M-20 626 Q-20 648 -5 663 Q10 678 33 678 Q56 678 71.5 663 Q87 648 87 626 Q87 604 71.5 589 Q56 574 33 574 Q10 574 -5 589 Q-20 604 -20 626 Z M159 626 Q159 648 174 663 Q189 678 212 678 Q235 678 250 663 Q265 648 265 626 Q265 604 250 589 Q235 574 212 574 Q189 574 174 589 Q159 604 159 626 Z " />
<glyph glyph-name="igrave" unicode="&#xec;" horiz-adv-x="245" d="M159 0 L85 0 L85 485 L159 485 L159 0 Z M93 680 Q132 626 160 560 L88 560 Q40 632 0 680 L93 680 Z " />
<glyph glyph-name="imacron" unicode="&#x12b;" horiz-adv-x="245" d="M159 0 L85 0 L85 485 L159 485 L159 0 Z M235 647 L235 584 L9 584 L9 647 L235 647 Z " />
<glyph glyph-name="iogonek" unicode="&#x12f;" horiz-adv-x="243" d="M70 627 Q70 649 85 663.5 Q100 678 121 678 Q143 678 158 663.5 Q173 649 173 627 Q173 605 158 590.5 Q143 576 121 576 Q100 576 85 590.5 Q70 605 70 627 Z M84 485 L158 485 L158 0 Q131 -16 114 -37 Q97 -58 97 -82 Q97 -117 145 -117 L155 -117 L155 -165 Q142 -168 125 -168 Q83 -168 60 -148.5 Q37 -129 37 -95 Q37 -40 101 0 L84 0 L84 485 Z " />
<glyph glyph-name="j" unicode="j" horiz-adv-x="245" d="M71 627 Q71 649 86 663.5 Q101 678 122 678 Q144 678 159 663.5 Q174 649 174 627 Q174 605 159 590.5 Q144 576 122 576 Q101 576 86 590.5 Q71 605 71 627 Z M7 -99 Q43 -96 64 -74.5 Q85 -53 85 4 L85 485 L159 485 L159 14 Q159 -83 121.5 -122.5 Q84 -162 7 -162 L7 -99 Z " />
<glyph glyph-name="k" unicode="k" horiz-adv-x="499" d="M394 0 Q370 52 332 117.5 Q294 183 258 232 Q207 181 160 140 L160 0 L85 0 L85 700 L160 700 L160 220 Q219 276 276.5 344.5 Q334 413 376 485 L454 485 Q397 383 308 286 Q358 212 402.5 135 Q447 58 471 0 L394 0 Z " />
<glyph glyph-name="kcommaaccent" unicode="&#x137;" horiz-adv-x="499" d="M394 0 Q370 52 332 117.5 Q294 183 258 232 Q207 181 160 140 L160 0 L85 0 L85 700 L160 700 L160 220 Q219 276 276.5 344.5 Q334 413 376 485 L454 485 Q397 383 308 286 Q358 212 402.5 135 Q447 58 471 0 L394 0 Z M229 -53 L303 -53 Q302 -100 289 -134 Q276 -168 255 -200 L213 -200 Q229 -124 229 -53 Z " />
<glyph glyph-name="l" unicode="l" horiz-adv-x="260" d="M154 123 Q154 82 170.5 67 Q187 52 227 55 L227 1 Q214 -7 185 -7 Q131 -7 105.5 23.5 Q80 54 80 116 L80 700 L154 700 L154 123 Z " />
<glyph glyph-name="lacute" unicode="&#x13a;" horiz-adv-x="260" d="M154 123 Q154 82 170.5 67 Q187 52 227 55 L227 1 Q214 -7 185 -7 Q131 -7 105.5 23.5 Q80 54 80 116 L80 700 L154 700 L154 123 Z M152 766 L81 766 Q109 832 148 886 L241 886 Q196 832 152 766 Z " />
<glyph glyph-name="lcaron" unicode="&#x13e;" horiz-adv-x="284" d="M154 123 Q154 82 170.5 67 Q187 52 227 55 L227 1 Q214 -7 185 -7 Q131 -7 105.5 23.5 Q80 54 80 116 L80 700 L154 700 L154 123 Z M253 524 L218 524 Q225 561 231 609.5 Q237 658 237 700 L306 700 Q303 597 253 524 Z " />
<glyph glyph-name="lcommaaccent" unicode="&#x13c;" horiz-adv-x="260" d="M154 123 Q154 82 170.5 67 Q187 52 227 55 L227 1 Q214 -7 185 -7 Q131 -7 105.5 23.5 Q80 54 80 116 L80 700 L154 700 L154 123 Z M112 -53 L186 -53 Q185 -100 172 -134 Q159 -168 138 -200 L96 -200 Q112 -124 112 -53 Z " />
<glyph glyph-name="lslash" unicode="&#x142;" horiz-adv-x="292" d="M170 366 L170 130 Q170 87 186 71.5 Q202 56 243 59 L243 4 Q227 -3 203 -3 Q148 -3 122 27.5 Q96 58 96 120 L96 320 L24 275 L24 341 L96 386 L96 700 L170 700 L170 433 L253 485 L253 418 L170 366 Z " />
<glyph glyph-name="m" unicode="m" horiz-adv-x="822" d="M740 322 L740 0 L666 0 L666 309 Q666 364 641.5 397 Q617 430 564 430 Q513 430 481.5 394.5 Q450 359 450 308 L450 0 L376 0 L376 308 Q376 362 351 396 Q326 430 274 430 Q223 430 191 395 Q159 360 159 308 L159 0 L85 0 L85 485 L156 485 L156 417 Q173 449 205.5 471.5 Q238 494 290 494 Q337 494 374 472.5 Q411 451 430 411 Q450 446 486.5 470 Q523 494 578 494 Q651 494 695.5 448 Q740 402 740 322 Z " />
<glyph glyph-name="n" unicode="n" horiz-adv-x="552" d="M471 321 L471 0 L397 0 L397 308 Q397 362 369 396 Q341 430 284 430 Q228 430 193.5 394.5 Q159 359 159 308 L159 0 L85 0 L85 485 L156 485 L156 416 Q174 448 209.5 471 Q245 494 300 494 Q376 494 423.5 447 Q471 400 471 321 Z " />
<glyph glyph-name="nacute" unicode="&#x144;" horiz-adv-x="552" d="M471 321 L471 0 L397 0 L397 308 Q397 362 369 396 Q341 430 284 430 Q228 430 193.5 394.5 Q159 359 159 308 L159 0 L85 0 L85 485 L156 485 L156 416 Q174 448 209.5 471 Q245 494 300 494 Q376 494 423.5 447 Q471 400 471 321 Z M316 560 L245 560 Q273 626 312 680 L405 680 Q360 626 316 560 Z " />
<glyph glyph-name="ncaron" unicode="&#x148;" horiz-adv-x="552" d="M471 321 L471 0 L397 0 L397 308 Q397 362 369 396 Q341 430 284 430 Q228 430 193.5 394.5 Q159 359 159 308 L159 0 L85 0 L85 485 L156 485 L156 416 Q174 448 209.5 471 Q245 494 300 494 Q376 494 423.5 447 Q471 400 471 321 Z M407 680 Q377 610 339 560 L230 560 Q189 613 161 680 L223 680 Q249 637 284 596 Q321 638 345 680 L407 680 Z " />
<glyph glyph-name="ncommaaccent" unicode="&#x146;" horiz-adv-x="552" d="M471 321 L471 0 L397 0 L397 308 Q397 362 369 396 Q341 430 284 430 Q228 430 193.5 394.5 Q159 359 159 308 L159 0 L85 0 L85 485 L156 485 L156 416 Q174 448 209.5 471 Q245 494 300 494 Q376 494 423.5 447 Q471 400 471 321 Z M238 -53 L312 -53 Q311 -100 298 -134 Q285 -168 264 -200 L222 -200 Q238 -124 238 -53 Z " />
<glyph glyph-name="eng" unicode="&#x14b;" horiz-adv-x="552" d="M471 321 L471 0 L397 0 L397 308 Q397 362 369 396 Q341 430 284 430 Q228 430 193.5 394.5 Q159 359 159 308 L159 0 L85 0 L85 485 L156 485 L156 416 Q174 448 209.5 471 Q245 494 300 494 Q376 494 423.5 447 Q471 400 471 321 Z " />
<glyph glyph-name="ntilde" unicode="&#xf1;" horiz-adv-x="552" d="M471 321 L471 0 L397 0 L397 308 Q397 362 369 396 Q341 430 284 430 Q228 430 193.5 394.5 Q159 359 159 308 L159 0 L85 0 L85 485 L156 485 L156 416 Q174 448 209.5 471 Q245 494 300 494 Q376 494 423.5 447 Q471 400 471 321 Z M349 565 Q328 565 311.5 572.5 Q295 580 272 594 Q255 605 245 610 Q235 615 224 615 Q205 615 196.5 601.5 Q188 588 186 565 L140 565 Q143 672 224 672 Q243 672 259.5 664.5 Q276 657 297 643 Q313 632 323.5 626.5 Q334 621 345 621 Q364 621 372.5 636 Q381 651 382 671 L428 671 Q427 617 407.5 591 Q388 565 349 565 Z " />
<glyph glyph-name="o" unicode="o" horiz-adv-x="515" d="M51 234 L51 251 Q51 368 108 431 Q165 494 258 494 Q350 494 407 431 Q464 368 464 251 L464 234 Q464 117 407 54 Q350 -9 258 -9 Q165 -9 108 54 Q51 117 51 234 Z M390 234 L390 251 Q390 328 359 378.5 Q328 429 258 429 Q187 429 156 378.5 Q125 328 125 251 L125 234 Q125 158 156 107 Q187 56 258 56 Q328 56 359 107 Q390 158 390 234 Z " />
<glyph glyph-name="oacute" unicode="&#xf3;" horiz-adv-x="515" d="M51 234 L51 251 Q51 368 108 431 Q165 494 258 494 Q350 494 407 431 Q464 368 464 251 L464 234 Q464 117 407 54 Q350 -9 258 -9 Q165 -9 108 54 Q51 117 51 234 Z M390 234 L390 251 Q390 328 359 378.5 Q328 429 258 429 Q187 429 156 378.5 Q125 328 125 251 L125 234 Q125 158 156 107 Q187 56 258 56 Q328 56 359 107 Q390 158 390 234 Z M289 560 L218 560 Q246 626 285 680 L378 680 Q333 626 289 560 Z " />
<glyph glyph-name="ocircumflex" unicode="&#xf4;" horiz-adv-x="515" d="M51 234 L51 251 Q51 368 108 431 Q165 494 258 494 Q350 494 407 431 Q464 368 464 251 L464 234 Q464 117 407 54 Q350 -9 258 -9 Q165 -9 108 54 Q51 117 51 234 Z M390 234 L390 251 Q390 328 359 378.5 Q328 429 258 429 Q187 429 156 378.5 Q125 328 125 251 L125 234 Q125 158 156 107 Q187 56 258 56 Q328 56 359 107 Q390 158 390 234 Z M318 560 Q294 602 257 644 Q222 603 196 560 L134 560 Q162 627 203 680 L312 680 Q350 630 380 560 L318 560 Z " />
<glyph glyph-name="odieresis" unicode="&#xf6;" horiz-adv-x="515" d="M51 234 L51 251 Q51 368 108 431 Q165 494 258 494 Q350 494 407 431 Q464 368 464 251 L464 234 Q464 117 407 54 Q350 -9 258 -9 Q165 -9 108 54 Q51 117 51 234 Z M390 234 L390 251 Q390 328 359 378.5 Q328 429 258 429 Q187 429 156 378.5 Q125 328 125 251 L125 234 Q125 158 156 107 Q187 56 258 56 Q328 56 359 107 Q390 158 390 234 Z M115 626 Q115 648 130 663 Q145 678 168 678 Q191 678 206.5 663 Q222 648 222 626 Q222 604 206.5 589 Q191 574 168 574 Q145 574 130 589 Q115 604 115 626 Z M294 626 Q294 648 309 663 Q324 678 347 678 Q370 678 385 663 Q400 648 400 626 Q400 604 385 589 Q370 574 347 574 Q324 574 309 589 Q294 604 294 626 Z " />
<glyph glyph-name="ograve" unicode="&#xf2;" horiz-adv-x="515" d="M51 234 L51 251 Q51 368 108 431 Q165 494 258 494 Q350 494 407 431 Q464 368 464 251 L464 234 Q464 117 407 54 Q350 -9 258 -9 Q165 -9 108 54 Q51 117 51 234 Z M390 234 L390 251 Q390 328 359 378.5 Q328 429 258 429 Q187 429 156 378.5 Q125 328 125 251 L125 234 Q125 158 156 107 Q187 56 258 56 Q328 56 359 107 Q390 158 390 234 Z M228 680 Q267 626 295 560 L223 560 Q175 632 135 680 L228 680 Z " />
<glyph glyph-name="ohungarumlaut" unicode="&#x151;" horiz-adv-x="515" d="M51 234 L51 251 Q51 368 108 431 Q165 494 258 494 Q350 494 407 431 Q464 368 464 251 L464 234 Q464 117 407 54 Q350 -9 258 -9 Q165 -9 108 54 Q51 117 51 234 Z M390 234 L390 251 Q390 328 359 378.5 Q328 429 258 429 Q187 429 156 378.5 Q125 328 125 251 L125 234 Q125 158 156 107 Q187 56 258 56 Q328 56 359 107 Q390 158 390 234 Z M224 560 L160 560 Q178 608 216 680 L302 680 Q265 636 224 560 Z M357 560 L294 560 Q326 628 361 680 L446 680 Q422 650 357 560 Z " />
<glyph glyph-name="omacron" unicode="&#x14d;" horiz-adv-x="515" d="M51 234 L51 251 Q51 368 108 431 Q165 494 258 494 Q350 494 407 431 Q464 368 464 251 L464 234 Q464 117 407 54 Q350 -9 258 -9 Q165 -9 108 54 Q51 117 51 234 Z M390 234 L390 251 Q390 328 359 378.5 Q328 429 258 429 Q187 429 156 378.5 Q125 328 125 251 L125 234 Q125 158 156 107 Q187 56 258 56 Q328 56 359 107 Q390 158 390 234 Z M371 647 L371 584 L145 584 L145 647 L371 647 Z " />
<glyph glyph-name="oslash" unicode="&#xf8;" horiz-adv-x="514" d="M464 251 L464 234 Q464 117 407 54 Q350 -9 257 -9 Q209 -9 166 10 L146 -28 L98 -7 L122 40 Q88 71 69.5 120 Q51 169 51 234 L51 251 Q51 368 108 431 Q165 494 257 494 Q304 494 344 477 L362 514 L411 492 L389 449 Q425 418 444.5 368 Q464 318 464 251 Z M156 108 L314 417 Q290 429 257 429 Q187 429 156 378 Q125 327 125 251 L125 234 Q125 152 156 108 Z M389 251 Q389 337 355 383 L196 70 Q226 56 257 56 Q327 56 358 107 Q389 158 389 234 L389 251 Z " />
<glyph glyph-name="otilde" unicode="&#xf5;" horiz-adv-x="515" d="M51 234 L51 251 Q51 368 108 431 Q165 494 258 494 Q350 494 407 431 Q464 368 464 251 L464 234 Q464 117 407 54 Q350 -9 258 -9 Q165 -9 108 54 Q51 117 51 234 Z M390 234 L390 251 Q390 328 359 378.5 Q328 429 258 429 Q187 429 156 378.5 Q125 328 125 251 L125 234 Q125 158 156 107 Q187 56 258 56 Q328 56 359 107 Q390 158 390 234 Z M322 565 Q301 565 284.5 572.5 Q268 580 245 594 Q228 605 218 610 Q208 615 197 615 Q178 615 169.5 601.5 Q161 588 159 565 L113 565 Q116 672 197 672 Q216 672 232.5 664.5 Q249 657 270 643 Q286 632 296.5 626.5 Q307 621 318 621 Q337 621 345.5 636 Q354 651 355 671 L401 671 Q400 617 380.5 591 Q361 565 322 565 Z " />
<glyph glyph-name="oe" unicode="&#x153;" horiz-adv-x="850" d="M467 232 Q467 157 498.5 106.5 Q530 56 599 56 Q693 56 716 137 L792 137 Q776 69 728.5 30 Q681 -9 597 -9 Q539 -9 495.5 16 Q452 41 427 90 Q401 41 357.5 16 Q314 -9 258 -9 Q165 -9 108 54 Q51 117 51 234 L51 251 Q51 368 108 431 Q165 494 258 494 Q314 494 358 468.5 Q402 443 427 394 Q453 443 497.5 468.5 Q542 494 599 494 Q690 494 745 435.5 Q800 377 800 274 L800 232 L467 232 Z M390 251 Q390 328 359 378.5 Q328 429 258 429 Q187 429 156 378.5 Q125 328 125 251 L125 234 Q125 158 156 107 Q187 56 258 56 Q328 56 359 107 Q390 158 390 234 L390 251 Z M469 292 L726 292 Q722 353 691 391 Q660 429 597 429 Q538 429 507.5 391 Q477 353 469 292 Z " />
<glyph glyph-name="p" unicode="p" horiz-adv-x="550" d="M499 251 L499 234 Q499 117 446 54 Q393 -9 306 -9 Q206 -9 159 66 L159 -160 L85 -160 L85 485 L156 485 L156 413 Q201 494 306 494 Q393 494 446 431 Q499 368 499 251 Z M425 251 Q425 328 394 379 Q363 430 292 430 Q224 430 191.5 380 Q159 330 159 257 L159 228 Q159 156 191.5 106 Q224 56 292 56 Q363 56 394 106.5 Q425 157 425 234 L425 251 Z " />
<glyph glyph-name="thorn" unicode="&#xfe;" horiz-adv-x="550" d="M499 251 L499 234 Q499 117 446 54 Q393 -9 306 -9 Q206 -9 159 66 L159 -160 L85 -160 L85 699 L159 699 L159 419 Q206 494 306 494 Q393 494 446 431 Q499 368 499 251 Z M425 251 Q425 328 394 379 Q363 430 292 430 Q224 430 191.5 380 Q159 330 159 257 L159 228 Q159 156 191.5 106 Q224 56 292 56 Q363 56 394 106.5 Q425 157 425 234 L425 251 Z " />
<glyph glyph-name="q" unicode="q" horiz-adv-x="550" d="M464 485 L464 -160 L390 -160 L390 66 Q345 -9 244 -9 Q157 -9 104 54 Q51 117 51 234 L51 251 Q51 368 104 431 Q157 494 244 494 Q349 494 394 413 L394 485 L464 485 Z M390 228 L390 257 Q390 330 358 380 Q326 430 258 430 Q187 430 156 379 Q125 328 125 251 L125 234 Q125 157 156 106.5 Q187 56 258 56 Q326 56 358 106 Q390 156 390 228 Z " />
<glyph glyph-name="r" unicode="r" horiz-adv-x="355" d="M341 485 L341 412 Q321 415 301 415 Q230 415 194.5 369.5 Q159 324 159 247 L159 0 L85 0 L85 485 L156 485 L156 379 Q168 422 204 455.5 Q240 489 299 489 Q325 489 341 485 Z " />
<glyph glyph-name="racute" unicode="&#x155;" horiz-adv-x="355" d="M341 485 L341 412 Q321 415 301 415 Q230 415 194.5 369.5 Q159 324 159 247 L159 0 L85 0 L85 485 L156 485 L156 379 Q168 422 204 455.5 Q240 489 299 489 Q325 489 341 485 Z M246 560 L175 560 Q203 626 242 680 L335 680 Q290 626 246 560 Z " />
<glyph glyph-name="rcaron" unicode="&#x159;" horiz-adv-x="355" d="M341 485 L341 412 Q321 415 301 415 Q230 415 194.5 369.5 Q159 324 159 247 L159 0 L85 0 L85 485 L156 485 L156 379 Q168 422 204 455.5 Q240 489 299 489 Q325 489 341 485 Z M338 680 Q308 610 270 560 L161 560 Q120 613 92 680 L154 680 Q180 637 215 596 Q252 638 276 680 L338 680 Z " />
<glyph glyph-name="rcommaaccent" unicode="&#x157;" horiz-adv-x="355" d="M341 485 L341 412 Q321 415 301 415 Q230 415 194.5 369.5 Q159 324 159 247 L159 0 L85 0 L85 485 L156 485 L156 379 Q168 422 204 455.5 Q240 489 299 489 Q325 489 341 485 Z M87 -53 L161 -53 Q160 -100 147 -134 Q134 -168 113 -200 L71 -200 Q87 -124 87 -53 Z " />
<glyph glyph-name="s" unicode="s" horiz-adv-x="455" d="M394 375 L395 365 L323 365 Q318 394 291 413 Q264 432 220 432 Q180 432 156.5 414 Q133 396 133 364 Q133 334 155.5 318 Q178 302 229 288 L266 277 Q339 256 374 223.5 Q409 191 409 132 Q409 67 362 29 Q315 -9 233 -9 Q150 -9 102 29.5 Q54 68 49 129 L48 142 L123 142 Q125 104 155.5 78.5 Q186 53 234 53 Q283 53 310 72 Q337 91 337 129 Q337 164 317 181.5 Q297 199 247 213 L203 226 Q160 238 131 251 Q102 264 81.5 290 Q61 316 61 358 Q61 417 104 455.5 Q147 494 226 494 Q301 494 344.5 460.5 Q388 427 394 375 Z " />
<glyph glyph-name="sacute" unicode="&#x15b;" horiz-adv-x="455" d="M394 375 L395 365 L323 365 Q318 394 291 413 Q264 432 220 432 Q180 432 156.5 414 Q133 396 133 364 Q133 334 155.5 318 Q178 302 229 288 L266 277 Q339 256 374 223.5 Q409 191 409 132 Q409 67 362 29 Q315 -9 233 -9 Q150 -9 102 29.5 Q54 68 49 129 L48 142 L123 142 Q125 104 155.5 78.5 Q186 53 234 53 Q283 53 310 72 Q337 91 337 129 Q337 164 317 181.5 Q297 199 247 213 L203 226 Q160 238 131 251 Q102 264 81.5 290 Q61 316 61 358 Q61 417 104 455.5 Q147 494 226 494 Q301 494 344.5 460.5 Q388 427 394 375 Z M267 560 L196 560 Q224 626 263 680 L356 680 Q311 626 267 560 Z " />
<glyph glyph-name="scaron" unicode="&#x161;" horiz-adv-x="455" d="M394 375 L395 365 L323 365 Q318 394 291 413 Q264 432 220 432 Q180 432 156.5 414 Q133 396 133 364 Q133 334 155.5 318 Q178 302 229 288 L266 277 Q339 256 374 223.5 Q409 191 409 132 Q409 67 362 29 Q315 -9 233 -9 Q150 -9 102 29.5 Q54 68 49 129 L48 142 L123 142 Q125 104 155.5 78.5 Q186 53 234 53 Q283 53 310 72 Q337 91 337 129 Q337 164 317 181.5 Q297 199 247 213 L203 226 Q160 238 131 251 Q102 264 81.5 290 Q61 316 61 358 Q61 417 104 455.5 Q147 494 226 494 Q301 494 344.5 460.5 Q388 427 394 375 Z M359 680 Q329 610 291 560 L182 560 Q141 613 113 680 L175 680 Q201 637 236 596 Q273 638 297 680 L359 680 Z " />
<glyph glyph-name="scedilla" unicode="&#x15f;" horiz-adv-x="455" d="M247 -9 L233 -39 Q273 -39 296.5 -57.5 Q320 -76 320 -110 Q320 -146 294 -167.5 Q268 -189 225 -189 Q169 -189 132 -160 L158 -119 Q188 -141 225 -141 Q244 -141 254.5 -133 Q265 -125 265 -110 Q265 -96 252.5 -88.5 Q240 -81 218 -81 Q201 -81 186 -86 L169 -64 L196 -7 Q130 2 91.5 38.5 Q53 75 49 129 L48 142 L123 142 Q125 104 155.5 78.5 Q186 53 234 53 Q283 53 310 72 Q337 91 337 129 Q337 164 317 181.5 Q297 199 247 213 L203 226 Q160 238 131 251 Q102 264 81.5 290 Q61 316 61 358 Q61 417 104 455.5 Q147 494 226 494 Q301 494 344.5 460.5 Q388 427 394 375 L395 365 L323 365 Q318 394 291 413 Q264 432 220 432 Q180 432 156.5 414 Q133 396 133 364 Q133 334 155.5 318 Q178 302 229 288 L266 277 Q339 256 374 223.5 Q409 191 409 132 Q409 70 366 32.5 Q323 -5 247 -9 Z " />
<glyph glyph-name="scommaaccent" unicode="&#x219;" horiz-adv-x="455" d="M394 375 L395 365 L323 365 Q318 394 291 413 Q264 432 220 432 Q180 432 156.5 414 Q133 396 133 364 Q133 334 155.5 318 Q178 302 229 288 L266 277 Q339 256 374 223.5 Q409 191 409 132 Q409 67 362 29 Q315 -9 233 -9 Q150 -9 102 29.5 Q54 68 49 129 L48 142 L123 142 Q125 104 155.5 78.5 Q186 53 234 53 Q283 53 310 72 Q337 91 337 129 Q337 164 317 181.5 Q297 199 247 213 L203 226 Q160 238 131 251 Q102 264 81.5 290 Q61 316 61 358 Q61 417 104 455.5 Q147 494 226 494 Q301 494 344.5 460.5 Q388 427 394 375 Z M189 -53 L263 -53 Q262 -100 249 -134 Q236 -168 215 -200 L173 -200 Q189 -124 189 -53 Z " />
<glyph glyph-name="germandbls" unicode="&#xdf;" horiz-adv-x="539" d="M490 202 Q490 107 436 51 Q382 -5 285 -5 Q253 -5 223 0 L223 67 Q248 60 283 60 Q344 60 380 96.5 Q416 133 416 198 Q416 272 369.5 305 Q323 338 248 338 L248 401 Q386 401 386 528 Q386 579 355 609 Q324 639 270 639 Q214 639 186.5 604.5 Q159 570 159 513 L159 0 L85 0 L85 518 Q85 572 108.5 614.5 Q132 657 174.5 680.5 Q217 704 271 704 Q356 704 408 655.5 Q460 607 460 528 Q460 470 432.5 429.5 Q405 389 364 374 Q420 358 455 312.5 Q490 267 490 202 Z " />
<glyph glyph-name="t" unicode="t" horiz-adv-x="323" d="M108 128 L108 428 L29 428 L29 485 L109 485 L109 612 L183 612 L183 485 L290 485 L290 428 L183 428 L183 140 Q183 97 198 77.5 Q213 58 253 58 Q268 58 290 61 L290 3 Q265 -5 233 -5 Q166 -5 137 29.5 Q108 64 108 128 Z " />
<glyph glyph-name="tbar" unicode="&#x167;" horiz-adv-x="323" d="M183 428 L183 285 L290 285 L290 224 L183 224 L183 141 Q183 98 198 78.5 Q213 59 253 59 Q268 59 290 62 L290 4 Q265 -4 234 -4 Q167 -4 137.5 30.5 Q108 65 108 129 L108 224 L29 224 L29 285 L108 285 L108 428 L29 428 L29 485 L109 485 L109 612 L183 612 L183 485 L290 485 L290 428 L183 428 Z " />
<glyph glyph-name="tcaron" unicode="&#x165;" horiz-adv-x="323" d="M108 128 L108 428 L29 428 L29 485 L109 485 L109 612 L183 612 L183 485 L290 485 L290 428 L183 428 L183 140 Q183 97 198 77.5 Q213 58 253 58 Q268 58 290 61 L290 3 Q265 -5 233 -5 Q166 -5 137 29.5 Q108 64 108 128 Z M284 558 L249 558 Q256 595 262 643.5 Q268 692 268 734 L337 734 Q334 631 284 558 Z " />
<glyph glyph-name="uni0163" unicode="&#x163;" horiz-adv-x="323" d="M183 428 L183 141 Q183 98 198 78.5 Q213 59 253 59 Q268 59 290 62 L290 4 Q265 -4 234 -4 Q223 -4 218 -3 L202 -39 Q242 -39 265.5 -57.5 Q289 -76 289 -110 Q289 -146 263.5 -167.5 Q238 -189 195 -189 Q138 -189 101 -160 L127 -119 Q157 -141 194 -141 Q213 -141 223.5 -133 Q234 -125 234 -110 Q234 -96 221.5 -88.5 Q209 -81 187 -81 Q170 -81 155 -86 L138 -64 L172 7 Q108 33 108 129 L108 428 L29 428 L29 485 L109 485 L109 612 L183 612 L183 485 L290 485 L290 428 L183 428 Z " />
<glyph glyph-name="uni021B" unicode="&#x21b;" horiz-adv-x="323" d="M108 128 L108 428 L29 428 L29 485 L109 485 L109 612 L183 612 L183 485 L290 485 L290 428 L183 428 L183 140 Q183 97 198 77.5 Q213 58 253 58 Q268 58 290 61 L290 3 Q265 -5 233 -5 Q166 -5 137 29.5 Q108 64 108 128 Z M158 -53 L232 -53 Q231 -100 218 -134 Q205 -168 184 -200 L142 -200 Q158 -124 158 -53 Z " />
<glyph glyph-name="u" unicode="u" horiz-adv-x="544" d="M459 485 L459 0 L388 0 L388 60 Q368 31 333 11 Q298 -9 247 -9 Q173 -9 127 38 Q81 85 81 164 L81 485 L155 485 L155 177 Q155 123 182 89.5 Q209 56 264 56 Q318 56 351.5 91 Q385 126 385 177 L385 485 L459 485 Z " />
<glyph glyph-name="uacute" unicode="&#xfa;" horiz-adv-x="544" d="M459 485 L459 0 L388 0 L388 60 Q368 31 333 11 Q298 -9 247 -9 Q173 -9 127 38 Q81 85 81 164 L81 485 L155 485 L155 177 Q155 123 182 89.5 Q209 56 264 56 Q318 56 351.5 91 Q385 126 385 177 L385 485 L459 485 Z M300 560 L229 560 Q257 626 296 680 L389 680 Q344 626 300 560 Z " />
<glyph glyph-name="ucircumflex" unicode="&#xfb;" horiz-adv-x="544" d="M459 485 L459 0 L388 0 L388 60 Q368 31 333 11 Q298 -9 247 -9 Q173 -9 127 38 Q81 85 81 164 L81 485 L155 485 L155 177 Q155 123 182 89.5 Q209 56 264 56 Q318 56 351.5 91 Q385 126 385 177 L385 485 L459 485 Z M329 560 Q305 602 268 644 Q233 603 207 560 L145 560 Q173 627 214 680 L323 680 Q361 630 391 560 L329 560 Z " />
<glyph glyph-name="udieresis" unicode="&#xfc;" horiz-adv-x="544" d="M459 485 L459 0 L388 0 L388 60 Q368 31 333 11 Q298 -9 247 -9 Q173 -9 127 38 Q81 85 81 164 L81 485 L155 485 L155 177 Q155 123 182 89.5 Q209 56 264 56 Q318 56 351.5 91 Q385 126 385 177 L385 485 L459 485 Z M126 626 Q126 648 141 663 Q156 678 179 678 Q202 678 217.5 663 Q233 648 233 626 Q233 604 217.5 589 Q202 574 179 574 Q156 574 141 589 Q126 604 126 626 Z M305 626 Q305 648 320 663 Q335 678 358 678 Q381 678 396 663 Q411 648 411 626 Q411 604 396 589 Q381 574 358 574 Q335 574 320 589 Q305 604 305 626 Z " />
<glyph glyph-name="ugrave" unicode="&#xf9;" horiz-adv-x="544" d="M459 485 L459 0 L388 0 L388 60 Q368 31 333 11 Q298 -9 247 -9 Q173 -9 127 38 Q81 85 81 164 L81 485 L155 485 L155 177 Q155 123 182 89.5 Q209 56 264 56 Q318 56 351.5 91 Q385 126 385 177 L385 485 L459 485 Z M239 680 Q278 626 306 560 L234 560 Q186 632 146 680 L239 680 Z " />
<glyph glyph-name="uhungarumlaut" unicode="&#x171;" horiz-adv-x="544" d="M459 485 L459 0 L388 0 L388 60 Q368 31 333 11 Q298 -9 247 -9 Q173 -9 127 38 Q81 85 81 164 L81 485 L155 485 L155 177 Q155 123 182 89.5 Q209 56 264 56 Q318 56 351.5 91 Q385 126 385 177 L385 485 L459 485 Z M236 560 L172 560 Q190 608 228 680 L314 680 Q277 636 236 560 Z M369 560 L306 560 Q338 628 373 680 L458 680 Q434 650 369 560 Z " />
<glyph glyph-name="umacron" unicode="&#x16b;" horiz-adv-x="544" d="M459 485 L459 0 L388 0 L388 60 Q368 31 333 11 Q298 -9 247 -9 Q173 -9 127 38 Q81 85 81 164 L81 485 L155 485 L155 177 Q155 123 182 89.5 Q209 56 264 56 Q318 56 351.5 91 Q385 126 385 177 L385 485 L459 485 Z M382 647 L382 584 L156 584 L156 647 L382 647 Z " />
<glyph glyph-name="uogonek" unicode="&#x173;" horiz-adv-x="544" d="M397 -82 Q397 -117 445 -117 L456 -117 L456 -165 Q442 -168 425 -168 Q384 -168 361 -148.5 Q338 -129 338 -95 Q338 -39 402 0 L388 0 L388 60 Q368 31 333 11 Q298 -9 247 -9 Q173 -9 127 38 Q81 85 81 164 L81 485 L155 485 L155 177 Q155 123 182 89.5 Q209 56 264 56 Q318 56 351.5 91 Q385 126 385 177 L385 485 L459 485 L459 0 Q432 -16 414.5 -37 Q397 -58 397 -82 Z " />
<glyph glyph-name="uring" unicode="&#x16f;" horiz-adv-x="544" d="M459 485 L459 0 L388 0 L388 60 Q368 31 333 11 Q298 -9 247 -9 Q173 -9 127 38 Q81 85 81 164 L81 485 L155 485 L155 177 Q155 123 182 89.5 Q209 56 264 56 Q318 56 351.5 91 Q385 126 385 177 L385 485 L459 485 Z M174 634 Q174 673 201 698.5 Q228 724 269 724 Q311 724 337.5 698.5 Q364 673 364 634 Q364 595 337.5 570 Q311 545 269 545 Q228 545 201 570 Q174 595 174 634 Z M319 634 Q319 656 305.5 670 Q292 684 269 684 Q246 684 232.5 670 Q219 656 219 634 Q219 612 232.5 598 Q246 584 269 584 Q292 584 305.5 598 Q319 612 319 634 Z " />
<glyph glyph-name="v" unicode="v" horiz-adv-x="474" d="M442 485 Q363 193 291 19 Q287 8 282 4 Q277 0 265 0 L209 0 Q197 0 192 4 Q187 8 183 19 Q111 193 32 485 L111 485 Q133 393 167.5 280 Q202 167 239 65 Q275 166 309.5 279 Q344 392 367 485 L442 485 Z " />
<glyph glyph-name="w" unicode="w" horiz-adv-x="738" d="M703 485 Q677 367 642.5 241 Q608 115 572 19 Q568 8 563 4 Q558 0 546 0 L492 0 Q480 0 474.5 4.5 Q469 9 466 19 L370 368 L275 19 Q272 9 266.5 4.5 Q261 0 249 0 L191 0 Q179 0 174 4 Q169 8 165 19 Q130 117 94.5 243.5 Q59 370 34 485 L111 485 Q129 391 159.5 279 Q190 167 223 65 L334 485 L407 485 L519 67 Q592 299 629 485 L703 485 Z " />
<glyph glyph-name="wacute" unicode="&#x1e83;" horiz-adv-x="738" d="M703 485 Q677 367 642.5 241 Q608 115 572 19 Q568 8 563 4 Q558 0 546 0 L492 0 Q480 0 474.5 4.5 Q469 9 466 19 L370 368 L275 19 Q272 9 266.5 4.5 Q261 0 249 0 L191 0 Q179 0 174 4 Q169 8 165 19 Q130 117 94.5 243.5 Q59 370 34 485 L111 485 Q129 391 159.5 279 Q190 167 223 65 L334 485 L407 485 L519 67 Q592 299 629 485 L703 485 Z M400 560 L329 560 Q357 626 396 680 L489 680 Q444 626 400 560 Z " />
<glyph glyph-name="wcircumflex" unicode="&#x175;" horiz-adv-x="738" d="M703 485 Q677 367 642.5 241 Q608 115 572 19 Q568 8 563 4 Q558 0 546 0 L492 0 Q480 0 474.5 4.5 Q469 9 466 19 L370 368 L275 19 Q272 9 266.5 4.5 Q261 0 249 0 L191 0 Q179 0 174 4 Q169 8 165 19 Q130 117 94.5 243.5 Q59 370 34 485 L111 485 Q129 391 159.5 279 Q190 167 223 65 L334 485 L407 485 L519 67 Q592 299 629 485 L703 485 Z M429 560 Q405 602 368 644 Q333 603 307 560 L245 560 Q273 627 314 680 L423 680 Q461 630 491 560 L429 560 Z " />
<glyph glyph-name="wdieresis" unicode="&#x1e85;" horiz-adv-x="738" d="M703 485 Q677 367 642.5 241 Q608 115 572 19 Q568 8 563 4 Q558 0 546 0 L492 0 Q480 0 474.5 4.5 Q469 9 466 19 L370 368 L275 19 Q272 9 266.5 4.5 Q261 0 249 0 L191 0 Q179 0 174 4 Q169 8 165 19 Q130 117 94.5 243.5 Q59 370 34 485 L111 485 Q129 391 159.5 279 Q190 167 223 65 L334 485 L407 485 L519 67 Q592 299 629 485 L703 485 Z M226 626 Q226 648 241 663 Q256 678 279 678 Q302 678 317.5 663 Q333 648 333 626 Q333 604 317.5 589 Q302 574 279 574 Q256 574 241 589 Q226 604 226 626 Z M405 626 Q405 648 420 663 Q435 678 458 678 Q481 678 496 663 Q511 648 511 626 Q511 604 496 589 Q481 574 458 574 Q435 574 420 589 Q405 604 405 626 Z " />
<glyph glyph-name="wgrave" unicode="&#x1e81;" horiz-adv-x="738" d="M703 485 Q677 367 642.5 241 Q608 115 572 19 Q568 8 563 4 Q558 0 546 0 L492 0 Q480 0 474.5 4.5 Q469 9 466 19 L370 368 L275 19 Q272 9 266.5 4.5 Q261 0 249 0 L191 0 Q179 0 174 4 Q169 8 165 19 Q130 117 94.5 243.5 Q59 370 34 485 L111 485 Q129 391 159.5 279 Q190 167 223 65 L334 485 L407 485 L519 67 Q592 299 629 485 L703 485 Z M339 680 Q378 626 406 560 L334 560 Q286 632 246 680 L339 680 Z " />
<glyph glyph-name="x" unicode="x" horiz-adv-x="456" d="M349 0 Q293 111 227 211 Q161 111 105 0 L28 0 Q97 132 175 251 Q92 373 33 485 L113 485 Q174 367 228 291 Q284 375 342 485 L420 485 Q358 369 278 254 Q366 119 428 0 L349 0 Z " />
<glyph glyph-name="y" unicode="y" horiz-adv-x="472" d="M441 485 Q421 385 375 255 Q329 125 279.5 9.5 Q230 -106 199 -160 L123 -160 Q158 -95 200 0 Q151 103 105 238 Q59 373 32 485 L109 485 Q146 319 239 85 Q326 306 369 485 L441 485 Z " />
<glyph glyph-name="yacute" unicode="&#xfd;" horiz-adv-x="472" d="M441 485 Q421 385 375 255 Q329 125 279.5 9.5 Q230 -106 199 -160 L123 -160 Q158 -95 200 0 Q151 103 105 238 Q59 373 32 485 L109 485 Q146 319 239 85 Q326 306 369 485 L441 485 Z M267 560 L196 560 Q224 626 263 680 L356 680 Q311 626 267 560 Z " />
<glyph glyph-name="ycircumflex" unicode="&#x177;" horiz-adv-x="472" d="M441 485 Q421 385 375 255 Q329 125 279.5 9.5 Q230 -106 199 -160 L123 -160 Q158 -95 200 0 Q151 103 105 238 Q59 373 32 485 L109 485 Q146 319 239 85 Q326 306 369 485 L441 485 Z M296 560 Q272 602 235 644 Q200 603 174 560 L112 560 Q140 627 181 680 L290 680 Q328 630 358 560 L296 560 Z " />
<glyph glyph-name="ydieresis" unicode="&#xff;" horiz-adv-x="472" d="M441 485 Q421 385 375 255 Q329 125 279.5 9.5 Q230 -106 199 -160 L123 -160 Q158 -95 200 0 Q151 103 105 238 Q59 373 32 485 L109 485 Q146 319 239 85 Q326 306 369 485 L441 485 Z M93 626 Q93 648 108 663 Q123 678 146 678 Q169 678 184.5 663 Q200 648 200 626 Q200 604 184.5 589 Q169 574 146 574 Q123 574 108 589 Q93 604 93 626 Z M272 626 Q272 648 287 663 Q302 678 325 678 Q348 678 363 663 Q378 648 378 626 Q378 604 363 589 Q348 574 325 574 Q302 574 287 589 Q272 604 272 626 Z " />
<glyph glyph-name="ygrave" unicode="&#x1ef3;" horiz-adv-x="472" d="M441 485 Q421 385 375 255 Q329 125 279.5 9.5 Q230 -106 199 -160 L123 -160 Q158 -95 200 0 Q151 103 105 238 Q59 373 32 485 L109 485 Q146 319 239 85 Q326 306 369 485 L441 485 Z M206 680 Q245 626 273 560 L201 560 Q153 632 113 680 L206 680 Z " />
<glyph glyph-name="z" unicode="z" horiz-adv-x="449" d="M411 63 L411 0 L38 0 L38 51 L315 423 L49 423 L49 485 L407 485 L407 434 L131 63 L411 63 Z " />
<glyph glyph-name="zacute" unicode="&#x17a;" horiz-adv-x="449" d="M411 63 L411 0 L38 0 L38 51 L315 423 L49 423 L49 485 L407 485 L407 434 L131 63 L411 63 Z M257 560 L186 560 Q214 626 253 680 L346 680 Q301 626 257 560 Z " />
<glyph glyph-name="zcaron" unicode="&#x17e;" horiz-adv-x="449" d="M411 63 L411 0 L38 0 L38 51 L315 423 L49 423 L49 485 L407 485 L407 434 L131 63 L411 63 Z M348 680 Q318 610 280 560 L171 560 Q130 613 102 680 L164 680 Q190 637 225 596 Q262 638 286 680 L348 680 Z " />
<glyph glyph-name="zdotaccent" unicode="&#x17c;" horiz-adv-x="449" d="M411 63 L411 0 L38 0 L38 51 L315 423 L49 423 L49 485 L407 485 L407 434 L131 63 L411 63 Z M174 627 Q174 649 189 663.5 Q204 678 226 678 Q248 678 262.5 663.5 Q277 649 277 627 Q277 605 262.5 590.5 Q248 576 226 576 Q204 576 189 590.5 Q174 605 174 627 Z " />
<glyph glyph-name="zero" unicode="0" horiz-adv-x="560" d="M59 313 L59 367 Q59 533 121 611 Q183 689 280 689 Q377 689 439 611 Q501 533 501 367 L501 313 Q501 147 439 69 Q377 -9 280 -9 Q183 -9 121 69 Q59 147 59 313 Z M424 318 L424 362 Q424 478 390.5 550 Q357 622 280 622 Q203 622 169.5 550 Q136 478 136 362 L136 318 Q136 202 169.5 130 Q203 58 280 58 Q357 58 390.5 130 Q424 202 424 318 Z " />
<glyph glyph-name="one" unicode="1" horiz-adv-x="560" d="M350 680 L350 0 L273 0 L273 571 Q241 543 198.5 518 Q156 493 116 476 L116 545 Q162 568 211.5 606.5 Q261 645 290 680 L350 680 Z " />
<glyph glyph-name="two" unicode="2" horiz-adv-x="560" d="M493 66 L493 0 L76 0 L76 61 Q207 163 304.5 273.5 Q402 384 402 495 Q402 555 370.5 588.5 Q339 622 277 622 Q217 622 183.5 584 Q150 546 144 483 L70 483 Q71 543 96 589.5 Q121 636 167.5 662.5 Q214 689 278 689 Q375 689 427 635.5 Q479 582 479 494 Q479 413 430 330.5 Q381 248 314 180.5 Q247 113 183 66 L493 66 Z " />
<glyph glyph-name="three" unicode="3" horiz-adv-x="560" d="M489 193 Q489 101 432.5 46 Q376 -9 280 -9 Q186 -9 130 41.5 Q74 92 69 171 L68 189 L142 189 Q145 128 183 93 Q221 58 281 58 Q340 58 376 92.5 Q412 127 412 189 Q412 263 368.5 293 Q325 323 250 323 L250 387 Q318 387 357.5 418 Q397 449 397 514 Q397 564 366 593 Q335 622 280 622 Q223 622 192.5 590.5 Q162 559 154 504 L81 504 Q84 593 139.5 641 Q195 689 281 689 Q368 689 421 641.5 Q474 594 474 514 Q474 458 444.5 417 Q415 376 373 360 Q424 345 456.5 301 Q489 257 489 193 Z " />
<glyph glyph-name="four" unicode="4" horiz-adv-x="560" d="M529 162 L448 162 L448 0 L371 0 L371 162 L50 162 L50 194 Q50 211 51.5 224 Q53 237 60 252 Q96 335 177 468.5 Q258 602 320 680 L410 680 Q339 590 256 457.5 Q173 325 127 229 L371 229 L371 412 L448 412 L448 229 L529 229 L529 162 Z " />
<glyph glyph-name="five" unicode="5" horiz-adv-x="560" d="M507 229 Q507 157 479.5 103 Q452 49 402 20 Q352 -9 285 -9 Q191 -9 134.5 39.5 Q78 88 71 163 L69 185 L143 185 Q147 128 184 93.5 Q221 59 286 59 Q353 59 391.5 103 Q430 147 430 228 Q430 301 393.5 341.5 Q357 382 289 382 Q244 382 208.5 362 Q173 342 156 313 L86 322 Q88 371 101 489.5 Q114 608 127 680 L460 680 L460 614 L188 614 Q182 579 174 516 Q166 453 162 399 Q182 422 216 435.5 Q250 449 295 449 Q356 449 404 422.5 Q452 396 479.5 346 Q507 296 507 229 Z " />
<glyph glyph-name="six" unicode="6" horiz-adv-x="560" d="M504 227 Q504 157 476 103.5 Q448 50 397 20.5 Q346 -9 281 -9 Q217 -9 167.5 18.5 Q118 46 90 98.5 Q62 151 62 222 L62 252 Q62 326 94 407 Q126 488 177 559.5 Q228 631 284 680 L387 680 Q311 612 258 546.5 Q205 481 168 395 Q183 418 214.5 433.5 Q246 449 294 449 Q389 449 446.5 389.5 Q504 330 504 227 Z M427 224 Q427 300 391 341 Q355 382 283 382 Q209 382 173.5 339.5 Q138 297 138 220 Q138 143 175.5 101 Q213 59 282 59 Q350 59 388.5 103.5 Q427 148 427 224 Z " />
<glyph glyph-name="seven" unicode="7" horiz-adv-x="560" d="M483 680 L483 618 Q450 497 367.5 298.5 Q285 100 235 0 L151 0 Q218 131 291.5 307.5 Q365 484 404 614 L59 614 L59 680 L483 680 Z " />
<glyph glyph-name="eight" unicode="8" horiz-adv-x="560" d="M500 178 Q500 122 471.5 79 Q443 36 393 12.5 Q343 -11 280 -11 Q215 -11 164.5 12.5 Q114 36 85.5 78.5 Q57 121 57 176 Q57 303 200 367 Q143 400 115.5 438 Q88 476 88 524 Q88 573 112.5 611.5 Q137 650 181.5 671 Q226 692 283 692 Q370 692 424.5 646.5 Q479 601 479 525 Q479 472 447.5 431 Q416 390 362 363 Q425 331 462.5 287.5 Q500 244 500 178 Z M291 396 Q339 413 370.5 444.5 Q402 476 402 522 Q402 567 371 596.5 Q340 626 283 626 Q228 626 196.5 598 Q165 570 165 528 Q165 489 192 459 Q219 429 291 396 Z M423 175 Q423 228 386 263.5 Q349 299 271 333 Q209 314 171.5 273 Q134 232 134 177 Q134 124 174.5 89 Q215 54 279 54 Q344 54 383.5 88.5 Q423 123 423 175 Z " />
<glyph glyph-name="nine" unicode="9" horiz-adv-x="560" d="M402 323 L397 312 Q382 286 350.5 267 Q319 248 263 248 Q202 248 155 275 Q108 302 82.5 351.5 Q57 401 57 466 Q57 534 85.5 584.5 Q114 635 164 662 Q214 689 276 689 Q338 689 387.5 663 Q437 637 465 587 Q493 537 493 467 L493 447 Q493 373 460.5 288.5 Q428 204 377 127.5 Q326 51 271 0 L173 0 Q331 145 402 323 Z M416 469 Q416 536 377.5 578.5 Q339 621 276 621 Q211 621 172 578.5 Q133 536 133 468 Q133 396 170.5 355.5 Q208 315 276 315 Q347 315 381.5 355.5 Q416 396 416 469 Z " />
<glyph glyph-name="fraction" unicode="&#x2044;" horiz-adv-x="237" d="M-47 0 L-111 0 L284 680 L348 680 L-47 0 Z " />
<glyph glyph-name="onehalf" unicode="&#xbd;" horiz-adv-x="956" d="M217 680 L217 266 L153 266 L153 579 Q132 561 104 546 Q76 531 55 525 L55 581 Q130 624 171 680 L217 680 Z M278 0 L214 0 L609 680 L673 680 L278 0 Z M893 54 L893 0 L617 0 L617 48 Q627 56 647 70 Q707 115 741 144.5 Q775 174 798 211 Q821 248 821 290 Q821 321 802 342 Q783 363 751 363 Q718 363 697.5 340.5 Q677 318 675 279 L612 279 Q614 347 651.5 384 Q689 421 752 421 Q812 421 848.5 385 Q885 349 885 293 Q885 168 711 54 L893 54 Z " />
<glyph glyph-name="onequarter" unicode="&#xbc;" horiz-adv-x="904" d="M217 680 L217 266 L153 266 L153 579 Q132 561 104 546 Q76 531 55 525 L55 581 Q130 624 171 680 L217 680 Z M278 0 L214 0 L609 680 L673 680 L278 0 Z M861 93 L809 93 L809 0 L747 0 L747 93 L542 93 L542 118 Q542 147 551 169 Q574 222 616.5 289.5 Q659 357 702 414 L773 414 Q651 244 607 148 L747 148 L747 257 L809 257 L809 148 L861 148 L861 93 Z " />
<glyph glyph-name="threequarters" unicode="&#xbe;" horiz-adv-x="949" d="M325 387 Q325 329 288.5 294 Q252 259 187 259 Q126 259 89.5 291 Q53 323 53 379 L114 379 Q117 351 136 333 Q155 315 188 315 Q222 315 241.5 334 Q261 353 261 386 Q261 423 235.5 439 Q210 455 170 455 L170 504 Q207 504 232 520.5 Q257 537 257 572 Q257 603 239 620 Q221 637 189 637 Q158 637 138.5 617 Q119 597 116 571 L59 571 Q59 623 95 656 Q131 689 188 689 Q249 689 283 657.5 Q317 626 317 576 Q317 506 258 483 Q287 472 306 447 Q325 422 325 387 Z M323 0 L259 0 L654 680 L718 680 L323 0 Z M906 93 L854 93 L854 0 L792 0 L792 93 L587 93 L587 118 Q587 147 596 169 Q619 222 661.5 289.5 Q704 357 747 414 L818 414 Q696 244 652 148 L792 148 L792 257 L854 257 L854 148 L906 148 L906 93 Z " />
<glyph glyph-name="uni00B9" unicode="&#xb9;" horiz-adv-x="335" d="M217 720 L217 306 L153 306 L153 619 Q132 601 104 586 Q76 571 55 565 L55 621 Q130 664 171 720 L217 720 Z " />
<glyph glyph-name="uni00B2" unicode="&#xb2;" horiz-adv-x="407" d="M344 362 L344 308 L69 308 L69 356 L100 380 Q158 424 192 453.5 Q226 483 249 519.5 Q272 556 272 598 Q272 629 253 650 Q234 671 202 671 Q169 671 148.5 648.5 Q128 626 126 587 L63 587 Q65 655 102.5 692 Q140 729 203 729 Q263 729 299.5 693 Q336 657 336 601 Q336 475 161 362 L344 362 Z " />
<glyph glyph-name="uni00B3" unicode="&#xb3;" horiz-adv-x="374" d="M325 427 Q325 369 288.5 334 Q252 299 187 299 Q126 299 89.5 331 Q53 363 53 419 L114 419 Q117 391 136 373 Q155 355 188 355 Q222 355 241.5 374 Q261 393 261 426 Q261 463 235.5 479 Q210 495 170 495 L170 544 Q207 544 232 560.5 Q257 577 257 612 Q257 643 239 660 Q221 677 189 677 Q158 677 138.5 657 Q119 637 116 611 L59 611 Q59 663 95 696 Q131 729 188 729 Q249 729 283 697.5 Q317 666 317 616 Q317 546 258 523 Q287 512 306 487 Q325 462 325 427 Z " />
<glyph glyph-name="asterisk" unicode="&#x2a;" horiz-adv-x="370" d="M211 559 Q256 539 322 516 Q312 485 291 463 Q233 512 198 537 Q204 476 216 419 Q198 415 185 415 Q174 415 154 419 Q159 441 164 475 Q169 509 171 536 Q128 505 78 463 Q57 485 47 516 Q69 523 101 535 Q133 547 158 559 Q123 575 47 604 Q57 635 78 657 Q92 643 120 620.5 Q148 598 172 582 Q169 610 164 644 Q159 678 154 700 Q167 704 185 704 Q204 704 216 700 Q204 643 198 583 Q249 620 291 657 Q312 635 322 604 Q246 575 211 559 Z " />
<glyph glyph-name="backslash" unicode="&#x5c;" horiz-adv-x="410" d="M100 700 L384 -20 L311 -20 L26 700 L100 700 Z " />
<glyph glyph-name="middot" unicode="&#xb7;" horiz-adv-x="292" d="M94 316 Q94 337 109.5 351.5 Q125 366 146 366 Q167 366 182 351.5 Q197 337 197 316 Q197 294 182 279 Q167 264 146 264 Q125 264 109.5 279 Q94 294 94 316 Z " />
<glyph glyph-name="bullet" unicode="&#x2022;" horiz-adv-x="380" d="M60 327 Q60 382 97.5 419.5 Q135 457 190 457 Q245 457 282.5 419.5 Q320 382 320 327 Q320 272 282.5 234.5 Q245 197 190 197 Q135 197 97.5 234.5 Q60 272 60 327 Z " />
<glyph glyph-name="colon" unicode="&#x3a;" horiz-adv-x="227" d="M62 46 Q62 67 77.5 81.5 Q93 96 114 96 Q135 96 150 81.5 Q165 67 165 46 Q165 24 150 9 Q135 -6 114 -6 Q93 -6 77.5 9 Q62 24 62 46 Z M62 439 Q62 460 77.5 474.5 Q93 489 114 489 Q135 489 150 474.5 Q165 460 165 439 Q165 417 150 402 Q135 387 114 387 Q93 387 77.5 402 Q62 417 62 439 Z " />
<glyph glyph-name="comma" unicode="&#x2c;" horiz-adv-x="197" d="M138 58 Q138 20 127 -12.5 Q116 -45 105 -63.5 Q94 -82 73 -114 L38 -114 Q57 -40 57 49 L57 87 L138 87 L138 58 Z " />
<glyph glyph-name="ellipsis" unicode="&#x2026;" horiz-adv-x="584" d="M433 46 Q433 67 448.5 81.5 Q464 96 485 96 Q506 96 521 81.5 Q536 67 536 46 Q536 24 521 9 Q506 -6 485 -6 Q464 -6 448.5 9 Q433 24 433 46 Z M240 46 Q240 67 255.5 81.5 Q271 96 292 96 Q313 96 328 81.5 Q343 67 343 46 Q343 24 328 9 Q313 -6 292 -6 Q271 -6 255.5 9 Q240 24 240 46 Z M47 46 Q47 67 62.5 81.5 Q78 96 99 96 Q120 96 135 81.5 Q150 67 150 46 Q150 24 135 9 Q120 -6 99 -6 Q78 -6 62.5 9 Q47 24 47 46 Z " />
<glyph glyph-name="exclam" unicode="&#x21;" horiz-adv-x="294" d="M170 187 L124 187 Q117 290 110.5 427 Q104 564 103 680 L191 680 Q190 559 184 421 Q178 283 170 187 Z M96 46 Q96 67 111 81.5 Q126 96 147 96 Q168 96 183.5 81.5 Q199 67 199 46 Q199 24 183.5 9 Q168 -6 147 -6 Q126 -6 111 9 Q96 24 96 46 Z " />
<glyph glyph-name="exclamdown" unicode="&#xa1;" horiz-adv-x="294" d="M199 443 Q199 422 183.5 407.5 Q168 393 147 393 Q126 393 111 407.5 Q96 422 96 443 Q96 465 111 480 Q126 495 147 495 Q168 495 183.5 480 Q199 465 199 443 Z M124 302 L170 302 Q178 206 184 68 Q190 -70 191 -191 L103 -191 Q104 -75 110.5 62 Q117 199 124 302 Z " />
<glyph glyph-name="numbersign" unicode="&#x23;" horiz-adv-x="560" d="M436 427 L411 255 L500 255 L500 191 L402 191 L375 0 L306 0 L333 191 L187 191 L160 0 L90 0 L117 191 L27 191 L27 255 L126 255 L150 427 L59 427 L59 492 L159 492 L186 680 L255 680 L229 492 L375 492 L402 680 L471 680 L445 492 L533 492 L533 427 L436 427 Z M366 427 L220 427 L196 255 L342 255 L366 427 Z " />
<glyph glyph-name="period" unicode="&#x2e;" horiz-adv-x="197" d="M47 46 Q47 67 62.5 81.5 Q78 96 99 96 Q120 96 135 81.5 Q150 67 150 46 Q150 24 135 9 Q120 -6 99 -6 Q78 -6 62.5 9 Q47 24 47 46 Z " />
<glyph glyph-name="question" unicode="&#x3f;" horiz-adv-x="407" d="M296 511 Q296 564 271.5 593 Q247 622 203 622 Q156 622 131.5 591 Q107 560 103 504 L32 504 L32 517 Q32 590 77.5 639.5 Q123 689 204 689 Q284 689 329 641 Q374 593 374 518 Q374 458 349.5 392.5 Q325 327 302.5 287.5 Q280 248 239 182 L172 182 Q176 190 211.5 255 Q247 320 271.5 391 Q296 462 296 511 Z M150 46 Q150 68 165 82 Q180 96 202 96 Q223 96 238 81.5 Q253 67 253 46 Q253 24 238 9 Q223 -6 202 -6 Q180 -6 165 9 Q150 24 150 46 Z " />
<glyph glyph-name="questiondown" unicode="&#xbf;" horiz-adv-x="377" d="M254 445 Q254 424 239 409.5 Q224 395 203 395 Q182 395 167 409.5 Q152 424 152 445 Q152 467 167 482 Q182 497 203 497 Q224 497 239 482 Q254 467 254 445 Z M225 290 Q176 200 143 122.5 Q110 45 110 -20 Q110 -72 134.5 -101.5 Q159 -131 203 -131 Q250 -131 274.5 -100 Q299 -69 303 -13 L375 -13 L375 -26 Q375 -100 329.5 -149 Q284 -198 202 -198 Q122 -198 77 -150 Q32 -102 32 -27 Q32 33 56.5 98.5 Q81 164 103.5 203.5 Q126 243 167 309 L235 309 Q233 305 230.5 300.5 Q228 296 225 290 Z " />
<glyph glyph-name="quotedbl" unicode="&#x22;" horiz-adv-x="325" d="M119 680 Q119 610 114 548 Q109 486 101 448 L66 448 Q58 488 52.5 549.5 Q47 611 47 680 L119 680 Z M278 680 Q278 610 273 548 Q268 486 260 448 L225 448 Q217 488 211.5 549.5 Q206 611 206 680 L278 680 Z " />
<glyph glyph-name="quotesingle" unicode="&#x27;" horiz-adv-x="166" d="M119 680 Q119 610 114 548 Q109 486 101 448 L66 448 Q58 488 52.5 549.5 Q47 611 47 680 L119 680 Z " />
<glyph glyph-name="semicolon" unicode="&#x3b;" horiz-adv-x="227" d="M153 58 Q153 20 142 -12.5 Q131 -45 120 -63.5 Q109 -82 88 -114 L53 -114 Q72 -40 72 49 L72 87 L153 87 L153 58 Z M62 439 Q62 460 77.5 474.5 Q93 489 114 489 Q135 489 150 474.5 Q165 460 165 439 Q165 417 150 402 Q135 387 114 387 Q93 387 77.5 402 Q62 417 62 439 Z " />
<glyph glyph-name="slash" unicode="&#x2f;" horiz-adv-x="410" d="M99 -20 L26 -20 L310 700 L384 700 L99 -20 Z " />
<glyph glyph-name="underscore" unicode="&#x5f;" horiz-adv-x="502" d="M507 -102 L507 -158 L-5 -158 L-5 -102 L507 -102 Z " />
<glyph glyph-name="braceleft" unicode="&#x7b;" horiz-adv-x="370" d="M329 627 L289 627 Q254 627 235.5 616 Q217 605 217 574 L217 385 Q217 287 123 266 L123 264 Q217 244 217 145 L217 -48 Q217 -78 235 -88 Q253 -98 289 -98 L329 -98 L329 -151 L280 -151 Q231 -151 202 -140 Q173 -129 157.5 -99 Q142 -69 142 -12 L142 135 Q142 187 120 211.5 Q98 236 52 236 L52 294 Q98 294 120 319 Q142 344 142 396 L142 541 Q142 598 157.5 628.5 Q173 659 202 669.5 Q231 680 280 680 L329 680 L329 627 Z " />
<glyph glyph-name="braceright" unicode="&#x7d;" horiz-adv-x="359" d="M90 680 Q139 680 168 669.5 Q197 659 212.5 628.5 Q228 598 228 541 L228 396 Q228 344 250 319 Q272 294 318 294 L318 236 Q272 236 250 211.5 Q228 187 228 135 L228 -12 Q228 -69 212.5 -99 Q197 -129 168 -140 Q139 -151 90 -151 L41 -151 L41 -98 L81 -98 Q117 -98 135 -88 Q153 -78 153 -48 L153 145 Q153 244 247 264 L247 266 Q153 287 153 385 L153 574 Q153 605 134.5 616 Q116 627 81 627 L41 627 L41 680 L90 680 Z " />
<glyph glyph-name="bracketleft" unicode="&#x5b;" horiz-adv-x="333" d="M292 627 L167 627 L167 -98 L292 -98 L292 -151 L92 -151 L92 680 L292 680 L292 627 Z " />
<glyph glyph-name="bracketright" unicode="&#x5d;" horiz-adv-x="333" d="M241 680 L241 -151 L41 -151 L41 -98 L166 -98 L166 627 L41 627 L41 680 L241 680 Z " />
<glyph glyph-name="parenleft" unicode="&#x28;" horiz-adv-x="361" d="M251 680 L329 680 Q250 599 200.5 499 Q151 399 151 267 Q151 135 200.5 35 Q250 -65 329 -146 L251 -146 Q180 -81 126 21.5 Q72 124 72 267 Q72 410 126 512.5 Q180 615 251 680 Z " />
<glyph glyph-name="parenright" unicode="&#x29;" horiz-adv-x="361" d="M110 -146 L32 -146 Q111 -65 160 35 Q209 135 209 267 Q209 399 160 499 Q111 599 32 680 L110 680 Q181 615 235 512.5 Q289 410 289 267 Q289 124 235 21.5 Q181 -81 110 -146 Z " />
<glyph glyph-name="emdash" unicode="&#x2014;" horiz-adv-x="809" d="M763 325 L763 263 L46 263 L46 325 L763 325 Z " />
<glyph glyph-name="endash" unicode="&#x2013;" horiz-adv-x="586" d="M540 325 L540 263 L46 263 L46 325 L540 325 Z " />
<glyph glyph-name="hyphen" unicode="&#x2d;" horiz-adv-x="362" d="M316 327 L316 261 L46 261 L46 327 L316 327 Z " />
<glyph glyph-name="guillemotleft" unicode="&#xab;" horiz-adv-x="586" d="M345 242 L524 48 L445 48 L269 242 L445 435 L524 435 L345 242 Z M138 242 L317 48 L238 48 L62 242 L238 435 L317 435 L138 242 Z " />
<glyph glyph-name="guillemotright" unicode="&#xbb;" horiz-adv-x="586" d="M347 435 L524 242 L347 48 L269 48 L447 242 L269 435 L347 435 Z M140 435 L317 242 L140 48 L62 48 L240 242 L62 435 L140 435 Z " />
<glyph glyph-name="guilsinglleft" unicode="&#x2039;" horiz-adv-x="379" d="M138 242 L317 48 L238 48 L62 242 L238 435 L317 435 L138 242 Z " />
<glyph glyph-name="guilsinglright" unicode="&#x203a;" horiz-adv-x="379" d="M140 435 L317 242 L140 48 L62 48 L240 242 L62 435 L140 435 Z " />
<glyph glyph-name="quotedblbase" unicode="&#x201e;" horiz-adv-x="355" d="M150 58 Q150 20 139 -13 Q128 -46 116.5 -65.5 Q105 -85 84 -116 L47 -116 Q68 -32 68 49 L68 87 L150 87 L150 58 Z M307 58 Q307 20 296 -13 Q285 -46 273.5 -65.5 Q262 -85 241 -116 L204 -116 Q225 -32 225 49 L225 87 L307 87 L307 58 Z " />
<glyph glyph-name="quotedblleft" unicode="&#x201c;" horiz-adv-x="355" d="M204 506 Q204 544 215 577.5 Q226 611 237 629 Q248 647 270 680 L307 680 Q287 600 287 515 L287 477 L204 477 L204 506 Z M47 506 Q47 544 58 577.5 Q69 611 80 629 Q91 647 113 680 L150 680 Q130 600 130 515 L130 477 L47 477 L47 506 Z " />
<glyph glyph-name="quotedblright" unicode="&#x201d;" horiz-adv-x="355" d="M307 651 Q307 613 296 580 Q285 547 273.5 527.5 Q262 508 241 477 L204 477 Q225 561 225 642 L225 680 L307 680 L307 651 Z M150 651 Q150 613 139 580 Q128 547 116.5 527.5 Q105 508 84 477 L47 477 Q68 561 68 642 L68 680 L150 680 L150 651 Z " />
<glyph glyph-name="quoteleft" unicode="&#x2018;" horiz-adv-x="197" d="M47 506 Q47 544 58 577.5 Q69 611 80 629 Q91 647 113 680 L150 680 Q130 600 130 515 L130 477 L47 477 L47 506 Z " />
<glyph glyph-name="quoteright" unicode="&#x2019;" horiz-adv-x="197" d="M150 651 Q150 613 139 580 Q128 547 116.5 527.5 Q105 508 84 477 L47 477 Q68 561 68 642 L68 680 L150 680 L150 651 Z " />
<glyph glyph-name="quotesinglbase" unicode="&#x201a;" horiz-adv-x="197" d="M150 58 Q150 20 139 -13 Q128 -46 116.5 -65.5 Q105 -85 84 -116 L47 -116 Q68 -32 68 49 L68 87 L150 87 L150 58 Z " />
<glyph glyph-name="uni00A0" unicode="&#xa0;" horiz-adv-x="600" d="" />
<glyph glyph-name="cent" unicode="&#xa2;" horiz-adv-x="560" d="M480 163 L479 152 Q473 87 428 44.5 Q383 2 319 -7 L319 -80 L255 -80 L255 -7 Q174 5 128 66.5 Q82 128 82 234 L82 251 Q82 357 128 418.5 Q174 480 255 492 L255 565 L319 565 L319 493 Q385 485 428.5 444.5 Q472 404 477 346 L478 335 L404 335 Q381 430 288 430 Q218 430 187 379 Q156 328 156 251 L156 234 Q156 158 186.5 107 Q217 56 287 56 Q339 56 369 84.5 Q399 113 408 163 L480 163 Z " />
<glyph glyph-name="currency" unicode="&#xa4;" horiz-adv-x="560" d="M467 475 L422 431 Q452 390 452 332 Q452 274 422 233 L467 188 L423 145 L378 191 Q337 166 282 166 Q226 166 182 193 L136 145 L93 189 L139 234 Q111 274 111 332 Q111 390 140 430 L92 476 L136 519 L182 472 Q229 498 282 498 Q337 498 378 473 L423 519 L467 475 Z M177 332 Q177 280 206 251 Q235 222 282 222 Q329 222 357 251 Q385 280 385 332 Q385 384 357 413 Q329 442 282 442 Q235 442 206 413 Q177 384 177 332 Z " />
<glyph glyph-name="dollar" unicode="&#x24;" horiz-adv-x="560" d="M312 -7 L312 -80 L246 -80 L246 -7 Q155 1 103.5 51.5 Q52 102 48 175 L47 196 L124 196 Q128 133 169.5 95.5 Q211 58 282 58 Q348 58 383.5 90.5 Q419 123 419 182 Q419 231 391.5 257.5 Q364 284 305 306 L250 326 Q154 361 112 401.5 Q70 442 70 509 Q70 580 118 630.5 Q166 681 246 688 L246 766 L312 766 L312 686 Q387 675 430 632 Q473 589 477 533 L478 519 L405 519 Q383 622 266 622 Q209 622 177 590.5 Q145 559 145 514 Q145 470 174 444.5 Q203 419 269 396 L328 374 Q409 344 452.5 301.5 Q496 259 496 182 Q496 106 447 54 Q398 2 312 -7 Z " />
<glyph glyph-name="Euro" unicode="&#x20ac;" horiz-adv-x="560" d="M449 169 L530 169 L529 161 Q519 75 457.5 33 Q396 -9 317 -9 Q227 -9 164.5 53.5 Q102 116 89 248 L21 248 L21 302 L86 302 L86 386 L21 386 L21 439 L90 439 Q104 568 166 628.5 Q228 689 317 689 Q395 689 456.5 647 Q518 605 529 519 L530 511 L449 511 Q422 622 317 622 Q250 622 214 571.5 Q178 521 168 439 L368 439 L368 386 L163 386 L163 302 L368 302 L368 248 L167 248 Q177 162 213 110 Q249 58 317 58 Q422 58 449 169 Z " />
<glyph glyph-name="sterling" unicode="&#xa3;" horiz-adv-x="560" d="M142 66 L492 66 L492 0 L56 0 L56 50 Q102 90 124.5 134 Q147 178 147 231 Q147 259 140 297 L75 297 L75 355 L127 355 Q115 405 109 434.5 Q103 464 103 493 Q103 549 128.5 593.5 Q154 638 200.5 663.5 Q247 689 305 689 Q387 689 442 642 Q497 595 502 520 L503 506 L428 506 Q423 559 389.5 590.5 Q356 622 304 622 Q249 622 214.5 587 Q180 552 180 488 Q180 445 201 355 L385 355 L385 297 L212 297 Q220 260 220 231 Q220 182 200.5 139 Q181 96 142 66 Z " />
<glyph glyph-name="yen" unicode="&#xa5;" horiz-adv-x="560" d="M389 401 L491 401 L491 348 L358 348 Q346 326 320 284 L320 264 L491 264 L491 210 L320 210 L320 0 L243 0 L243 210 L72 210 L72 264 L243 264 L243 283 L232 301 L205 348 L72 348 L72 401 L173 401 Q91 547 34 680 L118 680 Q190 511 283 354 Q366 495 446 680 L527 680 Q470 545 389 401 Z " />
<glyph glyph-name="approxequal" unicode="&#x2248;" horiz-adv-x="570" d="M278 381 Q248 392 230 397.5 Q212 403 194 403 Q174 403 151 393 Q128 383 113 366 L82 408 Q107 439 133 451 Q159 463 191 463 Q214 463 237.5 456.5 Q261 450 293 437 Q322 426 341 420.5 Q360 415 378 415 Q399 415 420 425 Q441 435 457 452 L488 410 Q462 380 436 367.5 Q410 355 379 355 Q356 355 332.5 362 Q309 369 278 381 Z M278 211 Q248 222 230 227.5 Q212 233 194 233 Q174 233 151 223 Q128 213 113 196 L82 238 Q107 269 133 281 Q159 293 191 293 Q214 293 237.5 286.5 Q261 280 293 267 Q322 256 341 250.5 Q360 245 378 245 Q399 245 420 255 Q441 265 457 282 L488 240 Q462 210 436 198 Q410 186 379 186 Q356 186 333.5 192.5 Q311 199 278 211 Z " />
<glyph glyph-name="asciitilde" unicode="&#x7e;" horiz-adv-x="570" d="M303 364 Q326 350 342 343 Q358 336 373 336 Q400 336 412.5 354 Q425 372 425 400 L488 400 Q488 346 459 310 Q430 274 378 274 Q355 274 335 282.5 Q315 291 288 307 Q262 323 242 331 Q222 339 200 339 Q174 339 159.5 320.5 Q145 302 145 275 L82 275 Q82 305 95.5 334.5 Q109 364 135.5 382.5 Q162 401 199 401 Q225 401 247 392 Q269 383 303 364 Z " />
<glyph glyph-name="divide" unicode="&#xf7;" horiz-adv-x="570" d="M488 357 L488 291 L82 291 L82 357 L488 357 Z M233 159 Q233 180 248.5 194.5 Q264 209 285 209 Q306 209 321 194.5 Q336 180 336 159 Q336 137 321 122 Q306 107 285 107 Q264 107 248.5 122 Q233 137 233 159 Z M233 486 Q233 507 248.5 521.5 Q264 536 285 536 Q306 536 321 521.5 Q336 507 336 486 Q336 464 321 449 Q306 434 285 434 Q264 434 248.5 449 Q233 464 233 486 Z " />
<glyph glyph-name="equal" unicode="&#x3d;" horiz-adv-x="570" d="M488 278 L488 212 L82 212 L82 278 L488 278 Z M488 436 L488 370 L82 370 L82 436 L488 436 Z " />
<glyph glyph-name="greater" unicode="&#x3e;" horiz-adv-x="570" d="M488 354 L488 288 L82 144 L82 213 L402 321 L82 430 L82 499 L488 354 Z " />
<glyph glyph-name="greaterequal" unicode="&#x2265;" horiz-adv-x="570" d="M488 354 L488 288 L82 144 L82 213 L402 321 L82 430 L82 499 L488 354 Z M488 41 L82 41 L82 107 L488 107 L488 41 Z " />
<glyph glyph-name="less" unicode="&#x3c;" horiz-adv-x="570" d="M488 430 L168 321 L488 213 L488 144 L82 288 L82 354 L488 499 L488 430 Z " />
<glyph glyph-name="lessequal" unicode="&#x2264;" horiz-adv-x="570" d="M488 107 L488 41 L82 41 L82 107 L488 107 Z M488 430 L168 321 L488 213 L488 144 L82 288 L82 354 L488 499 L488 430 Z " />
<glyph glyph-name="logicalnot" unicode="&#xac;" horiz-adv-x="570" d="M488 150 L422 150 L422 291 L82 291 L82 357 L488 357 L488 150 Z " />
<glyph glyph-name="minus" unicode="&#x2212;" horiz-adv-x="570" d="M488 357 L488 291 L82 291 L82 357 L488 357 Z " />
<glyph glyph-name="multiply" unicode="&#xd7;" horiz-adv-x="570" d="M332 324 L488 168 L441 121 L285 277 L129 121 L82 168 L238 324 L82 480 L129 527 L285 371 L441 527 L488 480 L332 324 Z " />
<glyph glyph-name="notequal" unicode="&#x2260;" horiz-adv-x="570" d="M338 381 L291 267 L488 267 L488 201 L264 201 L223 103 L162 103 L203 201 L82 201 L82 267 L230 267 L277 381 L82 381 L82 447 L304 447 L346 549 L408 549 L365 447 L488 447 L488 381 L338 381 Z " />
<glyph glyph-name="percent" unicode="&#x25;" horiz-adv-x="830" d="M42 521 Q42 576 63.5 614 Q85 652 120 670.5 Q155 689 196 689 Q236 689 271.5 670.5 Q307 652 329 614 Q351 576 351 521 Q351 466 329 428 Q307 390 271.5 371.5 Q236 353 196 353 Q155 353 120 371.5 Q85 390 63.5 428 Q42 466 42 521 Z M249 0 L185 0 L580 680 L644 680 L249 0 Z M285 521 Q285 573 260.5 602.5 Q236 632 196 632 Q156 632 131.5 602.5 Q107 573 107 521 Q107 468 131.5 439 Q156 410 196 410 Q236 410 260.5 439 Q285 468 285 521 Z M480 160 Q480 215 501.5 253.5 Q523 292 558 310.5 Q593 329 634 329 Q674 329 709.5 310.5 Q745 292 767 253.5 Q789 215 789 160 Q789 105 767 67 Q745 29 709.5 10.5 Q674 -8 634 -8 Q593 -8 558 10.5 Q523 29 501.5 67 Q480 105 480 160 Z M723 160 Q723 213 698.5 242.5 Q674 272 634 272 Q594 272 569.5 242.5 Q545 213 545 160 Q545 108 569.5 78.5 Q594 49 634 49 Q674 49 698.5 78.5 Q723 108 723 160 Z " />
<glyph glyph-name="perthousand" unicode="&#x2030;" horiz-adv-x="1200" d="M42 521 Q42 576 63.5 614 Q85 652 120 670.5 Q155 689 196 689 Q236 689 271.5 670.5 Q307 652 329 614 Q351 576 351 521 Q351 466 329 428 Q307 390 271.5 371.5 Q236 353 196 353 Q155 353 120 371.5 Q85 390 63.5 428 Q42 466 42 521 Z M249 0 L185 0 L580 680 L644 680 L249 0 Z M285 521 Q285 573 260.5 602.5 Q236 632 196 632 Q156 632 131.5 602.5 Q107 573 107 521 Q107 468 131.5 439 Q156 410 196 410 Q236 410 260.5 439 Q285 468 285 521 Z M480 160 Q480 215 501.5 253.5 Q523 292 558 310.5 Q593 329 634 329 Q674 329 709.5 310.5 Q745 292 767 253.5 Q789 215 789 160 Q789 105 767 67 Q745 29 709.5 10.5 Q674 -8 634 -8 Q593 -8 558 10.5 Q523 29 501.5 67 Q480 105 480 160 Z M850 160 Q850 215 871.5 253.5 Q893 292 928 310.5 Q963 329 1004 329 Q1044 329 1079.5 310.5 Q1115 292 1137 253.5 Q1159 215 1159 160 Q1159 105 1137 67 Q1115 29 1079.5 10.5 Q1044 -8 1004 -8 Q963 -8 928 10.5 Q893 29 871.5 67 Q850 105 850 160 Z M723 160 Q723 213 698.5 242.5 Q674 272 634 272 Q594 272 569.5 242.5 Q545 213 545 160 Q545 108 569.5 78.5 Q594 49 634 49 Q674 49 698.5 78.5 Q723 108 723 160 Z M1093 160 Q1093 213 1068.5 242.5 Q1044 272 1004 272 Q964 272 939.5 242.5 Q915 213 915 160 Q915 108 939.5 78.5 Q964 49 1004 49 Q1044 49 1068.5 78.5 Q1093 108 1093 160 Z " />
<glyph glyph-name="plus" unicode="&#x2b;" horiz-adv-x="570" d="M488 291 L319 291 L319 121 L251 121 L251 291 L82 291 L82 357 L251 357 L251 527 L319 527 L319 357 L488 357 L488 291 Z " />
<glyph glyph-name="plusminus" unicode="&#xb1;" horiz-adv-x="570" d="M488 412 L488 346 L319 346 L319 176 L251 176 L251 346 L82 346 L82 412 L251 412 L251 582 L319 582 L319 412 L488 412 Z M82 97 L488 97 L488 31 L82 31 L82 97 Z " />
<glyph glyph-name="bar" unicode="&#x7c;" horiz-adv-x="336" d="M204 -79 L132 -79 L132 736 L204 736 L204 -79 Z " />
<glyph glyph-name="brokenbar" unicode="&#xa6;" horiz-adv-x="336" d="M132 736 L204 736 L204 407 L132 407 L132 736 Z M204 -79 L132 -79 L132 250 L204 250 L204 -79 Z " />
<glyph glyph-name="at" unicode="&#x40;" horiz-adv-x="863" d="M590 445 L590 193 Q590 144 607.5 122.5 Q625 101 653 101 Q733 101 733 283 Q733 373 695 441 Q657 509 589 546 Q521 583 434 583 Q346 583 277 542.5 Q208 502 169 426.5 Q130 351 130 251 Q130 150 171.5 75.5 Q213 1 283.5 -38 Q354 -77 439 -77 Q495 -77 538 -65 Q581 -53 623 -25 L661 -78 Q610 -112 558 -125.5 Q506 -139 437 -139 Q331 -139 245 -90 Q159 -41 109.5 48 Q60 137 60 251 Q60 367 108.5 456.5 Q157 546 242.5 595.5 Q328 645 434 645 Q541 645 625 598.5 Q709 552 756 469.5 Q803 387 803 283 Q803 167 764 105.5 Q725 44 652 44 Q610 44 578.5 64.5 Q547 85 536 124 Q523 85 489.5 64.5 Q456 44 413 44 Q368 44 330.5 68 Q293 92 271 138.5 Q249 185 249 249 Q249 312 270 358.5 Q291 405 327.5 429.5 Q364 454 408 454 Q447 454 476.5 438.5 Q506 423 520 394 L520 445 L590 445 Z M517 249 Q517 317 492.5 353 Q468 389 423 389 Q378 389 351 352.5 Q324 316 324 249 Q324 181 351 145 Q378 109 422 109 Q467 109 492 146 Q517 183 517 249 Z " />
<glyph glyph-name="ampersand" unicode="&#x26;" horiz-adv-x="582" d="M580 0 L481 0 Q473 5 438 43 Q377 -7 287 -7 Q211 -7 158 21.5 Q105 50 78.5 98.5 Q52 147 52 205 Q52 268 80 321 Q108 374 164 414 Q130 485 130 531 Q130 600 170 644.5 Q210 689 281 689 Q352 689 390 648 Q428 607 432 546 L433 531 L359 531 Q355 573 335 596.5 Q315 620 280 620 Q246 620 227 598 Q208 576 208 534 Q208 470 274.5 366 Q341 262 436 153 Q462 211 462 295 L462 309 L533 309 L533 289 Q533 174 485 97 Q551 26 580 0 Z M391 94 Q270 231 197 353 Q162 325 145 290.5 Q128 256 128 207 Q128 141 171 99.5 Q214 58 285 58 Q349 58 391 94 Z " />
<glyph glyph-name="paragraph" unicode="&#xb6;" horiz-adv-x="632" d="M537 -170 L470 -170 L470 614 L368 614 L368 -170 L302 -170 L302 274 L260 274 Q204 274 158.5 298.5 Q113 323 86.5 366.5 Q60 410 60 465 L60 490 Q60 545 86.5 588.5 Q113 632 158.5 656 Q204 680 260 680 L537 680 L537 -170 Z " />
<glyph glyph-name="copyright" unicode="&#xa9;" horiz-adv-x="823" d="M60 340 Q60 441 104.5 521 Q149 601 229 646 Q309 691 412 691 Q514 691 594 646 Q674 601 718.5 521 Q763 441 763 340 Q763 239 718.5 159 Q674 79 594 34 Q514 -11 412 -11 Q309 -11 229 34 Q149 79 104.5 159 Q60 239 60 340 Z M698 340 Q698 426 662 493 Q626 560 561 597.5 Q496 635 412 635 Q328 635 262.5 597.5 Q197 560 161 493 Q125 426 125 340 Q125 254 161 187 Q197 120 262.5 82.5 Q328 45 412 45 Q496 45 561 82.5 Q626 120 662 187 Q698 254 698 340 Z M243 324 L243 356 Q243 414 266 456.5 Q289 499 327.5 520.5 Q366 542 412 542 Q455 542 490.5 526 Q526 510 546.5 482.5 Q567 455 570 423 L571 411 L504 411 Q499 446 475.5 465.5 Q452 485 414 485 Q363 485 337 447 Q311 409 311 351 L311 330 Q311 272 337 234 Q363 196 414 196 Q454 196 476.5 216.5 Q499 237 504 275 L571 275 L570 263 Q566 211 523.5 175 Q481 139 411 139 Q365 139 326.5 161.5 Q288 184 265.5 226 Q243 268 243 324 Z " />
<glyph glyph-name="registered" unicode="&#xae;" horiz-adv-x="470" d="M436 558 Q436 501 410.5 455 Q385 409 339 383 Q293 357 235 357 Q177 357 131.5 383 Q86 409 60.5 455 Q35 501 35 558 Q35 615 60.5 661 Q86 707 131.5 733 Q177 759 235 759 Q293 759 339 733 Q385 707 410.5 661 Q436 615 436 558 Z M393 558 Q393 629 350 675 Q307 721 235 721 Q163 721 120.5 675 Q78 629 78 558 Q78 487 120.5 441 Q163 395 235 395 Q307 395 350 441 Q393 487 393 558 Z M274 543 Q309 489 324 454 L279 454 Q255 504 233 539 L205 539 L205 454 L164 454 L164 671 L246 671 Q277 671 298 654 Q319 637 319 604 Q319 558 274 543 Z M206 572 L239 572 Q259 572 268.5 579.5 Q278 587 278 604 Q278 637 239 637 L206 637 L206 572 Z " />
<glyph glyph-name="section" unicode="&#xa7;" horiz-adv-x="522" d="M367 110 Q418 70 418 7 Q418 -55 375 -95 Q332 -135 261 -135 Q183 -135 140.5 -97 Q98 -59 95 -2 L94 16 L161 16 Q163 -26 188.5 -50 Q214 -74 262 -74 Q303 -74 328 -53 Q353 -32 353 1 Q353 35 331 54.5 Q309 74 260 98 L234 111 L203 126 Q148 154 117 174 Q86 194 65 224 Q44 254 44 298 Q44 350 72.5 387.5 Q101 425 149 444 Q98 485 98 547 Q98 609 141 649 Q184 689 255 689 Q333 689 375.5 651 Q418 613 421 556 L422 538 L356 538 Q353 580 328 604 Q303 628 254 628 Q214 628 189 607 Q164 586 164 553 Q164 529 175.5 512 Q187 495 205 484 Q223 473 255 457 L282 443 L311 428 Q367 400 398.5 380 Q430 360 451 330 Q472 300 472 256 Q472 203 444 166 Q416 129 367 110 Z M405 247 Q405 280 385 304.5 Q365 329 336.5 345 Q308 361 265 380 Q258 383 250.5 386.5 Q243 390 235 394 L193 415 Q158 403 134.5 373.5 Q111 344 111 307 Q111 274 131 249.5 Q151 225 178.5 209 Q206 193 250 174 L281 160 L323 139 Q357 150 381 179.5 Q405 209 405 247 Z " />
<glyph glyph-name="trademark" unicode="&#x2122;" horiz-adv-x="731" d="M47 680 L288 680 L288 627 L198 627 L198 384 L137 384 L137 627 L47 627 L47 680 Z M665 680 L665 384 L610 384 L610 604 Q587 547 522 441 Q521 440 519 436.5 Q517 433 514 431.5 Q511 430 507 430 L497 430 Q492 430 488.5 432.5 Q485 435 484 437.5 Q483 440 482 441 Q450 493 429.5 529.5 Q409 566 393 603 L393 384 L338 384 L338 680 L408 680 Q470 560 503 508 Q543 576 593 680 L665 680 Z " />
<glyph glyph-name="degree" unicode="&#xb0;" horiz-adv-x="350" d="M47 565 Q47 619 84 655 Q121 691 175 691 Q230 691 266.5 655 Q303 619 303 565 Q303 510 266.5 474.5 Q230 439 175 439 Q121 439 84 475 Q47 511 47 565 Z M248 565 Q248 597 227.5 618 Q207 639 175 639 Q144 639 123.5 618 Q103 597 103 565 Q103 532 123 511.5 Q143 491 175 491 Q207 491 227.5 511.5 Q248 532 248 565 Z " />
<glyph glyph-name="asciicircum" unicode="&#x5e;" horiz-adv-x="570" d="M436 264 L285 594 L132 264 L59 264 L253 680 L317 680 L511 264 L436 264 Z " />
<glyph glyph-name="dagger" unicode="&#x2020;" horiz-adv-x="466" d="M415 420 L267 420 L267 -95 L197 -95 L197 420 L51 420 L51 485 L197 485 L197 680 L267 680 L267 485 L415 485 L415 420 Z " />
<glyph glyph-name="daggerdbl" unicode="&#x2021;" horiz-adv-x="466" d="M268 420 L268 231 L415 231 L415 166 L268 166 L268 -95 L196 -95 L196 166 L51 166 L51 231 L196 231 L196 420 L51 420 L51 485 L196 485 L196 680 L268 680 L268 485 L415 485 L415 420 L268 420 Z " />
<glyph glyph-name="uni0308" unicode="&#x308;" d="M-333 626 Q-333 648 -318 663 Q-303 678 -280 678 Q-257 678 -241.5 663 Q-226 648 -226 626 Q-226 604 -241.5 589 Q-257 574 -280 574 Q-303 574 -318 589 Q-333 604 -333 626 Z M-154 626 Q-154 648 -139 663 Q-124 678 -101 678 Q-78 678 -63 663 Q-48 648 -48 626 Q-48 604 -63 589 Q-78 574 -101 574 Q-124 574 -139 589 Q-154 604 -154 626 Z " />
<glyph glyph-name="uni0307" unicode="&#x307;" d="M-151 627 Q-151 649 -136 663.5 Q-121 678 -99 678 Q-77 678 -62.5 663.5 Q-48 649 -48 627 Q-48 605 -62.5 590.5 Q-77 576 -99 576 Q-121 576 -136 590.5 Q-151 605 -151 627 Z " />
<glyph glyph-name="gravecomb" unicode="&#x300;" d="M-114 680 Q-75 626 -47 560 L-119 560 Q-167 632 -207 680 L-114 680 Z " />
<glyph glyph-name="acutecomb" unicode="&#x301;" d="M-136 560 L-207 560 Q-179 626 -140 680 L-47 680 Q-92 626 -136 560 Z " />
<glyph glyph-name="uni030B" unicode="&#x30b;" d="M-270 560 L-334 560 Q-316 608 -278 680 L-192 680 Q-229 636 -270 560 Z M-137 560 L-200 560 Q-168 628 -133 680 L-48 680 Q-72 650 -137 560 Z " />
<glyph glyph-name="uni0302" unicode="&#x302;" d="M-109 560 Q-133 602 -170 644 Q-205 603 -231 560 L-293 560 Q-265 627 -224 680 L-115 680 Q-77 630 -47 560 L-109 560 Z " />
<glyph glyph-name="uni030C" unicode="&#x30c;" d="M-47 680 Q-77 610 -115 560 L-224 560 Q-265 613 -293 680 L-231 680 Q-205 637 -170 596 Q-133 638 -109 680 L-47 680 Z " />
<glyph glyph-name="uni0306" unicode="&#x306;" d="M-47 680 Q-47 627 -80.5 595 Q-114 563 -170 563 Q-227 563 -260 595 Q-293 627 -293 680 L-230 680 Q-230 653 -216.5 633 Q-203 613 -170 613 Q-137 613 -122.5 633 Q-108 653 -108 680 L-47 680 L-47 680 Z " />
<glyph glyph-name="uni030A" unicode="&#x30a;" d="M-237 634 Q-237 673 -210 698.5 Q-183 724 -142 724 Q-100 724 -73.5 698.5 Q-47 673 -47 634 Q-47 595 -73.5 570 Q-100 545 -142 545 Q-183 545 -210 570 Q-237 595 -237 634 Z M-92 634 Q-92 656 -105.5 670 Q-119 684 -142 684 Q-165 684 -178.5 670 Q-192 656 -192 634 Q-192 612 -178.5 598 Q-165 584 -142 584 Q-119 584 -105.5 598 Q-92 612 -92 634 Z " />
<glyph glyph-name="tildecomb" unicode="&#x303;" d="M-126 565 Q-147 565 -163.5 572.5 Q-180 580 -203 594 Q-220 605 -230 610 Q-240 615 -251 615 Q-270 615 -278.5 601.5 Q-287 588 -289 565 L-335 565 Q-332 672 -251 672 Q-232 672 -215.5 664.5 Q-199 657 -178 643 Q-162 632 -151.5 626.5 Q-141 621 -130 621 Q-111 621 -102.5 636 Q-94 651 -93 671 L-47 671 Q-48 617 -67.5 591 Q-87 565 -126 565 Z " />
<glyph glyph-name="uni0304" unicode="&#x304;" d="M-47 647 L-47 584 L-273 584 L-273 647 L-47 647 Z " />
<glyph glyph-name="uni0312" unicode="&#x312;" d="M-64 568 L-138 568 Q-137 615 -124 649 Q-111 683 -90 715 L-48 715 Q-64 639 -64 568 Z " />
<glyph glyph-name="uni0326" unicode="&#x326;" d="M-122 -53 L-48 -53 Q-49 -100 -62 -134 Q-75 -168 -96 -200 L-138 -200 Q-122 -124 -122 -53 Z " />
<glyph glyph-name="uni0327" unicode="&#x327;" d="M-47 -110 Q-47 -146 -73 -167.5 Q-99 -189 -142 -189 Q-198 -189 -235 -160 L-209 -119 Q-179 -141 -142 -141 Q-123 -141 -112.5 -133 Q-102 -125 -102 -110 Q-102 -96 -114.5 -88.5 Q-127 -81 -150 -81 Q-166 -81 -181 -86 L-198 -64 L-164 9 L-112 9 L-134 -39 Q-94 -39 -70.5 -57.5 Q-47 -76 -47 -110 Z " />
<glyph glyph-name="uni0328" unicode="&#x328;" d="M-47 0 Q-74 -16 -91.5 -37 Q-109 -58 -109 -82 Q-109 -117 -60 -117 L-50 -117 L-50 -165 Q-64 -168 -80 -168 Q-122 -168 -145 -148.5 Q-168 -129 -168 -95 Q-168 -28 -75 15 L-47 0 Z " />
<glyph glyph-name="uni0335" unicode="&#x335;" d="M-48 264 L-48 205 L-330 205 L-330 264 L-48 264 Z " />
<glyph glyph-name="uni0336" unicode="&#x336;" d="M-48 274 L-48 194 L-503 194 L-503 274 L-48 274 Z " />
<glyph glyph-name="uni0337" unicode="&#x337;" d="M-279 324 L-279 390 L-45 533 L-45 466 L-279 324 Z " />
<glyph glyph-name="uni0338" unicode="&#x338;" d="M-385 -26 L-440 0 L-77 706 L-22 680 L-385 -26 Z " />
<glyph glyph-name="acute" unicode="&#xb4;" horiz-adv-x="254" d="M118 560 L47 560 Q75 626 114 680 L207 680 Q162 626 118 560 Z " />
<glyph glyph-name="breve" unicode="&#x2d8;" horiz-adv-x="340" d="M293 680 Q293 627 259.5 595 Q226 563 170 563 Q113 563 80 595 Q47 627 47 680 L110 680 Q110 653 123.5 633 Q137 613 170 613 Q203 613 217.5 633 Q232 653 232 680 L293 680 L293 680 Z " />
<glyph glyph-name="caron" unicode="&#x2c7;" horiz-adv-x="340" d="M293 680 Q263 610 225 560 L116 560 Q75 613 47 680 L109 680 Q135 637 170 596 Q207 638 231 680 L293 680 Z " />
<glyph glyph-name="cedilla" unicode="&#xb8;" horiz-adv-x="282" d="M235 -110 Q235 -146 209 -167.5 Q183 -189 140 -189 Q84 -189 47 -160 L73 -119 Q103 -141 140 -141 Q159 -141 169.5 -133 Q180 -125 180 -110 Q180 -96 167.5 -88.5 Q155 -81 132 -81 Q116 -81 101 -86 L84 -64 L118 9 L170 9 L148 -39 Q188 -39 211.5 -57.5 Q235 -76 235 -110 Z " />
<glyph glyph-name="circumflex" unicode="&#x2c6;" horiz-adv-x="340" d="M231 560 Q207 602 170 644 Q135 603 109 560 L47 560 Q75 627 116 680 L225 680 Q263 630 293 560 L231 560 Z " />
<glyph glyph-name="dieresis" unicode="&#xa8;" horiz-adv-x="380" d="M47 626 Q47 648 62 663 Q77 678 100 678 Q123 678 138.5 663 Q154 648 154 626 Q154 604 138.5 589 Q123 574 100 574 Q77 574 62 589 Q47 604 47 626 Z M226 626 Q226 648 241 663 Q256 678 279 678 Q302 678 317 663 Q332 648 332 626 Q332 604 317 589 Q302 574 279 574 Q256 574 241 589 Q226 604 226 626 Z " />
<glyph glyph-name="dotaccent" unicode="&#x2d9;" horiz-adv-x="198" d="M47 627 Q47 649 62 663.5 Q77 678 99 678 Q121 678 135.5 663.5 Q150 649 150 627 Q150 605 135.5 590.5 Q121 576 99 576 Q77 576 62 590.5 Q47 605 47 627 Z " />
<glyph glyph-name="grave" unicode="&#x60;" horiz-adv-x="254" d="M140 680 Q179 626 207 560 L135 560 Q87 632 47 680 L140 680 Z " />
<glyph glyph-name="hungarumlaut" unicode="&#x2dd;" horiz-adv-x="381" d="M111 560 L47 560 Q65 608 103 680 L189 680 Q152 636 111 560 Z M244 560 L181 560 Q213 628 248 680 L333 680 Q309 650 244 560 Z " />
<glyph glyph-name="overscore" unicode="&#xaf;" horiz-adv-x="320" d="M273 647 L273 584 L47 584 L47 647 L273 647 Z " />
<glyph glyph-name="ogonek" unicode="&#x2db;" horiz-adv-x="215" d="M168 0 Q141 -16 123.5 -37 Q106 -58 106 -82 Q106 -117 155 -117 L165 -117 L165 -165 Q151 -168 135 -168 Q93 -168 70 -148.5 Q47 -129 47 -95 Q47 -28 140 15 L168 0 Z " />
<glyph glyph-name="ring" unicode="&#x2da;" horiz-adv-x="284" d="M47 634 Q47 673 74 698.5 Q101 724 142 724 Q184 724 210.5 698.5 Q237 673 237 634 Q237 595 210.5 570 Q184 545 142 545 Q101 545 74 570 Q47 595 47 634 Z M192 634 Q192 656 178.5 670 Q165 684 142 684 Q119 684 105.5 670 Q92 656 92 634 Q92 612 105.5 598 Q119 584 142 584 Q165 584 178.5 598 Q192 612 192 634 Z " />
<glyph glyph-name="tilde" unicode="&#x2dc;" horiz-adv-x="382" d="M256 565 Q235 565 218.5 572.5 Q202 580 179 594 Q162 605 152 610 Q142 615 131 615 Q112 615 103.5 601.5 Q95 588 93 565 L47 565 Q50 672 131 672 Q150 672 166.5 664.5 Q183 657 204 643 Q220 632 230.5 626.5 Q241 621 252 621 Q271 621 279.5 636 Q288 651 289 671 L335 671 Q334 617 314.5 591 Q295 565 256 565 Z " />
</font>
</svg>
